<?xml version="1.0" encoding="utf-8"?>
<!-- Generator: Adobe Adobe Illustrator 24.2.0, SVG Export Plug-In . SVG Version: 6.00 Build 0)  -->
<svg version="1.1" id="Layer_12" xmlns="http://www.w3.org/2000/svg" xmlns:xlink="http://www.w3.org/1999/xlink" x="0px" y="0px"
	 width="2048px" height="2048px" viewBox="0 0 2048 2048" style="enable-background:new 0 0 2048 2048;" xml:space="preserve">
<style type="text/css">
	.st0{clip-path:url(#SVGID_2_);}
	.st1{clip-path:url(#SVGID_4_);}
</style>
<g>
	<g>
		<g>
			<path d="M880.4,1376.63c0.55,5.57-30.86,30.27-50.06,41.4c-19.11,11.08-62.26,30.64-65.84,27.23
				c-4.61-4.39-25.59-72.98-24.5-78.59c0.65-3.36,27.7-13.2,43.11-23.64c14.96-10.14,34.63-31.51,39.13-31.04
				C830.33,1312.84,879.83,1370.95,880.4,1376.63z"/>
			<path d="M737.72,1452.85c-2.3,5.1-41.85,10.78-64.05,10.82c-22.09,0.04-69.24-4.6-70.63-9.34c-1.8-6.1,14.33-75.99,18.07-80.31
				c2.24-2.58,30.59,2.42,49.15,1.08c18.03-1.3,45.74-9.98,49.4-7.32C726.25,1372.57,740.07,1447.65,737.72,1452.85z"/>
			<path d="M576.04,1447.52c-4.54,3.26-41.64-11.59-60.88-22.65c-19.15-11.01-57.66-38.6-56.5-43.41
				c1.49-6.18,50.4-58.65,55.81-60.51c3.23-1.12,25.28,17.39,42.03,25.51c16.27,7.89,44.6,14.23,46.44,18.37
				C606.25,1372.26,580.68,1444.19,576.04,1447.52z"/>
			<path d="M438.69,1362.07c-5.57,0.55-30.27-30.86-41.4-50.06c-11.08-19.11-30.64-62.26-27.23-65.84
				c4.39-4.61,72.97-25.59,78.59-24.5c3.36,0.65,13.2,27.7,23.64,43.11c10.14,14.96,31.51,34.63,31.04,39.12
				C502.48,1311.99,444.37,1361.5,438.69,1362.07z"/>
			<path d="M362.47,1219.38c-5.1-2.3-10.78-41.85-10.82-64.05c-0.04-22.09,4.6-69.24,9.34-70.63c6.1-1.8,75.99,14.33,80.31,18.07
				c2.58,2.24-2.42,30.59-1.08,49.15c1.3,18.03,9.98,45.74,7.32,49.4C442.75,1207.91,367.67,1221.74,362.47,1219.38z"/>
			<path d="M367.8,1057.71c-3.26-4.54,11.59-41.64,22.65-60.88c11.01-19.15,38.6-57.66,43.41-56.5c6.18,1.49,58.65,50.4,60.51,55.81
				c1.12,3.23-17.39,25.28-25.51,42.03c-7.89,16.27-14.23,44.6-18.37,46.44C443.06,1087.92,371.13,1062.35,367.8,1057.71z"/>
			<path d="M453.25,920.36c-0.55-5.57,30.86-30.27,50.06-41.4c19.11-11.08,62.26-30.64,65.84-27.23
				c4.61,4.39,25.59,72.97,24.5,78.59c-0.65,3.36-27.7,13.2-43.11,23.64c-14.96,10.14-34.63,31.51-39.13,31.04
				C503.33,984.15,453.82,926.04,453.25,920.36z"/>
			<path d="M595.94,844.14c2.3-5.1,41.85-10.78,64.05-10.82c22.09-0.04,69.24,4.6,70.63,9.34c1.8,6.1-14.33,75.99-18.07,80.31
				c-2.24,2.58-30.59-2.42-49.15-1.08c-18.03,1.3-45.74,9.98-49.4,7.32C607.41,924.42,593.58,849.34,595.94,844.14z"/>
			<path d="M757.61,849.47c4.54-3.26,41.64,11.59,60.88,22.65c19.15,11.01,57.66,38.6,56.5,43.41c-1.49,6.18-50.4,58.65-55.81,60.51
				c-3.23,1.12-25.28-17.39-42.03-25.51c-16.27-7.89-44.6-14.23-46.44-18.37C727.4,924.73,752.98,852.8,757.61,849.47z"/>
		</g>
		<g>
			<polygon points="916.06,1398.06 897.31,1416.48 883.19,1401.58 902.17,1384.35 			"/>
			<polygon points="876.08,1432.42 854.79,1447.84 843.05,1431 864.39,1416.79 			"/>
			<polygon points="831.43,1460.44 808.08,1472.51 798.98,1454.11 822.2,1443.24 			"/>
			<polygon points="783.1,1481.48 758.21,1489.94 751.95,1470.39 776.53,1463.1 			"/>
			<polygon points="732.17,1495.1 706.3,1499.75 703.02,1479.48 728.42,1475.94 			"/>
			<polygon points="679.78,1500.96 653.51,1501.71 653.29,1481.18 678.92,1481.46 			"/>
			<polygon points="627.1,1498.96 601.01,1495.78 603.86,1475.44 629.16,1479.55 			"/>
			<polygon points="575.31,1489.12 549.99,1482.09 555.83,1462.41 580.24,1470.24 			"/>
			<polygon points="525.57,1471.68 501.57,1460.95 510.28,1442.36 533.26,1453.74 			"/>
			<polygon points="478.98,1447.01 456.85,1432.83 468.23,1415.74 489.25,1430.42 			"/>
			<polygon points="436.58,1415.68 416.81,1398.36 430.62,1383.16 449.22,1400.81 			"/>
			<polygon points="399.33,1378.38 382.37,1358.3 398.28,1345.33 414.04,1365.55 			"/>
			<polygon points="368.06,1335.95 354.27,1313.56 371.94,1303.11 384.51,1325.45 			"/>
			<polygon points="343.46,1289.32 333.16,1265.14 352.19,1257.43 361.29,1281.4 			"/>
			<polygon points="326.08,1239.56 319.5,1214.1 339.47,1209.32 344.9,1234.38 			"/>
			<polygon points="316.31,1187.75 313.6,1161.6 334.06,1159.85 335.69,1185.44 			"/>
			<polygon points="314.37,1135.07 315.59,1108.81 336.08,1110.13 333.88,1135.67 			"/>
			<polygon points="320.31,1082.69 325.43,1056.91 345.5,1061.26 339.51,1086.19 			"/>
			<polygon points="333.99,1031.78 342.9,1007.05 362.09,1014.35 352.45,1038.11 			"/>
			<polygon points="355.1,983.48 367.59,960.35 385.48,970.42 372.42,992.48 			"/>
			<polygon points="383.18,938.86 398.98,917.85 415.17,930.48 398.96,950.35 			"/>
			<polygon points="417.59,898.93 436.34,880.51 450.47,895.41 431.48,912.64 			"/>
			<polygon points="457.57,864.57 478.86,849.15 490.61,865.99 469.26,880.19 			"/>
			<polygon points="502.22,836.55 525.57,824.48 534.68,842.88 511.46,853.74 			"/>
			<polygon points="550.56,815.5 575.44,807.04 581.7,826.6 557.12,833.88 			"/>
			<polygon points="601.48,801.89 627.36,797.24 630.63,817.51 605.24,821.04 			"/>
			<polygon points="653.87,796.02 680.15,795.28 680.37,815.81 654.73,815.52 			"/>
			<polygon points="706.55,798.03 732.64,801.21 729.8,821.54 704.49,817.44 			"/>
			<polygon points="758.34,807.86 783.67,814.9 777.83,834.58 753.41,826.75 			"/>
			<polygon points="808.09,825.31 832.08,836.04 823.37,854.63 800.4,843.25 			"/>
			<polygon points="854.68,849.97 876.81,864.16 865.42,881.24 844.4,866.57 			"/>
			<polygon points="897.07,881.3 916.84,898.63 903.04,913.83 884.44,896.18 			"/>
		</g>
		<g>
			<polygon points="819.92,1294.11 801.17,1312.53 787.05,1297.63 806.03,1280.4 			"/>
			<polygon points="782.36,1325.39 759.88,1339.01 749.56,1321.26 771.99,1308.86 			"/>
			<polygon points="738.62,1347.21 713.6,1355.3 707.64,1335.65 732.33,1328.73 			"/>
			<polygon points="691.03,1358.39 664.83,1360.51 663.54,1340.02 689.15,1338.96 			"/>
			<polygon points="642.15,1358.33 616.16,1354.38 619.61,1334.14 644.78,1339 			"/>
			<polygon points="594.58,1347.05 570.2,1337.22 578.21,1318.32 601.59,1328.83 			"/>
			<polygon points="550.89,1325.13 529.42,1309.97 541.56,1293.41 561.9,1309.01 			"/>
			<polygon points="513.4,1293.76 495.99,1274.07 511.61,1260.74 527.82,1280.6 			"/>
			<polygon points="484.12,1254.61 471.7,1231.44 489.96,1222.07 501.18,1245.12 			"/>
			<polygon points="464.62,1209.78 457.86,1184.38 477.79,1179.45 483.4,1204.47 			"/>
			<polygon points="455.95,1161.68 455.2,1135.4 475.73,1135.18 475.45,1160.82 			"/>
			<polygon points="458.56,1112.86 463.88,1087.12 483.91,1091.62 477.74,1116.51 			"/>
			<polygon points="472.33,1065.96 483.41,1042.12 501.87,1051.11 490.15,1073.91 			"/>
			<polygon points="496.5,1023.47 512.77,1002.82 528.67,1015.81 512.02,1035.3 			"/>
			<polygon points="529.79,987.67 550.37,971.31 562.86,987.61 542.17,1002.76 			"/>
			<polygon points="570.42,960.48 594.2,949.29 602.61,968.02 579,978.01 			"/>
			<polygon points="616.2,943.36 641.92,937.93 645.8,958.09 620.53,962.39 			"/>
			<polygon points="664.7,937.21 690.98,937.84 690.12,958.36 664.54,956.73 			"/>
			<polygon points="713.31,942.38 738.74,949.03 733.19,968.8 708.66,961.34 			"/>
			<polygon points="759.43,958.58 782.65,970.9 772.71,988.86 750.55,975.96 			"/>
			<polygon points="800.6,984.94 820.37,1002.27 806.56,1017.47 787.96,999.82 			"/>
		</g>
	</g>
	<g>
		<g>
			<path d="M623.47,1095.2l0.27,10.27h10.73l0.5,10.98l0.81,91.27l14.61,10.43l14.65,10.69l73.63-0.03l0.19-133.32L623.47,1095.2z
				 M658.87,1210.62l-0.35-94.4l17.78,0.09l0.23-10.83l21.41,0.21l-0.32,10.59l19.94,0.01l0.55,93.84L658.87,1210.62z"/>
		</g>
	</g>
	<polygon points="758.9,1097.4 800.98,1097.62 801.18,1112.09 821.71,1139.43 821.83,1146.5 832.27,1146.52 832.32,1153.43 
		853.42,1190.33 852.96,1160.57 853.56,1097.62 894.7,1097.85 894.76,1110.9 875.36,1110.77 874.8,1146.39 916.26,1146.39 
		916.26,1139.74 927.24,1139.81 926.65,957.97 916.03,957.81 915.95,950.91 884.77,950.79 884.95,943.76 1125.71,943.74 
		1126.46,1006.74 1115.6,1006.71 1115.6,985.88 1104.93,974.93 1104.75,964.85 1097.62,959.27 1083.85,957.83 1073.47,950.79 
		958.23,950.9 958.34,1041.62 1008.45,1041.08 1014.09,1034.38 1025.47,1029.91 1031.66,1020.76 1031.69,1006.71 1042.25,1006.71 
		1041.91,1085.84 1032.32,1085.72 1031.74,1069.12 1024.17,1060.11 1013.77,1054.97 1010.69,1048.73 958.31,1048.83 957.83,1139.52 
		969.18,1139.61 969.44,1146.41 1010.55,1146.48 1010.67,1153.61 874.06,1153.63 873.96,1181.33 1011.68,1181.19 1011.74,1188.26 
		968.96,1188.62 968.95,1195.47 955.99,1195.54 958.83,1348.72 973.41,1348.8 973.69,1355.98 1042.28,1356.08 1042.29,1349.11 
		1052.08,1342.16 1066.38,1341.92 1073.58,1335 1079.84,1329.76 1084.23,1321.09 1084.18,1299.83 1094.62,1299.99 1094.9,1363.03 
		884.62,1363.14 884.75,1355.92 916.36,1355.66 916.3,1349.55 929.2,1349.22 927.81,1195.88 916.21,1195.81 916.15,1188.41 
		874.23,1188.35 873.89,1202.69 874,1209.88 873.89,1216.18 895.04,1216.52 895.38,1222.9 885.22,1230.31 842.98,1230.31 
		842.9,1216.39 852.84,1216.41 853.16,1209.15 821.81,1173.93 815.47,1170.16 811.45,1167.37 811.38,1160.42 800.96,1160.62 
		801.03,1223.4 800.72,1230.23 790.49,1230.31 758.6,1230.31 758.91,1216.22 769.43,1216.18 779.62,1216.15 779.94,1209.28 
		780.08,1111.65 758.95,1111.55 	"/>
	<polygon points="1010.35,1095.2 1030.75,1095.22 1035.39,1097.48 1042.14,1098.65 1051.29,1098.65 1051.97,1202.05 1053.2,1205.4 
		1057.5,1207.48 1065.28,1209.25 1075.4,1209.05 1084.85,1207.08 1095.87,1202.31 1101.24,1196.22 1102.24,1191.38 1102.33,1185.19 
		1103.8,1102.67 1110.63,1099.79 1113.5,1095.89 1137.86,1095.71 1138.01,1098.6 1140.99,1100.36 1144.5,1102.02 1144.24,1110.04 
		1129.3,1110.11 1128.67,1208.79 1136.64,1216.31 1151.61,1218.6 1152.14,1228.44 1118.31,1228.83 1117.18,1222.36 1112.27,1216.99 
		1103.85,1214.76 1091.29,1216.1 1087.48,1222.24 1082.81,1222.31 1082.62,1225.17 1076.87,1225.17 1076.87,1228.63 
		1062.84,1228.75 1062.68,1225.21 1057.57,1225.21 1057.4,1221.77 1046.92,1221.98 1046.67,1218.27 1038.96,1215.29 1032.72,1211.8 
		1030.76,1206.89 1027.48,1203.73 1026.21,1109.68 1021,1109.65 1016.11,1109.64 1010.31,1109.65 	"/>
	<g>
		<g>
			<g>
				<path d="M1152.14,1234v41.88h424.07V1234H1152.14z M1181.27,1266.07c0,1.92-1.56,3.48-3.48,3.48h-17.46
					c-1.92,0-3.48-1.56-3.48-3.48v-18.34c0-1.92,1.56-3.48,3.48-3.48h17.46c1.92,0,3.48,1.56,3.48,3.48V1266.07z M1213.55,1266.07
					c0,1.92-1.56,3.48-3.48,3.48h-17.46c-1.92,0-3.48-1.56-3.48-3.48v-18.34c0-1.92,1.56-3.48,3.48-3.48h17.46
					c1.92,0,3.48,1.56,3.48,3.48V1266.07z M1245.84,1266.07c0,1.92-1.56,3.48-3.48,3.48h-17.46c-1.92,0-3.48-1.56-3.48-3.48v-18.34
					c0-1.92,1.56-3.48,3.48-3.48h17.46c1.92,0,3.48,1.56,3.48,3.48V1266.07z M1278.12,1266.07c0,1.92-1.56,3.48-3.48,3.48h-17.46
					c-1.92,0-3.48-1.56-3.48-3.48v-18.34c0-1.92,1.56-3.48,3.48-3.48h17.46c1.92,0,3.48,1.56,3.48,3.48V1266.07z M1310.41,1266.07
					c0,1.92-1.56,3.48-3.48,3.48h-17.46c-1.92,0-3.48-1.56-3.48-3.48v-18.34c0-1.92,1.56-3.48,3.48-3.48h17.46
					c1.92,0,3.48,1.56,3.48,3.48V1266.07z M1342.26,1266.07c0,1.92-1.56,3.48-3.48,3.48h-17.46c-1.92,0-3.48-1.56-3.48-3.48v-18.34
					c0-1.92,1.56-3.48,3.48-3.48h17.46c1.92,0,3.48,1.56,3.48,3.48V1266.07z M1374.11,1266.07c0,1.92-1.56,3.48-3.48,3.48h-17.46
					c-1.92,0-3.48-1.56-3.48-3.48v-18.34c0-1.92,1.56-3.48,3.48-3.48h17.46c1.92,0,3.48,1.56,3.48,3.48V1266.07z M1405.95,1266.07
					c0,1.92-1.56,3.48-3.48,3.48h-17.46c-1.92,0-3.48-1.56-3.48-3.48v-18.34c0-1.92,1.56-3.48,3.48-3.48h17.46
					c1.92,0,3.48,1.56,3.48,3.48V1266.07z M1439.11,1266.07c0,1.92-1.56,3.48-3.48,3.48h-17.46c-1.92,0-3.48-1.56-3.48-3.48v-18.34
					c0-1.92,1.56-3.48,3.48-3.48h17.46c1.92,0,3.48,1.56,3.48,3.48V1266.07z M1473.14,1266.07c0,1.92-1.56,3.48-3.48,3.48h-17.46
					c-1.92,0-3.48-1.56-3.48-3.48v-18.34c0-1.92,1.56-3.48,3.48-3.48h17.46c1.92,0,3.48,1.56,3.48,3.48V1266.07z M1505.43,1266.07
					c0,1.92-1.56,3.48-3.48,3.48h-17.46c-1.92,0-3.48-1.56-3.48-3.48v-18.34c0-1.92,1.56-3.48,3.48-3.48h17.46
					c1.92,0,3.48,1.56,3.48,3.48V1266.07z M1537.06,1266.07c0,1.92-1.56,3.48-3.48,3.48h-17.46c-1.92,0-3.48-1.56-3.48-3.48v-18.34
					c0-1.92,1.56-3.48,3.48-3.48h17.46c1.92,0,3.48,1.56,3.48,3.48V1266.07z M1570,1266.07c0,1.92-1.56,3.48-3.48,3.48h-17.46
					c-1.92,0-3.48-1.56-3.48-3.48v-18.34c0-1.92,1.56-3.48,3.48-3.48h17.46c1.92,0,3.48,1.56,3.48,3.48V1266.07z"/>
			</g>
		</g>
		<g>
			<g>
				<path d="M1152.14,1048.14v41.88h424.07v-41.88H1152.14z M1181.27,1080.21c0,1.92-1.56,3.48-3.48,3.48h-17.46
					c-1.92,0-3.48-1.56-3.48-3.48v-18.34c0-1.92,1.56-3.48,3.48-3.48h17.46c1.92,0,3.48,1.56,3.48,3.48V1080.21z M1213.55,1080.21
					c0,1.92-1.56,3.48-3.48,3.48h-17.46c-1.92,0-3.48-1.56-3.48-3.48v-18.34c0-1.92,1.56-3.48,3.48-3.48h17.46
					c1.92,0,3.48,1.56,3.48,3.48V1080.21z M1245.84,1080.21c0,1.92-1.56,3.48-3.48,3.48h-17.46c-1.92,0-3.48-1.56-3.48-3.48v-18.34
					c0-1.92,1.56-3.48,3.48-3.48h17.46c1.92,0,3.48,1.56,3.48,3.48V1080.21z M1278.12,1080.21c0,1.92-1.56,3.48-3.48,3.48h-17.46
					c-1.92,0-3.48-1.56-3.48-3.48v-18.34c0-1.92,1.56-3.48,3.48-3.48h17.46c1.92,0,3.48,1.56,3.48,3.48V1080.21z M1310.41,1080.21
					c0,1.92-1.56,3.48-3.48,3.48h-17.46c-1.92,0-3.48-1.56-3.48-3.48v-18.34c0-1.92,1.56-3.48,3.48-3.48h17.46
					c1.92,0,3.48,1.56,3.48,3.48V1080.21z M1342.26,1080.21c0,1.92-1.56,3.48-3.48,3.48h-17.46c-1.92,0-3.48-1.56-3.48-3.48v-18.34
					c0-1.92,1.56-3.48,3.48-3.48h17.46c1.92,0,3.48,1.56,3.48,3.48V1080.21z M1374.11,1080.21c0,1.92-1.56,3.48-3.48,3.48h-17.46
					c-1.92,0-3.48-1.56-3.48-3.48v-18.34c0-1.92,1.56-3.48,3.48-3.48h17.46c1.92,0,3.48,1.56,3.48,3.48V1080.21z M1405.95,1080.21
					c0,1.92-1.56,3.48-3.48,3.48h-17.46c-1.92,0-3.48-1.56-3.48-3.48v-18.34c0-1.92,1.56-3.48,3.48-3.48h17.46
					c1.92,0,3.48,1.56,3.48,3.48V1080.21z M1439.11,1080.21c0,1.92-1.56,3.48-3.48,3.48h-17.46c-1.92,0-3.48-1.56-3.48-3.48v-18.34
					c0-1.92,1.56-3.48,3.48-3.48h17.46c1.92,0,3.48,1.56,3.48,3.48V1080.21z M1473.14,1080.21c0,1.92-1.56,3.48-3.48,3.48h-17.46
					c-1.92,0-3.48-1.56-3.48-3.48v-18.34c0-1.92,1.56-3.48,3.48-3.48h17.46c1.92,0,3.48,1.56,3.48,3.48V1080.21z M1505.43,1080.21
					c0,1.92-1.56,3.48-3.48,3.48h-17.46c-1.92,0-3.48-1.56-3.48-3.48v-18.34c0-1.92,1.56-3.48,3.48-3.48h17.46
					c1.92,0,3.48,1.56,3.48,3.48V1080.21z M1537.06,1080.21c0,1.92-1.56,3.48-3.48,3.48h-17.46c-1.92,0-3.48-1.56-3.48-3.48v-18.34
					c0-1.92,1.56-3.48,3.48-3.48h17.46c1.92,0,3.48,1.56,3.48,3.48V1080.21z M1570,1080.21c0,1.92-1.56,3.48-3.48,3.48h-17.46
					c-1.92,0-3.48-1.56-3.48-3.48v-18.34c0-1.92,1.56-3.48,3.48-3.48h17.46c1.92,0,3.48,1.56,3.48,3.48V1080.21z"/>
			</g>
		</g>
		<polygon points="1250.29,1109.24 1250.25,1149.87 1234.17,1149.79 1234.1,1141.16 1242.3,1141.28 1242.09,1117.21 1234.13,1117.3 
			1194.37,1117.31 1194.36,1125.38 1186.48,1125.43 1186.44,1157.46 1218.13,1157.22 1218.29,1141.3 1226.27,1141.46 
			1226.59,1189.88 1218.28,1190.02 1218.03,1173.9 1187.02,1173.91 1186.88,1206 1194.5,1206.13 1194.45,1214.21 1242.01,1214.06 
			1242.14,1190.07 1234.01,1190 1234.08,1181.55 1249.88,1181.4 1250.03,1222.51 1162.61,1222.2 1162.71,1214.23 1170.56,1214.24 
			1170.45,1205.86 1178.22,1205.84 1177.89,1125.37 1170.4,1125.25 1170.41,1117.23 1162.76,1117.22 1162.74,1109.08 		"/>
		<polygon points="1556.57,1109.24 1557.01,1149.87 1540.46,1149.79 1540.39,1141.16 1548.58,1141.28 1548.38,1117.21 
			1540.41,1117.3 1500.66,1117.31 1500.65,1125.38 1492.76,1125.43 1492.72,1157.46 1524.42,1157.22 1524.58,1141.3 
			1532.55,1141.46 1532.87,1189.88 1524.56,1190.02 1524.31,1173.9 1493.3,1173.91 1493.17,1206 1500.78,1206.13 1500.74,1214.21 
			1548.29,1214.05 1548.42,1190.07 1540.29,1190 1540.37,1181.55 1556.17,1181.4 1556.31,1222.51 1468.9,1222.2 1468.99,1214.23 
			1476.84,1214.24 1476.74,1205.86 1484.5,1205.84 1484.17,1125.37 1476.68,1125.25 1476.69,1117.23 1469.05,1117.22 
			1469.03,1109.08 		"/>
		<g>
			<path d="M1449,1181.07l-0.26,41.44h-10.79l0.01-5.91c0,0-5.61,6.05-23.19,5.91c-13.6,0-29.96-0.47-36.55-9.6
				c-7.38-10.22-6.3-69.5-1.44-84.61c6.53-20.28,24.27-19.09,34.55-19.09c11.51,0,22.71,1.98,27.24,7.81
				c0.93-0.99,0.82-7.94,0.82-7.94h10.57c0,0,0.23,30.43-0.36,42.44c-0.93-0.08-12.68,0.08-12.68,0.08s-0.77-16.3-1.2-18.12
				c-1.56-10.36-14.57-13.64-24.23-13.64c-7.76,0-16.85-2.35-22.12,12c-3.46,9.41-5.14,44.97-3.51,60.74
				c1.82,17.55,13.51,19.58,26,19.58c12.77,0,15.58-0.61,21.51-8.26c3.27-4.22,3.5-21.62,3.5-21.62L1449,1181.07z"/>
		</g>
		<path d="M1342.7,1210.34l0.93-89.86l12.29,0.11l-0.03-10.89c-0.03-0.08-0.05-0.16-0.08-0.24l-26-0.19l-0.38,53.66l0.29,25.37
			l-13.37-31.45l-0.03-5.89l-6.62-0.02l-0.07-6.02l-13.01-23.31l-0.13-12.33l-26.66-0.19l0.03,12.06l13.39,0.09l-0.09,83.22
			l-0.2,5.86l-6.46,0.02l-6.67,0.03l-0.19,12.01h20.2l6.48-0.07l0.2-5.82l-0.04-53.52l6.6-0.17l0.05,5.93l2.55,2.37l4.02,3.22
			l19.86,30.02l-0.21,18.17l20.52-0.13l6.44-6.32l-0.21-5.44L1342.7,1210.34z"/>
	</g>
	<g>
		<g>
			<defs>
				<polygon id="SVGID_1_" points="1731.74,1002.01 1731.74,1002.01 1948.27,1002.01 1948.27,1091.36 1731.74,1091.36 				"/>
			</defs>
			<clipPath id="SVGID_2_">
				<use xlink:href="#SVGID_1_"  style="overflow:visible;"/>
			</clipPath>
			<path class="st0" d="M1731.74,1075.3c0,0,67.21-25.85,88.74-33.52c19.55-6.96,33.17-11.66,55.01-17.8
				c10.02-2.82,65.3-20.23,72.23-21.89c6.92-1.66-53.86,22.57-66.85,27.8c-15.5,6.24-43.86,15.78-60.39,20.13
				C1797.57,1056.05,1731.74,1075.3,1731.74,1075.3z"/>
			<path class="st0" d="M1763.03,1091.36c0,0,27.63-9.4,37.59-13.02c11.51-4.18,28.52-11.5,39.41-17.1
				c7.13-3.67,16.43-7.26,22.08-11.13c3.61-2.47,15.84-11.08,15.84-11.08s-29.07,10.75-29.51,10.89
				c-2.58,0.83-32.08,14.63-42.9,19.77L1763.03,1091.36z"/>
		</g>
		<g>
			<defs>
				<polygon id="SVGID_3_" points="1731.74,1336.43 1731.74,1336.43 1948.27,1336.43 1948.27,1247.07 1731.74,1247.07 				"/>
			</defs>
			<clipPath id="SVGID_4_">
				<use xlink:href="#SVGID_3_"  style="overflow:visible;"/>
			</clipPath>
			<path class="st1" d="M1731.74,1263.13c0,0,67.21,25.85,88.74,33.52c19.55,6.96,33.17,11.66,55.01,17.8
				c10.02,2.82,65.3,20.23,72.23,21.89s-53.86-22.57-66.85-27.8c-15.5-6.24-43.86-15.78-60.39-20.13
				C1797.57,1282.39,1731.74,1263.13,1731.74,1263.13z"/>
			<path class="st1" d="M1763.03,1247.07c0,0,27.63,9.4,37.59,13.02c11.51,4.18,28.52,11.5,39.41,17.1
				c7.13,3.67,16.43,7.26,22.08,11.13c3.61,2.47,15.84,11.08,15.84,11.08s-29.07-10.75-29.51-10.89
				c-2.58-0.83-32.08-14.63-42.9-19.77L1763.03,1247.07z"/>
		</g>
	</g>
	<path d="M1585.14,1091.62c-0.36,47.68-0.71,97.78-0.7,148.72c4.85-28.15,6.01-45.03,6.01-84.04
		C1590.44,1117.29,1585.14,1091.62,1585.14,1091.62z"/>
	<path d="M1681.77,1118.3c-0.18,32.65-0.36,66.95-0.35,101.83c2.43-19.28,3-30.83,3-57.55S1681.77,1118.3,1681.77,1118.3z"/>
	<g>
		<path d="M1687.53,1093.68c22.35-9.14,33.32-5.17,43.21,3.79c7.03,6.37,12.3,44.45,12.3,70.57c0,34.61-5.17,65.83-9.46,74.36
			c-11.4,22.66-45.68,7.93-45.68,7.93s23.32,0.83,36.24-12.72c11.49-12.06,9.55-116.87-1.7-133.79
			C1715.64,1093.6,1712.6,1091.61,1687.53,1093.68z"/>
		<path d="M1587.44,1057.23c38.62-5.16,69.64-8.17,74-1.99c11.09,15.73,14.14,211.46,8.11,220.12c-4.21,6.05-38.55,5.93-75.94,2.19
			c55.04-8.71,54.08,0.68,63.49-17.13c7.12-13.49-0.91-70.47-0.7-107.66c0.13-21.77-5.21-80.74-5.56-81.86
			C1646.3,1056.58,1600.69,1059.13,1587.44,1057.23z"/>
		<path d="M1639.83,1042.47c17.54-3.93,23.86-1.4,31.91,5.58c7.14,6.19,6.88,13.04,4.96,24.94
			C1676.7,1053.46,1660.39,1040.48,1639.83,1042.47z"/>
	</g>
	<g>
		<path d="M1968.03,1048.5c-0.76,72.08,0.95,266.81,0.95,266.81s4.14-18.67,5.51-25.01c1.32-6.09,0.83-45.16,0.87-51.41
			c0.37-51.3,4.61-149.54-2.94-210.56c-0.35-2.79-1.73-19.34-1.73-19.34S1968.07,1044.64,1968.03,1048.5z"/>
		<path d="M2003.34,1065.06c-2.6,12.76-3.49,36.6-4.23,51c-0.71,13.89-1.09,42.73-1.57,56.64c-0.49,13.98-0.91,41.99-0.23,55.97
			c0.2,4.1,1.21,12.26,1.66,16.34c0.25,2.31,0.94,9.25,0.94,9.25s4.42-30.95,5.29-41.33c0.68-8.12,0.96-24.43,1.26-32.57
			c0.4-10.66,1.17-31.99,1.31-42.66c0.28-22.11-0.46-88.45-0.46-88.45S2003.9,1062.33,2003.34,1065.06z"/>
		<path d="M1989.88,1301.26c-1.66,1.66-0.74,4.02-0.74,4.02s2.85,1.94,4.76,1.13c1.98-0.85,2.72-1.95,0.75-4.16
			C1994.65,1302.24,1991.34,1299.8,1989.88,1301.26z"/>
		<polygon points="1961.82,1041.25 1965.71,1038.36 1968.02,1036.87 1971.7,1034.75 1970.35,1037.23 1967.02,1039.86 
			1962.81,1042.63 1959.51,1044.24 		"/>
		<polygon points="1962.24,1049.79 1966.13,1046.9 1968.44,1045.41 1972.12,1043.29 1970.77,1045.77 1967.44,1048.41 
			1963.23,1051.17 1959.93,1052.78 		"/>
		<polygon points="1962.84,1061.86 1966.72,1058.96 1969.04,1057.47 1972.72,1055.35 1971.37,1057.83 1968.03,1060.47 
			1963.83,1063.23 1960.52,1064.84 		"/>
		<polygon points="1963.43,1073.92 1967.32,1071.02 1969.63,1069.53 1973.31,1067.41 1971.96,1069.89 1968.63,1072.53 
			1964.42,1075.29 1961.12,1076.9 		"/>
		<polygon points="1962.34,1086.11 1966.23,1083.21 1968.54,1081.72 1972.22,1079.6 1970.87,1082.08 1967.54,1084.72 
			1963.33,1087.48 1960.03,1089.09 		"/>
		<polygon points="1961.25,1098.3 1965.14,1095.4 1967.45,1093.91 1971.13,1091.79 1969.78,1094.27 1966.44,1096.91 
			1962.24,1099.67 1958.94,1101.28 		"/>
		<polygon points="1963.53,1110.23 1967.42,1107.34 1969.73,1105.84 1973.41,1103.73 1972.06,1106.21 1968.73,1108.84 
			1964.52,1111.6 1961.22,1113.22 		"/>
		<polygon points="1962.44,1122.42 1966.33,1119.52 1968.64,1118.03 1972.32,1115.91 1970.97,1118.4 1967.63,1121.03 
			1963.43,1123.79 1960.13,1125.41 		"/>
		<polygon points="1962.68,1148.11 1966.56,1145.22 1968.88,1143.72 1972.56,1141.61 1971.21,1144.09 1967.87,1146.72 
			1963.67,1149.49 1960.37,1151.1 		"/>
		<polygon points="1963.35,1161.66 1967.23,1158.77 1969.55,1157.28 1973.23,1155.16 1971.88,1157.64 1968.54,1160.27 
			1964.34,1163.04 1961.03,1164.65 		"/>
		<polygon points="1964.02,1175.22 1967.9,1172.32 1970.22,1170.83 1973.9,1168.71 1972.55,1171.19 1969.21,1173.83 
			1965.01,1176.59 1961.7,1178.2 		"/>
		<polygon points="1962.82,1189.84 1966.7,1186.94 1969.02,1185.45 1972.7,1183.33 1971.35,1185.81 1968.01,1188.45 
			1963.81,1191.21 1960.5,1192.82 		"/>
		<polygon points="1963.45,1202.64 1967.33,1199.75 1969.65,1198.26 1973.33,1196.14 1971.98,1198.62 1968.64,1201.26 
			1964.44,1204.02 1961.14,1205.63 		"/>
		<polygon points="1963.24,1216.63 1967.12,1213.74 1969.44,1212.25 1973.12,1210.13 1971.76,1212.61 1968.43,1215.24 
			1964.23,1218.01 1960.92,1219.62 		"/>
		<polygon points="1963.92,1230.55 1967.81,1227.66 1970.12,1226.17 1973.8,1224.05 1972.45,1226.53 1969.12,1229.16 
			1964.91,1231.93 1961.61,1233.54 		"/>
		<polygon points="1963.63,1240.51 1967.51,1237.62 1969.83,1236.13 1973.51,1234.01 1972.15,1236.49 1968.82,1239.12 
			1964.62,1241.89 1961.31,1243.5 		"/>
		<polygon points="1964.9,1250.36 1968.78,1247.46 1971.1,1245.97 1974.78,1243.85 1973.43,1246.33 1970.09,1248.97 
			1965.89,1251.73 1962.58,1253.34 		"/>
		<polygon points="1964.75,1263.29 1968.63,1260.4 1970.95,1258.91 1974.63,1256.79 1973.28,1259.27 1969.94,1261.9 
			1965.74,1264.67 1962.43,1266.28 		"/>
		<polygon points="1964.75,1263.29 1968.63,1260.4 1970.95,1258.91 1974.63,1256.79 1973.28,1259.27 1969.94,1261.9 
			1965.74,1264.67 1962.43,1266.28 		"/>
		<polygon points="1964.67,1276.22 1968.55,1273.33 1970.87,1271.84 1974.55,1269.72 1973.2,1272.2 1969.86,1274.83 1965.66,1277.6 
			1962.35,1279.21 		"/>
		<polygon points="1964.33,1289.17 1968.22,1286.28 1970.53,1284.79 1974.21,1282.67 1972.86,1285.15 1969.53,1287.78 
			1965.32,1290.55 1962.02,1292.16 		"/>
		<polygon points="1964.72,1134.36 1968.61,1131.46 1970.92,1129.97 1974.6,1127.85 1973.25,1130.33 1969.92,1132.97 
			1965.71,1135.73 1962.41,1137.34 		"/>
		<polygon points="1643.23,1076.61 1647.12,1073.71 1649.43,1072.22 1653.11,1070.1 1651.76,1072.58 1648.43,1075.22 
			1644.22,1077.98 1640.92,1079.59 		"/>
		<polygon points="1642.14,1088.79 1646.03,1085.9 1648.34,1084.41 1652.02,1082.29 1650.67,1084.77 1647.34,1087.41 
			1643.13,1090.17 1639.83,1091.78 		"/>
		<polygon points="1644.41,1099.62 1648.29,1096.72 1650.61,1095.23 1654.29,1093.11 1652.93,1095.6 1649.6,1098.23 1645.4,1100.99 
			1642.09,1102.6 		"/>
		<polygon points="1643.33,1112.92 1647.22,1110.02 1649.53,1108.53 1653.21,1106.41 1651.86,1108.9 1648.53,1111.53 
			1644.32,1114.29 1641.02,1115.9 		"/>
		<polygon points="1645.02,1123.51 1648.9,1120.61 1651.22,1119.12 1654.9,1117 1653.55,1119.48 1650.21,1122.12 1646.01,1124.88 
			1642.7,1126.49 		"/>
		<polygon points="1645.23,1150.11 1649.12,1147.22 1651.43,1145.72 1655.11,1143.61 1653.76,1146.09 1650.43,1148.72 
			1646.22,1151.49 1642.92,1153.1 		"/>
		<polygon points="1645.89,1163.18 1649.78,1160.29 1652.09,1158.8 1655.77,1156.68 1654.42,1159.16 1651.09,1161.8 
			1646.88,1164.56 1643.58,1166.17 		"/>
		<polygon points="1648.23,1175.65 1652.11,1172.75 1654.43,1171.26 1658.11,1169.14 1656.76,1171.63 1653.42,1174.26 
			1649.22,1177.02 1645.91,1178.63 		"/>
		<polygon points="1647.26,1190.23 1651.14,1187.33 1653.46,1185.84 1657.14,1183.72 1655.79,1186.2 1652.45,1188.84 
			1648.25,1191.6 1644.94,1193.21 		"/>
		<polygon points="1647.89,1202.76 1651.77,1199.86 1654.09,1198.37 1657.77,1196.25 1656.42,1198.73 1653.08,1201.37 
			1648.88,1204.13 1645.57,1205.74 		"/>
		<polygon points="1648.58,1217.44 1652.46,1214.55 1654.77,1213.06 1658.46,1210.94 1657.1,1213.42 1653.77,1216.05 
			1649.56,1218.82 1646.26,1220.43 		"/>
		<polygon points="1649.25,1230.81 1653.13,1227.92 1655.45,1226.43 1659.13,1224.31 1657.78,1226.79 1654.44,1229.43 
			1650.24,1232.19 1646.94,1233.8 		"/>
		<polygon points="1649.74,1240.5 1653.62,1237.61 1655.94,1236.12 1659.62,1234 1658.27,1236.48 1654.93,1239.11 1650.73,1241.88 
			1647.42,1243.49 		"/>
		<polygon points="1649.44,1251.86 1653.32,1248.96 1655.64,1247.47 1659.32,1245.35 1657.97,1247.83 1654.63,1250.47 
			1650.43,1253.23 1647.13,1254.84 		"/>
		<polygon points="1649.06,1263.83 1652.94,1260.93 1655.26,1259.44 1658.94,1257.33 1657.59,1259.81 1654.25,1262.44 
			1650.05,1265.2 1646.74,1266.82 		"/>
		<polygon points="1649.66,1275.73 1653.54,1272.84 1655.86,1271.35 1659.54,1269.23 1658.19,1271.71 1654.85,1274.35 
			1650.65,1277.11 1647.34,1278.72 		"/>
		<polygon points="1644.52,1137.04 1648.41,1134.15 1650.72,1132.66 1654.4,1130.54 1653.05,1133.02 1649.71,1135.65 
			1645.51,1138.42 1642.21,1140.03 		"/>
	</g>
	<g>
		<path d="M196.54,1095.07c6.88-3.86,116.63,3.47,116.63,3.47l0.02,4.88c0,0-92.61,2.32-100.89,6.26
			c-7.18,3.41-3.2,50.83-5.18,69.21c-0.62,5.74-1,16.43-1.63,23.14c-0.57,6.12-3.43,28.12-3.43,28.12s-9.26-42.03-9.92-55.46
			C191.15,1154.63,190.92,1098.22,196.54,1095.07z"/>
		<path d="M209.3,1236.74c0,0,12.07-1.92,16.54-2.69c4.76-0.81,15.19-3.08,20.07-3.91c5.32-0.91,20.72,0.59,25.93,0
			c9.73-1.11,41.77,2.45,41.77,2.45v7.19L209.3,1236.74z"/>
		<path d="M66.46,1233.49c4.39-3.23,9.77-5.81,13.04-7.12c3.76-1.5,10.06-3.9,14.39-5.03c3.55-0.93,12.83-3.41,15.8-3.82
			c9.5-1.33,22.99-0.57,31.38,1.28c3.52,0.78,16.43,3.99,16.43,3.99s-13.85,6.42-18.44,8.05c-3.83,1.36-15.49,3.4-19.13,4.13
			c-7.02,1.41-22.68,2.22-28.66,2.73c-8.92,0.77-30.8,2.09-30.8,2.09S66.4,1233.53,66.46,1233.49z"/>
		<path d="M52.17,1239.53c0,0,0.86-20.17,1.41-23.89c3.36-22.68,3.13-53.94,0.73-75.37c-0.97-8.7-2.91-21.94-4.27-25.3
			c-0.76-1.89-2.7-8.43-2.7-8.43s-3.31,14.04-3.89,18.85c-1.29,10.69-5.13,50.17-2.19,69.98c0.72,4.88,3.41,20.08,5.79,25.74
			L52.17,1239.53z"/>
		<path d="M67.87,1112.5c3.37,0.91,8.3,3.2,12.12,3.77c4.66,0.69,14.66,2.81,18.99,3.24c13.67,1.34,27.94,1.81,44.95,2.23
			c3.87,0.1,22.97-1.44,22.97-1.44s-10.98-2.45-13.91-3.2c-3.39-0.87-8.08-2.57-11.1-3.34c-7.26-1.86-19.98-4.04-27.06-4.57
			c-9.87-0.74-26.6-2.84-36.74-2.64c-7.27,0.14-29.62-0.12-29.62-0.12S64.76,1111.66,67.87,1112.5z"/>
		<path d="M73.33,1138.08l-2.2,46.32c0,0,3.08-7.12,4.18-9.58c1.12-2.53,1.47-8.62,1.47-10.37c0-6.73,0.68-13.67-0.85-19.45
			L73.33,1138.08z"/>
		<path d="M293.74,1141.08l-2.2,46.32c0,0,2.68-6.01,3.37-8.09c1.5-4.57,1.17-10.14,1.24-11.05c0.44-5.74-0.31-8.95,0.32-17.17
			L293.74,1141.08z"/>
		<path d="M98.98,1074.33c1.32,1.06,7.2,1.5,8.71,1.81c4.79,0.96,11.17-0.05,13.78-2.27c1.36-1.16-1.36-2.69-2.07-3.57
			c-1.28-1.59-3.09-2.13-5.52-2.6c-3.61-0.7-8.79-0.78-12.47-0.27c-1.62,0.22-5.6,1.18-6.35,2.51
			C95.06,1069.93,98.06,1073.59,98.98,1074.33z"/>
		<path d="M212.29,1073.64c0,0,16.88-2.45,19.83-2.58c13.43-0.6,24.37-0.26,39.8,0.82c3,0.21,14.89,2.74,14.89,2.74
			s-13.12,2.05-16.14,2.05c-15.82,0-32.03,1.14-47.26-1.07C219.93,1075.1,212.29,1073.64,212.29,1073.64z"/>
	</g>
	<g>
		<g>
			<g>
				<g>
					<g>
						<polygon points="956.53,646.01 956.26,641.39 956.29,638.77 956.56,634.73 957.88,637.13 958.24,641.17 958.22,645.96 
							957.74,649.43 						"/>
						<polygon points="967.83,652.48 967.56,647.86 967.59,645.24 967.86,641.2 969.19,643.59 969.54,647.63 969.53,652.43 
							969.04,655.9 						"/>
						<polygon points="979.55,657.29 979.28,652.68 979.32,650.06 979.58,646.02 980.91,648.41 981.27,652.45 981.25,657.25 
							980.77,660.72 						"/>
						<polygon points="992.34,662.05 992.07,657.44 992.11,654.81 992.37,650.78 993.7,653.17 994.06,657.21 994.04,662.01 
							993.56,665.48 						"/>
						<polygon points="1001.67,669.4 1001.4,664.79 1001.43,662.16 1001.7,658.13 1003.03,660.52 1003.38,664.56 1003.37,669.36 
							1002.88,672.83 						"/>
						<polygon points="1013.97,675.95 1013.7,671.34 1013.74,668.71 1014,664.68 1015.33,667.07 1015.69,671.11 1015.67,675.91 
							1015.19,679.38 						"/>
						<polygon points="1026.28,683.3 1026,678.69 1026.04,676.06 1026.31,672.03 1027.63,674.42 1027.99,678.46 1027.97,683.26 
							1027.49,686.73 						"/>
						<polygon points="1035.13,686.98 1034.86,682.37 1034.9,679.74 1035.16,675.7 1036.49,678.1 1036.85,682.14 1036.83,686.93 
							1036.35,690.4 						"/>
						<polygon points="1044.46,693.28 1044.19,688.67 1044.23,686.04 1044.49,682.01 1045.82,684.4 1046.18,688.44 1046.16,693.24 
							1045.68,696.71 						"/>
						<polygon points="1054.28,701.5 1054,696.88 1054.04,694.26 1054.3,690.22 1055.63,692.61 1055.99,696.65 1055.97,701.45 
							1055.49,704.92 						"/>
					</g>
					<g>
						<polygon points="881.53,675.02 885.38,672.47 887.66,671.18 891.29,669.38 889.89,671.73 886.58,674.07 882.42,676.47 
							879.18,677.8 						"/>
						<polygon points="881.63,688.05 885.48,685.49 887.76,684.2 891.39,682.4 889.99,684.75 886.67,687.09 882.52,689.49 
							879.28,690.82 						"/>
						<polygon points="883.36,700.6 887.21,698.04 889.5,696.75 893.12,694.95 891.72,697.3 888.41,699.65 884.25,702.04 
							881.01,703.37 						"/>
						<polygon points="885.68,714.05 889.54,711.49 891.82,710.2 895.44,708.4 894.04,710.75 890.73,713.1 886.58,715.49 
							883.34,716.82 						"/>
						<polygon points="884.02,725.81 887.87,723.25 890.16,721.96 893.78,720.16 892.38,722.51 889.07,724.85 884.92,727.25 
							881.68,728.58 						"/>
						<polygon points="884.55,739.73 888.4,737.18 890.69,735.89 894.31,734.09 892.91,736.44 889.6,738.78 885.45,741.18 
							882.21,742.51 						"/>
						<polygon points="884.39,754.07 888.24,751.51 890.53,750.22 894.15,748.42 892.75,750.77 889.44,753.11 885.29,755.51 
							882.04,756.84 						"/>
						<polygon points="885.67,763.57 889.52,761.01 891.8,759.72 895.43,757.92 894.03,760.27 890.72,762.61 886.56,765.01 
							883.32,766.34 						"/>
						<polygon points="884.92,774.81 888.77,772.25 891.05,770.96 894.68,769.16 893.28,771.51 889.96,773.85 885.81,776.25 
							882.57,777.58 						"/>
						<polygon points="882.75,787.42 886.61,784.86 888.89,783.57 892.51,781.77 891.11,784.12 887.8,786.46 883.65,788.86 
							880.41,790.19 						"/>
					</g>
					<g>
						<polygon points="818.02,623.9 822.09,626.09 824.3,627.5 827.6,629.85 824.87,629.72 821.24,627.9 817.17,625.37 
							814.47,623.13 						"/>
						<polygon points="806.58,630.11 810.65,632.31 812.86,633.72 816.16,636.07 813.42,635.94 809.8,634.12 805.73,631.58 
							803.03,629.35 						"/>
						<polygon points="796.32,637.55 800.39,639.75 802.6,641.16 805.89,643.5 803.16,643.38 799.53,641.56 795.46,639.02 
							792.77,636.78 						"/>
						<polygon points="785.54,645.93 789.61,648.13 791.82,649.53 795.12,651.88 792.39,651.76 788.76,649.93 784.69,647.4 
							781.99,645.16 						"/>
						<polygon points="774.39,650 778.46,652.19 780.67,653.6 783.97,655.95 781.23,655.82 777.61,654 773.54,651.46 770.84,649.23 
													"/>
						<polygon points="762.35,657.02 766.42,659.21 768.63,660.62 771.93,662.97 769.19,662.84 765.57,661.02 761.5,658.49 
							758.8,656.25 						"/>
						<polygon points="749.63,663.62 753.7,665.82 755.91,667.22 759.2,669.57 756.47,669.45 752.84,667.62 748.77,665.09 
							746.08,662.85 						"/>
						<polygon points="741.84,669.22 745.91,671.41 748.12,672.82 751.42,675.17 748.69,675.04 745.06,673.22 740.99,670.69 
							738.29,668.45 						"/>
						<polygon points="731.57,673.84 735.64,676.04 737.86,677.45 741.15,679.8 738.42,679.67 734.79,677.85 730.72,675.31 
							728.02,673.08 						"/>
						<polygon points="719.43,677.87 723.5,680.06 725.71,681.47 729.01,683.82 726.27,683.69 722.65,681.87 718.58,679.34 
							715.88,677.1 						"/>
					</g>
					<g>
						<polygon points="830.33,540.01 830.53,544.63 830.46,547.25 830.13,551.28 828.84,548.87 828.54,544.82 828.64,540.03 
							829.17,536.57 						"/>
						<polygon points="819.13,533.36 819.33,537.98 819.26,540.61 818.93,544.64 817.64,542.23 817.34,538.18 817.44,533.38 
							817.97,529.92 						"/>
						<polygon points="807.49,528.36 807.69,532.98 807.61,535.6 807.28,539.63 805.99,537.22 805.7,533.18 805.79,528.38 
							806.33,524.92 						"/>
						<polygon points="794.77,523.4 794.97,528.02 794.9,530.64 794.57,534.67 793.28,532.26 792.98,528.21 793.08,523.42 
							793.61,519.96 						"/>
						<polygon points="785.57,515.9 785.77,520.52 785.69,523.14 785.36,527.18 784.07,524.76 783.78,520.72 783.87,515.92 
							784.41,512.46 						"/>
						<polygon points="773.37,509.16 773.57,513.78 773.49,516.4 773.16,520.43 771.87,518.02 771.58,513.97 771.67,509.18 
							772.21,505.72 						"/>
						<polygon points="761.18,501.61 761.38,506.23 761.31,508.86 760.98,512.89 759.69,510.48 759.39,506.43 759.49,501.63 
							760.02,498.17 						"/>
						<polygon points="752.39,497.8 752.59,502.42 752.51,505.04 752.18,509.07 750.89,506.66 750.6,502.61 750.69,497.82 
							751.23,494.35 						"/>
						<polygon points="743.16,491.35 743.36,495.96 743.28,498.59 742.95,502.62 741.66,500.21 741.37,496.16 741.46,491.37 
							742,487.9 						"/>
						<polygon points="733.48,482.98 733.67,487.6 733.6,490.22 733.27,494.25 731.98,491.84 731.69,487.79 731.78,483 
							732.32,479.54 						"/>
					</g>
					<g>
						<polygon points="910.82,504.51 906.91,506.97 904.6,508.21 900.94,509.93 902.39,507.61 905.75,505.35 909.96,503.04 
							913.23,501.79 						"/>
						<polygon points="911.02,491.49 907.11,493.95 904.8,495.19 901.13,496.91 902.59,494.59 905.95,492.33 910.16,490.02 
							913.43,488.77 						"/>
						<polygon points="909.57,478.89 905.66,481.36 903.35,482.6 899.68,484.32 901.14,482 904.5,479.73 908.71,477.43 
							911.98,476.18 						"/>
						<polygon points="907.55,465.4 903.64,467.86 901.33,469.1 897.67,470.82 899.12,468.5 902.48,466.24 906.69,463.93 
							909.96,462.68 						"/>
						<polygon points="909.48,453.68 905.57,456.15 903.26,457.39 899.59,459.11 901.05,456.79 904.41,454.52 908.62,452.22 
							911.89,450.96 						"/>
						<polygon points="909.27,439.74 905.36,442.21 903.04,443.45 899.38,445.17 900.83,442.85 904.2,440.58 908.41,438.28 
							911.68,437.03 						"/>
						<polygon points="909.75,425.42 905.84,427.89 903.53,429.13 899.87,430.85 901.32,428.53 904.68,426.26 908.89,423.96 
							912.16,422.7 						"/>
						<polygon points="908.69,415.89 904.78,418.36 902.47,419.6 898.81,421.32 900.26,419 903.62,416.73 907.83,414.43 
							911.1,413.17 						"/>
						<polygon points="909.7,404.67 905.79,407.14 903.48,408.38 899.81,410.1 901.27,407.78 904.63,405.51 908.84,403.21 
							912.11,401.96 						"/>
						<polygon points="912.15,392.11 908.24,394.58 905.93,395.82 902.26,397.54 903.71,395.22 907.08,392.95 911.29,390.65 
							914.56,389.4 						"/>
					</g>
					<g>
						<polygon points="977.73,561.99 973.68,559.77 971.47,558.34 968.19,555.97 970.93,556.12 974.54,557.96 978.59,560.53 
							981.28,562.78 						"/>
						<polygon points="989.22,555.85 985.16,553.63 982.96,552.2 979.68,549.83 982.41,549.98 986.02,551.82 990.08,554.39 
							992.76,556.64 						"/>
						<polygon points="999.53,548.48 995.47,546.26 993.27,544.83 989.99,542.46 992.72,542.61 996.34,544.45 1000.39,547.01 
							1003.07,549.27 						"/>
						<polygon points="1010.36,540.17 1006.3,537.95 1004.1,536.52 1000.82,534.15 1003.55,534.3 1007.16,536.14 1011.22,538.71 
							1013.9,540.96 						"/>
						<polygon points="1021.54,536.18 1017.48,533.95 1015.28,532.53 1012,530.16 1014.73,530.31 1018.34,532.15 1022.4,534.71 
							1025.08,536.96 						"/>
						<polygon points="1033.62,529.23 1029.57,527.01 1027.36,525.59 1024.08,523.22 1026.82,523.36 1030.43,525.21 1034.48,527.77 
							1037.17,530.02 						"/>
						<polygon points="1046.39,522.71 1042.33,520.49 1040.13,519.07 1036.85,516.7 1039.58,516.84 1043.19,518.69 1047.25,521.25 
							1049.93,523.5 						"/>
						<polygon points="1054.21,517.17 1050.15,514.94 1047.95,513.52 1044.67,511.15 1047.4,511.3 1051.02,513.14 1055.07,515.7 
							1057.75,517.96 						"/>
						<polygon points="1064.51,512.61 1060.45,510.39 1058.25,508.96 1054.97,506.59 1057.7,506.74 1061.31,508.58 1065.37,511.15 
							1068.05,513.4 						"/>
						<polygon points="1076.68,508.66 1072.62,506.44 1070.42,505.02 1067.14,502.65 1069.87,502.79 1073.49,504.64 1077.54,507.2 
							1080.22,509.45 						"/>
					</g>
					<polygon points="1064.09,709.65 1063.82,705.04 1063.85,702.41 1064.12,698.38 1065.44,700.77 1065.8,704.81 1065.78,709.61 
						1065.3,713.07 					"/>
					<polygon points="1073.06,714.79 1072.79,710.17 1072.82,707.55 1073.09,703.51 1074.42,705.9 1074.78,709.94 1074.76,714.74 
						1074.28,718.21 					"/>
					<polygon points="945.2,639.59 944.93,634.97 944.96,632.35 945.23,628.31 946.55,630.7 946.91,634.74 946.89,639.54 
						946.41,643.01 					"/>
					<g>
						<g>
							<path d="M896.75,363.37c-126.87,0-229.71,102.84-229.71,229.71s102.84,229.71,229.71,229.71s229.71-102.84,229.71-229.71
								S1023.61,363.37,896.75,363.37z M914.45,391.24c25.07-13.26,140.97,50.06,138.23,84.89c-0.77,9.8-17.47,18.54-33,27.39
								c-25.89,14.74-50.6,27.03-64.26,30.15c-15.9,3.64-41.78-13.67-47.18-23.02c-8.27-14.32-6.18-48.11-5.91-62.5
								C902.59,433.59,898.07,399.9,914.45,391.24z M950.83,616.84c3.81-2.2,8.67-0.89,10.87,2.91s0.89,8.67-2.91,10.87
								c-3.81,2.2-8.67,0.89-10.87-2.91C945.72,623.91,947.02,619.04,950.83,616.84z M943.12,556.42c0-4.4,3.56-7.96,7.96-7.96
								c4.4,0,7.96,3.56,7.96,7.96c0,4.4-3.56,7.96-7.96,7.96C946.69,564.38,943.12,560.82,943.12,556.42z M940.71,593.08
								c0,24.28-19.68,43.97-43.97,43.97c-24.28,0-43.97-19.68-43.97-43.97c0-24.28,19.68-43.97,43.97-43.97
								C921.03,549.11,940.71,568.79,940.71,593.08z M887.62,525.19c2.2-3.81,7.07-5.11,10.87-2.91c3.81,2.2,5.11,7.07,2.91,10.87
								c-2.2,3.81-7.07,5.11-10.87,2.91C886.73,533.87,885.42,529,887.62,525.19z M873.43,399.56c8.1,5.57,7.33,24.4,7.22,42.28
								c-0.18,29.79-1.9,57.34-6.02,70.73c-4.8,15.59-32.73,29.35-43.53,29.35c-16.54,0-44.75-18.7-57.08-26.13
								c-12.46-7.51-43.89-20.44-43.21-38.95C731.85,448.49,844.64,379.78,873.43,399.56z M842.81,622.76c4.4,0,7.96,3.56,7.96,7.96
								c0,4.4-3.56,7.96-7.96,7.96c-4.4,0-7.96-3.56-7.96-7.96C834.85,626.33,838.42,622.76,842.81,622.76z M830.48,568.36
								c-2.2-3.81-0.89-8.67,2.91-10.87c3.81-2.2,8.67-0.89,10.87,2.91c2.2,3.81,0.89,8.67-2.91,10.87
								C837.55,573.47,832.68,572.17,830.48,568.36z M713.1,678.67c-24.02-15.08-27.13-147.12,4.4-162.16
								c8.87-4.23,24.79,5.86,40.22,14.89c25.71,15.05,48.71,30.31,58.24,40.58c11.1,11.95,9.05,43.02,3.65,52.38
								c-8.27,14.32-38.57,29.41-51.17,36.37C755.71,667.76,728.79,688.52,713.1,678.67z M879.05,794.92
								c-25.07,13.26-140.97-50.06-138.23-84.89c0.77-9.8,17.47-18.54,33-27.39c25.89-14.74,50.6-27.03,64.26-30.15
								c15.9-3.64,41.78,13.67,47.18,23.02c8.27,14.32,6.18,48.11,5.91,62.5C890.9,752.57,895.42,786.26,879.05,794.92z
								 M909.36,663.48c-2.2,3.81-7.07,5.11-10.87,2.91c-3.81-2.2-5.11-7.07-2.91-10.87c2.2-3.81,7.07-5.11,10.87-2.91
								C910.26,654.81,911.56,659.67,909.36,663.48z M920.07,786.59c-8.1-5.57-7.33-24.4-7.22-42.28
								c0.18-29.79,1.9-57.34,6.02-70.73c4.8-15.59,32.73-29.35,43.53-29.35c16.54,0,44.75,18.7,57.08,26.13
								c12.46,7.51,43.89,20.44,43.21,38.95C1061.65,737.66,948.85,806.37,920.07,786.59z M1076,669.64
								c-8.87,4.23-24.79-5.86-40.22-14.89c-25.71-15.05-48.71-30.31-58.24-40.58c-11.1-11.95-9.05-43.02-3.65-52.38
								c8.27-14.32,38.57-29.41,51.17-36.37c12.73-7.03,39.65-27.79,55.34-17.95C1104.42,522.57,1107.52,654.6,1076,669.64z"/>
						</g>
					</g>
				</g>
			</g>
		</g>
		<g>
			<path d="M707.4,619.38c-2.1-15.19,0.72-62.25,6.26-78.64c-2.72,19.37-3.63,93.74,0.71,110.73
				C710.93,646.16,707.4,619.38,707.4,619.38z"/>
			<path d="M916.65,761.74c1.87-27.11,0.66-42.62,3.1-77.92c0,30.07,2.64,54.59-2.73,81.1C916.2,761.94,915.37,758.95,916.65,761.74
				z"/>
			<path d="M963.75,521.43c24.99-10.68,38.25-18.82,70.78-32.72c-26.77,13.69-47.4,27.2-73.45,34.5
				C963.36,521.12,965.65,519.02,963.75,521.43z"/>
			<path d="M732.91,522.36c22.96,14.54,37.18,20.85,67.07,39.78c-26.45-14.3-49.28-23.64-70.05-40.96
				C732.95,521.87,735.97,522.56,732.91,522.36z"/>
			<path d="M987.29,648.83c15.78,0.61,31.27,7.09,42.78,17.9c-2.88-9.07-10-16.69-18.86-20.19c-8.85-3.5-19.26-2.79-27.56,1.86
				C986.7,649.26,989.75,650.13,987.29,648.83z"/>
			<path d="M1085.07,541.66c1.25,15.07,1.24,30.67,0.73,45.67c-0.58,17.16-1.81,33.52-2.55,47.41
				C1093.62,610.2,1092.27,556.32,1085.07,541.66z"/>
			<path d="M943.12,400.72c15.2,11.16,69.74,39.6,85.41,47.81C1015.12,436.25,969.28,406.38,943.12,400.72z"/>
			<path d="M746.9,468.7c28.38-22.51,70.66-46.35,105.24-58.52c-31.42,4.42-32.79,6.96-54.15,18.07
				C779.04,438.1,759.56,451.53,746.9,468.7z"/>
			<path d="M865.73,406.34c-0.17,3.14,1.41,5.53,4.72,4.15s3.46-2.5,0.83-4.47C868.64,404.04,868.91,404.88,865.73,406.34z"/>
			<path d="M845.3,780.04c-27.66-16.52-68.33-43.07-90.64-58.66C754.66,721.38,815.2,775.93,845.3,780.04z"/>
			<path d="M856.12,785.57c0.41,3.3,2.4,4.04,4.91,2.42c2.51-1.62,2.15-2.25-0.36-4.18C858.17,781.87,855.71,782.27,856.12,785.57z"
				/>
			<path d="M816.27,604.18c-0.27,1.99-2.5,5.19-2.77,7.18c4.74-0.94,5.08-5.5,4.93-12.39C816.63,600.49,816.72,600.85,816.27,604.18
				z"/>
			<path d="M788.02,534.62c-2.65-1.04-4.53,3.75-2.23,5.43s5.8,0.05,7.09-2.49s1.01-5.56,0.7-8.39
				C791.17,530.23,788.76,531.29,788.02,534.62z"/>
			<path d="M707.4,619.38c-2.1-15.19,0.72-62.25,6.26-78.64c-2.72,19.37-3.63,93.74,0.71,110.73
				C710.93,646.16,707.4,619.38,707.4,619.38z"/>
			<path d="M916.65,761.74c1.87-27.11,0.66-42.62,3.1-77.92c0,30.07,2.64,54.59-2.73,81.1C916.2,761.94,915.37,758.95,916.65,761.74
				z"/>
			<path d="M963.75,521.43c24.99-10.68,38.25-18.82,70.78-32.72c-26.77,13.69-47.4,27.2-73.45,34.5
				C963.36,521.12,965.65,519.02,963.75,521.43z"/>
			<path d="M732.91,522.36c22.96,14.54,37.18,20.85,67.07,39.78c-26.45-14.3-49.28-23.64-70.05-40.96
				C732.95,521.87,735.97,522.56,732.91,522.36z"/>
			<path d="M987.29,648.83c15.78,0.61,31.27,7.09,42.78,17.9c-2.88-9.07-10-16.69-18.86-20.19c-8.85-3.5-19.26-2.79-27.56,1.86
				C986.7,649.26,989.75,650.13,987.29,648.83z"/>
			<path d="M1085.07,541.66c1.25,15.07,1.24,30.67,0.73,45.67c-0.58,17.16-1.81,33.52-2.55,47.41
				C1093.62,610.2,1092.27,556.32,1085.07,541.66z"/>
			<path d="M943.12,400.72c15.2,11.16,69.74,39.6,85.41,47.81C1015.12,436.25,969.28,406.38,943.12,400.72z"/>
			<path d="M746.9,468.7c28.38-22.51,70.66-46.35,105.24-58.52c-31.42,4.42-32.79,6.96-54.15,18.07
				C779.04,438.1,759.56,451.53,746.9,468.7z"/>
			<path d="M865.73,406.34c-0.17,3.14,1.41,5.53,4.72,4.15s3.46-2.5,0.83-4.47C868.64,404.04,868.91,404.88,865.73,406.34z"/>
			<path d="M845.3,780.04c-27.66-16.52-68.33-43.07-90.64-58.66C754.66,721.38,815.2,775.93,845.3,780.04z"/>
			<path d="M856.12,785.57c0.41,3.3,2.4,4.04,4.91,2.42c2.51-1.62,2.15-2.25-0.36-4.18C858.17,781.87,855.71,782.27,856.12,785.57z"
				/>
			<path d="M816.27,604.18c-0.27,1.99-2.5,5.19-2.77,7.18c4.74-0.94,5.08-5.5,4.93-12.39C816.63,600.49,816.72,600.85,816.27,604.18
				z"/>
			<path d="M788.02,534.62c-2.65-1.04-4.53,3.75-2.23,5.43s5.8,0.05,7.09-2.49s1.01-5.56,0.7-8.39
				C791.17,530.23,788.76,531.29,788.02,534.62z"/>
			<path d="M707.4,619.38c-2.1-15.19,0.72-62.25,6.26-78.64c-2.72,19.37-3.63,93.74,0.71,110.73
				C710.93,646.16,707.4,619.38,707.4,619.38z"/>
			<path d="M916.65,761.74c1.87-27.11,0.66-42.62,3.1-77.92c0,30.07,2.64,54.59-2.73,81.1C916.2,761.94,915.37,758.95,916.65,761.74
				z"/>
			<path d="M963.75,521.43c24.99-10.68,38.25-18.82,70.78-32.72c-26.77,13.69-47.4,27.2-73.45,34.5
				C963.36,521.12,965.65,519.02,963.75,521.43z"/>
			<path d="M732.91,522.36c22.96,14.54,37.18,20.85,67.07,39.78c-26.45-14.3-49.28-23.64-70.05-40.96
				C732.95,521.87,735.97,522.56,732.91,522.36z"/>
			<path d="M987.29,648.83c15.78,0.61,31.27,7.09,42.78,17.9c-2.88-9.07-10-16.69-18.86-20.19c-8.85-3.5-19.26-2.79-27.56,1.86
				C986.7,649.26,989.75,650.13,987.29,648.83z"/>
			<path d="M1085.07,541.66c1.25,15.07,1.24,30.67,0.73,45.67c-0.58,17.16-1.81,33.52-2.55,47.41
				C1093.62,610.2,1092.27,556.32,1085.07,541.66z"/>
			<path d="M943.12,400.72c15.2,11.16,69.74,39.6,85.41,47.81C1015.12,436.25,969.28,406.38,943.12,400.72z"/>
			<path d="M746.9,468.7c28.38-22.51,70.66-46.35,105.24-58.52c-31.42,4.42-32.79,6.96-54.15,18.07
				C779.04,438.1,759.56,451.53,746.9,468.7z"/>
			<path d="M865.73,406.34c-0.17,3.14,1.41,5.53,4.72,4.15s3.46-2.5,0.83-4.47C868.64,404.04,868.91,404.88,865.73,406.34z"/>
			<path d="M845.3,780.04c-27.66-16.52-68.33-43.07-90.64-58.66C754.66,721.38,815.2,775.93,845.3,780.04z"/>
			<path d="M856.12,785.57c0.41,3.3,2.4,4.04,4.91,2.42c2.51-1.62,2.15-2.25-0.36-4.18C858.17,781.87,855.71,782.27,856.12,785.57z"
				/>
			<path d="M816.27,604.18c-0.27,1.99-2.5,5.19-2.77,7.18c4.74-0.94,5.08-5.5,4.93-12.39C816.63,600.49,816.72,600.85,816.27,604.18
				z"/>
			<path d="M788.02,534.62c-2.65-1.04-4.53,3.75-2.23,5.43s5.8,0.05,7.09-2.49s1.01-5.56,0.7-8.39
				C791.17,530.23,788.76,531.29,788.02,534.62z"/>
		</g>
		<g>
			<g>
				<g>
					<g>
						<polygon points="956.53,646.01 956.26,641.39 956.29,638.77 956.56,634.73 957.88,637.13 958.24,641.17 958.22,645.96 
							957.74,649.43 						"/>
						<polygon points="967.83,652.48 967.56,647.86 967.59,645.24 967.86,641.2 969.19,643.59 969.54,647.63 969.53,652.43 
							969.04,655.9 						"/>
						<polygon points="979.55,657.29 979.28,652.68 979.32,650.06 979.58,646.02 980.91,648.41 981.27,652.45 981.25,657.25 
							980.77,660.72 						"/>
						<polygon points="992.34,662.05 992.07,657.44 992.11,654.81 992.37,650.78 993.7,653.17 994.06,657.21 994.04,662.01 
							993.56,665.48 						"/>
						<polygon points="1001.67,669.4 1001.4,664.79 1001.43,662.16 1001.7,658.13 1003.03,660.52 1003.38,664.56 1003.37,669.36 
							1002.88,672.83 						"/>
						<polygon points="1013.97,675.95 1013.7,671.34 1013.74,668.71 1014,664.68 1015.33,667.07 1015.69,671.11 1015.67,675.91 
							1015.19,679.38 						"/>
						<polygon points="1026.28,683.3 1026,678.69 1026.04,676.06 1026.31,672.03 1027.63,674.42 1027.99,678.46 1027.97,683.26 
							1027.49,686.73 						"/>
						<polygon points="1035.13,686.98 1034.86,682.37 1034.9,679.74 1035.16,675.7 1036.49,678.1 1036.85,682.14 1036.83,686.93 
							1036.35,690.4 						"/>
						<polygon points="1044.46,693.28 1044.19,688.67 1044.23,686.04 1044.49,682.01 1045.82,684.4 1046.18,688.44 1046.16,693.24 
							1045.68,696.71 						"/>
						<polygon points="1054.28,701.5 1054,696.88 1054.04,694.26 1054.3,690.22 1055.63,692.61 1055.99,696.65 1055.97,701.45 
							1055.49,704.92 						"/>
					</g>
					<g>
						<polygon points="881.53,675.02 885.38,672.47 887.66,671.18 891.29,669.38 889.89,671.73 886.58,674.07 882.42,676.47 
							879.18,677.8 						"/>
						<polygon points="881.63,688.05 885.48,685.49 887.76,684.2 891.39,682.4 889.99,684.75 886.67,687.09 882.52,689.49 
							879.28,690.82 						"/>
						<polygon points="883.36,700.6 887.21,698.04 889.5,696.75 893.12,694.95 891.72,697.3 888.41,699.65 884.25,702.04 
							881.01,703.37 						"/>
						<polygon points="885.68,714.05 889.54,711.49 891.82,710.2 895.44,708.4 894.04,710.75 890.73,713.1 886.58,715.49 
							883.34,716.82 						"/>
						<polygon points="884.02,725.81 887.87,723.25 890.16,721.96 893.78,720.16 892.38,722.51 889.07,724.85 884.92,727.25 
							881.68,728.58 						"/>
						<polygon points="884.55,739.73 888.4,737.18 890.69,735.89 894.31,734.09 892.91,736.44 889.6,738.78 885.45,741.18 
							882.21,742.51 						"/>
						<polygon points="884.39,754.07 888.24,751.51 890.53,750.22 894.15,748.42 892.75,750.77 889.44,753.11 885.29,755.51 
							882.04,756.84 						"/>
						<polygon points="885.67,763.57 889.52,761.01 891.8,759.72 895.43,757.92 894.03,760.27 890.72,762.61 886.56,765.01 
							883.32,766.34 						"/>
						<polygon points="884.92,774.81 888.77,772.25 891.05,770.96 894.68,769.16 893.28,771.51 889.96,773.85 885.81,776.25 
							882.57,777.58 						"/>
						<polygon points="882.75,787.42 886.61,784.86 888.89,783.57 892.51,781.77 891.11,784.12 887.8,786.46 883.65,788.86 
							880.41,790.19 						"/>
					</g>
					<g>
						<polygon points="818.02,623.9 822.09,626.09 824.3,627.5 827.6,629.85 824.87,629.72 821.24,627.9 817.17,625.37 
							814.47,623.13 						"/>
						<polygon points="806.58,630.11 810.65,632.31 812.86,633.72 816.16,636.07 813.42,635.94 809.8,634.12 805.73,631.58 
							803.03,629.35 						"/>
						<polygon points="796.32,637.55 800.39,639.75 802.6,641.16 805.89,643.5 803.16,643.38 799.53,641.56 795.46,639.02 
							792.77,636.78 						"/>
						<polygon points="785.54,645.93 789.61,648.13 791.82,649.53 795.12,651.88 792.39,651.76 788.76,649.93 784.69,647.4 
							781.99,645.16 						"/>
						<polygon points="774.39,650 778.46,652.19 780.67,653.6 783.97,655.95 781.23,655.82 777.61,654 773.54,651.46 770.84,649.23 
													"/>
						<polygon points="762.35,657.02 766.42,659.21 768.63,660.62 771.93,662.97 769.19,662.84 765.57,661.02 761.5,658.49 
							758.8,656.25 						"/>
						<polygon points="749.63,663.62 753.7,665.82 755.91,667.22 759.2,669.57 756.47,669.45 752.84,667.62 748.77,665.09 
							746.08,662.85 						"/>
						<polygon points="741.84,669.22 745.91,671.41 748.12,672.82 751.42,675.17 748.69,675.04 745.06,673.22 740.99,670.69 
							738.29,668.45 						"/>
						<polygon points="731.57,673.84 735.64,676.04 737.86,677.45 741.15,679.8 738.42,679.67 734.79,677.85 730.72,675.31 
							728.02,673.08 						"/>
						<polygon points="719.43,677.87 723.5,680.06 725.71,681.47 729.01,683.82 726.27,683.69 722.65,681.87 718.58,679.34 
							715.88,677.1 						"/>
					</g>
					<g>
						<polygon points="830.33,540.01 830.53,544.63 830.46,547.25 830.13,551.28 828.84,548.87 828.54,544.82 828.64,540.03 
							829.17,536.57 						"/>
						<polygon points="819.13,533.36 819.33,537.98 819.26,540.61 818.93,544.64 817.64,542.23 817.34,538.18 817.44,533.38 
							817.97,529.92 						"/>
						<polygon points="807.49,528.36 807.69,532.98 807.61,535.6 807.28,539.63 805.99,537.22 805.7,533.18 805.79,528.38 
							806.33,524.92 						"/>
						<polygon points="794.77,523.4 794.97,528.02 794.9,530.64 794.57,534.67 793.28,532.26 792.98,528.21 793.08,523.42 
							793.61,519.96 						"/>
						<polygon points="785.57,515.9 785.77,520.52 785.69,523.14 785.36,527.18 784.07,524.76 783.78,520.72 783.87,515.92 
							784.41,512.46 						"/>
						<polygon points="773.37,509.16 773.57,513.78 773.49,516.4 773.16,520.43 771.87,518.02 771.58,513.97 771.67,509.18 
							772.21,505.72 						"/>
						<polygon points="761.18,501.61 761.38,506.23 761.31,508.86 760.98,512.89 759.69,510.48 759.39,506.43 759.49,501.63 
							760.02,498.17 						"/>
						<polygon points="752.39,497.8 752.59,502.42 752.51,505.04 752.18,509.07 750.89,506.66 750.6,502.61 750.69,497.82 
							751.23,494.35 						"/>
						<polygon points="743.16,491.35 743.36,495.96 743.28,498.59 742.95,502.62 741.66,500.21 741.37,496.16 741.46,491.37 
							742,487.9 						"/>
						<polygon points="733.48,482.98 733.67,487.6 733.6,490.22 733.27,494.25 731.98,491.84 731.69,487.79 731.78,483 
							732.32,479.54 						"/>
					</g>
					<g>
						<polygon points="910.82,504.51 906.91,506.97 904.6,508.21 900.94,509.93 902.39,507.61 905.75,505.35 909.96,503.04 
							913.23,501.79 						"/>
						<polygon points="911.02,491.49 907.11,493.95 904.8,495.19 901.13,496.91 902.59,494.59 905.95,492.33 910.16,490.02 
							913.43,488.77 						"/>
						<polygon points="909.57,478.89 905.66,481.36 903.35,482.6 899.68,484.32 901.14,482 904.5,479.73 908.71,477.43 
							911.98,476.18 						"/>
						<polygon points="907.55,465.4 903.64,467.86 901.33,469.1 897.67,470.82 899.12,468.5 902.48,466.24 906.69,463.93 
							909.96,462.68 						"/>
						<polygon points="909.48,453.68 905.57,456.15 903.26,457.39 899.59,459.11 901.05,456.79 904.41,454.52 908.62,452.22 
							911.89,450.96 						"/>
						<polygon points="909.27,439.74 905.36,442.21 903.04,443.45 899.38,445.17 900.83,442.85 904.2,440.58 908.41,438.28 
							911.68,437.03 						"/>
						<polygon points="909.75,425.42 905.84,427.89 903.53,429.13 899.87,430.85 901.32,428.53 904.68,426.26 908.89,423.96 
							912.16,422.7 						"/>
						<polygon points="908.69,415.89 904.78,418.36 902.47,419.6 898.81,421.32 900.26,419 903.62,416.73 907.83,414.43 
							911.1,413.17 						"/>
						<polygon points="909.7,404.67 905.79,407.14 903.48,408.38 899.81,410.1 901.27,407.78 904.63,405.51 908.84,403.21 
							912.11,401.96 						"/>
						<polygon points="912.15,392.11 908.24,394.58 905.93,395.82 902.26,397.54 903.71,395.22 907.08,392.95 911.29,390.65 
							914.56,389.4 						"/>
					</g>
					<g>
						<polygon points="977.73,561.99 973.68,559.77 971.47,558.34 968.19,555.97 970.93,556.12 974.54,557.96 978.59,560.53 
							981.28,562.78 						"/>
						<polygon points="989.22,555.85 985.16,553.63 982.96,552.2 979.68,549.83 982.41,549.98 986.02,551.82 990.08,554.39 
							992.76,556.64 						"/>
						<polygon points="999.53,548.48 995.47,546.26 993.27,544.83 989.99,542.46 992.72,542.61 996.34,544.45 1000.39,547.01 
							1003.07,549.27 						"/>
						<polygon points="1010.36,540.17 1006.3,537.95 1004.1,536.52 1000.82,534.15 1003.55,534.3 1007.16,536.14 1011.22,538.71 
							1013.9,540.96 						"/>
						<polygon points="1021.54,536.18 1017.48,533.95 1015.28,532.53 1012,530.16 1014.73,530.31 1018.34,532.15 1022.4,534.71 
							1025.08,536.96 						"/>
						<polygon points="1033.62,529.23 1029.57,527.01 1027.36,525.59 1024.08,523.22 1026.82,523.36 1030.43,525.21 1034.48,527.77 
							1037.17,530.02 						"/>
						<polygon points="1046.39,522.71 1042.33,520.49 1040.13,519.07 1036.85,516.7 1039.58,516.84 1043.19,518.69 1047.25,521.25 
							1049.93,523.5 						"/>
						<polygon points="1054.21,517.17 1050.15,514.94 1047.95,513.52 1044.67,511.15 1047.4,511.3 1051.02,513.14 1055.07,515.7 
							1057.75,517.96 						"/>
						<polygon points="1064.51,512.61 1060.45,510.39 1058.25,508.96 1054.97,506.59 1057.7,506.74 1061.31,508.58 1065.37,511.15 
							1068.05,513.4 						"/>
						<polygon points="1076.68,508.66 1072.62,506.44 1070.42,505.02 1067.14,502.65 1069.87,502.79 1073.49,504.64 1077.54,507.2 
							1080.22,509.45 						"/>
					</g>
					<polygon points="1064.09,709.65 1063.82,705.04 1063.85,702.41 1064.12,698.38 1065.44,700.77 1065.8,704.81 1065.78,709.61 
						1065.3,713.07 					"/>
					<polygon points="1073.06,714.79 1072.79,710.17 1072.82,707.55 1073.09,703.51 1074.42,705.9 1074.78,709.94 1074.76,714.74 
						1074.28,718.21 					"/>
					<polygon points="945.2,639.59 944.93,634.97 944.96,632.35 945.23,628.31 946.55,630.7 946.91,634.74 946.89,639.54 
						946.41,643.01 					"/>
				</g>
			</g>
		</g>
		<g>
			<path d="M707.4,619.38c-2.1-15.19,0.72-62.25,6.26-78.64c-2.72,19.37-3.63,93.74,0.71,110.73
				C710.93,646.16,707.4,619.38,707.4,619.38z"/>
			<path d="M916.65,761.74c1.87-27.11,0.66-42.62,3.1-77.92c0,30.07,2.64,54.59-2.73,81.1C916.2,761.94,915.37,758.95,916.65,761.74
				z"/>
			<path d="M963.75,521.43c24.99-10.68,38.25-18.82,70.78-32.72c-26.77,13.69-47.4,27.2-73.45,34.5
				C963.36,521.12,965.65,519.02,963.75,521.43z"/>
			<path d="M732.91,522.36c22.96,14.54,37.18,20.85,67.07,39.78c-26.45-14.3-49.28-23.64-70.05-40.96
				C732.95,521.87,735.97,522.56,732.91,522.36z"/>
			<path d="M987.29,648.83c15.78,0.61,31.27,7.09,42.78,17.9c-2.88-9.07-10-16.69-18.86-20.19c-8.85-3.5-19.26-2.79-27.56,1.86
				C986.7,649.26,989.75,650.13,987.29,648.83z"/>
			<path d="M1085.07,541.66c1.25,15.07,1.24,30.67,0.73,45.67c-0.58,17.16-1.81,33.52-2.55,47.41
				C1093.62,610.2,1092.27,556.32,1085.07,541.66z"/>
			<path d="M943.12,400.72c15.2,11.16,69.74,39.6,85.41,47.81C1015.12,436.25,969.28,406.38,943.12,400.72z"/>
			<path d="M746.9,468.7c28.38-22.51,70.66-46.35,105.24-58.52c-31.42,4.42-32.79,6.96-54.15,18.07
				C779.04,438.1,759.56,451.53,746.9,468.7z"/>
			<path d="M865.73,406.34c-0.17,3.14,1.41,5.53,4.72,4.15s3.46-2.5,0.83-4.47C868.64,404.04,868.91,404.88,865.73,406.34z"/>
			<path d="M845.3,780.04c-27.66-16.52-68.33-43.07-90.64-58.66C754.66,721.38,815.2,775.93,845.3,780.04z"/>
			<path d="M856.12,785.57c0.41,3.3,2.4,4.04,4.91,2.42c2.51-1.62,2.15-2.25-0.36-4.18C858.17,781.87,855.71,782.27,856.12,785.57z"
				/>
			<path d="M816.27,604.18c-0.27,1.99-2.5,5.19-2.77,7.18c4.74-0.94,5.08-5.5,4.93-12.39C816.63,600.49,816.72,600.85,816.27,604.18
				z"/>
			<path d="M788.02,534.62c-2.65-1.04-4.53,3.75-2.23,5.43s5.8,0.05,7.09-2.49s1.01-5.56,0.7-8.39
				C791.17,530.23,788.76,531.29,788.02,534.62z"/>
		</g>
		<g>
			<path d="M1087,443.75c-16.87-43.79-80.14-70.26-122.38-84.94c0,0,52.07,22.44,75.71,39.3C1058.5,411.07,1087,443.75,1087,443.75z
				"/>
			<path d="M1095,454.01c-3.71,1.75,1.68,5.6,2.94,1.69C1097.94,455.71,1095,450.17,1095,454.01z"/>
			<path d="M662.73,510.39c-10.29,26.57-19.44,57.43-18.66,85.72c0.84,30.62,4.94,64.48,13.35,94.15c0,0-6.88-92.36-6.88-104.26
				C650.55,570.29,662.73,510.39,662.73,510.39z"/>
			<path d="M660.96,486.5c-1.93-1.86,0.9-5.76,3.27-4.5S663.97,489.39,660.96,486.5z"/>
			<path d="M706.41,750.59c7.35,14.24,17.85,26.81,30.39,36.73c14.57,11.51,31.9,19.43,50.3,22.2c0,0-31.92-11.93-50.73-26.87
				C719.67,769.38,706.41,750.59,706.41,750.59z"/>
			<path d="M683.82,723.6c1.74,3.48,2.51,2.14,4.25,5.62c3.01-0.96,3.97-1.08,1.98-3.53C688.06,723.23,684.87,724.25,683.82,723.6z"
				/>
		</g>
	</g>
	<g>
		<g>
			<g>
				<g>
					<g>
						<polygon points="1442.91,808.91 1442.62,803.98 1442.66,801.18 1442.94,796.87 1444.36,799.43 1444.74,803.74 1444.72,808.86 
							1444.21,812.56 						"/>
						<polygon points="1454.98,815.81 1454.69,810.88 1454.72,808.08 1455.01,803.77 1456.42,806.33 1456.81,810.64 1456.79,815.76 
							1456.27,819.46 						"/>
						<polygon points="1467.49,820.95 1467.2,816.03 1467.23,813.23 1467.52,808.92 1468.94,811.47 1469.32,815.78 1469.3,820.9 
							1468.78,824.61 						"/>
						<polygon points="1481.14,826.03 1480.85,821.11 1480.89,818.31 1481.17,814 1482.59,816.55 1482.97,820.86 1482.95,825.98 
							1482.44,829.68 						"/>
						<polygon points="1491.09,833.88 1490.8,828.95 1490.84,826.15 1491.12,821.84 1492.54,824.39 1492.92,828.71 1492.9,833.83 
							1492.39,837.53 						"/>
						<polygon points="1504.22,840.87 1503.93,835.94 1503.97,833.14 1504.25,828.83 1505.67,831.39 1506.05,835.7 1506.03,840.82 
							1505.52,844.52 						"/>
						<polygon points="1517.35,848.71 1517.06,843.79 1517.1,840.99 1517.38,836.68 1518.8,839.23 1519.18,843.54 1519.17,848.66 
							1518.65,852.36 						"/>
						<polygon points="1526.8,852.64 1526.51,847.71 1526.55,844.91 1526.84,840.6 1528.25,843.15 1528.63,847.47 1528.62,852.59 
							1528.1,856.29 						"/>
						<polygon points="1536.76,859.36 1536.47,854.44 1536.51,851.64 1536.8,847.33 1538.21,849.88 1538.59,854.19 1538.58,859.31 
							1538.06,863.02 						"/>
						<polygon points="1547.24,868.13 1546.95,863.2 1546.98,860.4 1547.27,856.09 1548.68,858.65 1549.07,862.96 1549.05,868.08 
							1548.53,871.78 						"/>
					</g>
					<g>
						<polygon points="1362.87,839.88 1366.98,837.15 1369.42,835.77 1373.29,833.85 1371.79,836.36 1368.26,838.86 1363.82,841.42 
							1360.36,842.83 						"/>
						<polygon points="1362.97,853.77 1367.09,851.04 1369.52,849.67 1373.39,847.74 1371.9,850.25 1368.36,852.75 1363.93,855.31 
							1360.47,856.73 						"/>
						<polygon points="1364.82,867.17 1368.94,864.44 1371.37,863.07 1375.24,861.14 1373.75,863.65 1370.21,866.15 1365.78,868.71 
							1362.32,870.13 						"/>
						<polygon points="1367.3,881.53 1371.42,878.8 1373.85,877.42 1377.72,875.5 1376.23,878.01 1372.69,880.51 1368.26,883.07 
							1364.8,884.49 						"/>
						<polygon points="1365.53,894.07 1369.64,891.34 1372.08,889.97 1375.95,888.04 1374.45,890.55 1370.92,893.05 1366.49,895.61 
							1363.03,897.03 						"/>
						<polygon points="1366.1,908.94 1370.21,906.21 1372.65,904.83 1376.51,902.91 1375.02,905.42 1371.49,907.92 1367.05,910.48 
							1363.59,911.9 						"/>
						<polygon points="1365.93,924.23 1370.04,921.5 1372.47,920.13 1376.34,918.2 1374.85,920.72 1371.31,923.21 1366.88,925.77 
							1363.42,927.19 						"/>
						<polygon points="1367.29,934.38 1371.4,931.65 1373.84,930.27 1377.7,928.35 1376.21,930.86 1372.68,933.36 1368.24,935.92 
							1364.78,937.33 						"/>
						<polygon points="1366.49,946.37 1370.6,943.64 1373.03,942.26 1376.9,940.34 1375.41,942.85 1371.87,945.35 1367.44,947.91 
							1363.98,949.33 						"/>
						<polygon points="1364.18,959.83 1368.29,957.1 1370.73,955.72 1374.59,953.8 1373.1,956.31 1369.57,958.81 1365.13,961.37 
							1361.67,962.79 						"/>
					</g>
					<g>
						<polygon points="1295.09,785.31 1299.43,787.65 1301.8,789.16 1305.31,791.66 1302.4,791.53 1298.53,789.59 1294.18,786.88 
							1291.3,784.49 						"/>
						<polygon points="1282.88,791.94 1287.22,794.29 1289.58,795.79 1293.1,798.3 1290.18,798.16 1286.31,796.22 1281.97,793.51 
							1279.09,791.13 						"/>
						<polygon points="1271.93,799.88 1276.27,802.23 1278.63,803.73 1282.15,806.24 1279.23,806.1 1275.36,804.16 1271.02,801.45 
							1268.14,799.06 						"/>
						<polygon points="1260.43,808.82 1264.77,811.17 1267.13,812.67 1270.65,815.18 1267.73,815.04 1263.86,813.1 1259.52,810.39 
							1256.64,808.01 						"/>
						<polygon points="1248.52,813.16 1252.87,815.51 1255.23,817.01 1258.75,819.52 1255.83,819.38 1251.96,817.44 1247.61,814.73 
							1244.73,812.35 						"/>
						<polygon points="1235.67,820.66 1240.02,823 1242.38,824.51 1245.89,827.01 1242.98,826.88 1239.11,824.93 1234.76,822.23 
							1231.88,819.84 						"/>
						<polygon points="1222.1,827.7 1226.44,830.05 1228.8,831.55 1232.32,834.06 1229.4,833.92 1225.53,831.98 1221.19,829.27 
							1218.31,826.89 						"/>
						<polygon points="1213.79,833.68 1218.13,836.02 1220.49,837.53 1224.01,840.03 1221.09,839.9 1217.22,837.95 1212.88,835.25 
							1210,832.86 						"/>
						<polygon points="1202.83,838.61 1207.17,840.96 1209.53,842.46 1213.05,844.97 1210.13,844.83 1206.26,842.89 1201.92,840.18 
							1199.04,837.8 						"/>
						<polygon points="1189.87,842.91 1194.21,845.26 1196.57,846.76 1200.09,849.27 1197.17,849.13 1193.3,847.19 1188.96,844.48 
							1186.08,842.09 						"/>
					</g>
					<g>
						<polygon points="1308.23,695.78 1308.44,700.71 1308.36,703.51 1308.01,707.81 1306.63,705.24 1306.32,700.92 1306.42,695.8 
							1306.99,692.11 						"/>
						<polygon points="1296.28,688.69 1296.49,693.62 1296.41,696.42 1296.06,700.72 1294.68,698.14 1294.37,693.83 1294.47,688.71 
							1295.04,685.01 						"/>
						<polygon points="1283.85,683.35 1284.06,688.28 1283.98,691.08 1283.63,695.38 1282.25,692.8 1281.94,688.49 1282.04,683.37 
							1282.61,679.67 						"/>
						<polygon points="1270.28,678.05 1270.49,682.98 1270.41,685.78 1270.06,690.09 1268.68,687.51 1268.37,683.19 1268.47,678.07 
							1269.04,674.38 						"/>
						<polygon points="1260.46,670.05 1260.67,674.98 1260.59,677.78 1260.23,682.08 1258.86,679.51 1258.54,675.19 1258.64,670.07 
							1259.22,666.38 						"/>
						<polygon points="1247.44,662.85 1247.65,667.78 1247.57,670.58 1247.21,674.89 1245.84,672.31 1245.52,667.99 1245.62,662.87 
							1246.2,659.18 						"/>
						<polygon points="1234.43,654.8 1234.64,659.73 1234.56,662.53 1234.21,666.84 1232.83,664.26 1232.52,659.94 1232.62,654.82 
							1233.19,651.13 						"/>
						<polygon points="1225.04,650.73 1225.25,655.66 1225.17,658.46 1224.82,662.76 1223.44,660.18 1223.13,655.87 1223.23,650.75 
							1223.8,647.05 						"/>
						<polygon points="1215.19,643.84 1215.4,648.77 1215.32,651.57 1214.97,655.88 1213.59,653.3 1213.28,648.98 1213.38,643.86 
							1213.95,640.17 						"/>
						<polygon points="1204.86,634.91 1205.07,639.84 1204.99,642.64 1204.64,646.95 1203.26,644.37 1202.95,640.05 1203.05,634.93 
							1203.62,631.24 						"/>
					</g>
					<g>
						<polygon points="1394.13,657.89 1389.96,660.52 1387.49,661.84 1383.58,663.68 1385.13,661.2 1388.72,658.78 1393.21,656.33 
							1396.7,654.99 						"/>
						<polygon points="1394.34,643.99 1390.17,646.63 1387.7,647.95 1383.79,649.78 1385.34,647.31 1388.93,644.89 1393.42,642.43 
							1396.91,641.09 						"/>
						<polygon points="1392.8,630.55 1388.63,633.19 1386.16,634.51 1382.25,636.34 1383.8,633.87 1387.39,631.45 1391.88,628.99 
							1395.37,627.65 						"/>
						<polygon points="1390.64,616.15 1386.47,618.78 1384,620.1 1380.09,621.94 1381.64,619.46 1385.24,617.04 1389.73,614.59 
							1393.22,613.25 						"/>
						<polygon points="1392.7,603.64 1388.53,606.28 1386.06,607.6 1382.15,609.43 1383.7,606.96 1387.29,604.54 1391.78,602.08 
							1395.27,600.74 						"/>
						<polygon points="1392.47,588.77 1388.3,591.4 1385.83,592.73 1381.92,594.56 1383.47,592.08 1387.06,589.67 1391.55,587.21 
							1395.04,585.87 						"/>
						<polygon points="1392.99,573.48 1388.82,576.12 1386.35,577.44 1382.44,579.27 1383.99,576.8 1387.58,574.38 1392.07,571.92 
							1395.56,570.58 						"/>
						<polygon points="1391.86,563.31 1387.69,565.95 1385.22,567.27 1381.31,569.1 1382.86,566.63 1386.45,564.21 1390.94,561.75 
							1394.43,560.41 						"/>
						<polygon points="1392.94,551.34 1388.76,553.98 1386.29,555.3 1382.38,557.13 1383.94,554.66 1387.53,552.24 1392.02,549.78 
							1395.51,548.44 						"/>
						<polygon points="1395.55,537.94 1391.38,540.57 1388.91,541.89 1385,543.73 1386.55,541.25 1390.14,538.83 1394.63,536.38 
							1398.12,535.04 						"/>
					</g>
					<g>
						<polygon points="1465.54,719.24 1461.22,716.87 1458.87,715.35 1455.36,712.82 1458.28,712.97 1462.14,714.94 1466.46,717.68 
							1469.33,720.08 						"/>
						<polygon points="1477.8,712.68 1473.47,710.31 1471.12,708.79 1467.62,706.26 1470.54,706.42 1474.39,708.39 1478.72,711.12 
							1481.58,713.53 						"/>
						<polygon points="1488.81,704.82 1484.48,702.45 1482.13,700.93 1478.63,698.4 1481.54,698.55 1485.4,700.52 1489.72,703.26 
							1492.59,705.66 						"/>
						<polygon points="1500.36,695.95 1496.03,693.58 1493.68,692.06 1490.18,689.53 1493.1,689.69 1496.96,691.65 1501.28,694.39 
							1504.15,696.79 						"/>
						<polygon points="1512.29,691.69 1507.97,689.32 1505.61,687.8 1502.11,685.27 1505.03,685.42 1508.89,687.39 1513.21,690.13 
							1516.08,692.53 						"/>
						<polygon points="1525.19,684.28 1520.87,681.91 1518.51,680.39 1515.01,677.86 1517.93,678.01 1521.79,679.98 1526.11,682.72 
							1528.98,685.12 						"/>
						<polygon points="1538.82,677.32 1534.49,674.95 1532.14,673.43 1528.64,670.9 1531.55,671.06 1535.41,673.02 1539.74,675.76 
							1542.6,678.16 						"/>
						<polygon points="1547.16,671.4 1542.84,669.03 1540.48,667.51 1536.98,664.98 1539.9,665.14 1543.76,667.1 1548.08,669.84 
							1550.95,672.24 						"/>
						<polygon points="1558.15,666.54 1553.83,664.17 1551.47,662.65 1547.97,660.12 1550.89,660.27 1554.75,662.24 1559.07,664.98 
							1561.94,667.38 						"/>
						<polygon points="1571.14,662.32 1566.82,659.95 1564.47,658.43 1560.96,655.9 1563.88,656.06 1567.74,658.03 1572.06,660.76 
							1574.93,663.17 						"/>
					</g>
					<polygon points="1557.71,876.83 1557.42,871.91 1557.46,869.11 1557.74,864.8 1559.16,867.35 1559.54,871.66 1559.52,876.78 
						1559,880.49 					"/>
					<polygon points="1567.29,882.31 1567,877.39 1567.03,874.59 1567.32,870.28 1568.73,872.83 1569.12,877.14 1569.1,882.26 
						1568.58,885.96 					"/>
					<polygon points="1430.82,802.06 1430.53,797.13 1430.57,794.33 1430.85,790.02 1432.27,792.57 1432.65,796.89 1432.63,802.01 
						1432.12,805.71 					"/>
					<g>
						<g>
							<path d="M1379.11,507.26c-135.4,0-245.16,109.76-245.16,245.16s109.76,245.16,245.16,245.16s245.16-109.76,245.16-245.16
								S1514.51,507.26,1379.11,507.26z M1398,537c26.76-14.15,150.45,53.43,147.53,90.59c-0.82,10.46-18.64,19.79-35.22,29.23
								c-27.63,15.73-54.01,28.84-68.59,32.18c-16.97,3.88-44.59-14.59-50.36-24.57c-8.82-15.28-6.59-51.35-6.31-66.71
								C1385.35,582.21,1380.53,546.25,1398,537z M1436.83,777.78c4.06-2.35,9.26-0.95,11.6,3.11s0.95,9.26-3.11,11.6
								c-4.06,2.35-9.26,0.95-11.6-3.11S1432.77,780.13,1436.83,777.78z M1428.61,713.3c0-4.69,3.8-8.49,8.49-8.49
								s8.49,3.8,8.49,8.49s-3.8,8.49-8.49,8.49S1428.61,717.99,1428.61,713.3z M1426.04,752.42c0,25.92-21.01,46.92-46.92,46.92
								c-25.92,0-46.92-21.01-46.92-46.92s21.01-46.92,46.92-46.92C1405.03,705.49,1426.04,726.5,1426.04,752.42z M1369.37,679.97
								c2.35-4.06,7.54-5.45,11.6-3.11c4.06,2.35,5.45,7.54,3.11,11.6s-7.54,5.45-11.6,3.11S1367.03,684.03,1369.37,679.97z
								 M1354.23,545.88c8.64,5.94,7.82,26.04,7.7,45.12c-0.19,31.8-2.03,61.19-6.43,75.48c-5.13,16.64-34.93,31.33-46.46,31.33
								c-17.65,0-47.76-19.96-60.92-27.89c-13.29-8.01-46.85-21.81-46.11-41.57C1203.12,598.1,1323.5,524.77,1354.23,545.88z
								 M1321.55,784.1c4.69,0,8.49,3.8,8.49,8.49s-3.8,8.49-8.49,8.49c-4.69,0-8.49-3.8-8.49-8.49S1316.86,784.1,1321.55,784.1z
								 M1308.39,726.04c-2.35-4.06-0.95-9.26,3.11-11.6c4.06-2.35,9.26-0.95,11.6,3.11c2.35,4.06,0.95,9.26-3.11,11.6
								C1315.93,731.49,1310.73,730.1,1308.39,726.04z M1183.11,843.77c-25.64-16.09-28.95-157.01,4.69-173.06
								c9.47-4.52,26.46,6.25,42.93,15.89c27.44,16.06,51.98,32.35,62.16,43.31c11.85,12.76,9.66,45.91,3.9,55.9
								c-8.82,15.28-41.17,31.38-54.62,38.82C1228.59,832.12,1199.85,854.28,1183.11,843.77z M1360.22,967.83
								c-26.76,14.15-150.45-53.43-147.53-90.59c0.82-10.46,18.64-19.79,35.22-29.23c27.63-15.73,54.01-28.84,68.59-32.18
								c16.97-3.88,44.59,14.59,50.36,24.57c8.82,15.28,6.59,51.35,6.31,66.71C1372.88,922.63,1377.7,958.59,1360.22,967.83z
								 M1392.58,827.55c-2.35,4.06-7.54,5.45-11.6,3.11s-5.45-7.54-3.11-11.6c2.35-4.06,7.54-5.45,11.6-3.11
								S1394.92,823.49,1392.58,827.55z M1404,958.95c-8.64-5.94-7.82-26.04-7.7-45.12c0.19-31.8,2.03-61.19,6.43-75.48
								c5.13-16.64,34.93-31.33,46.46-31.33c17.65,0,47.76,19.96,60.92,27.89c13.29,8.01,46.85,21.81,46.11,41.57
								C1555.1,906.73,1434.72,980.06,1404,958.95z M1570.42,834.13c-9.47,4.52-26.46-6.25-42.93-15.89
								c-27.44-16.06-51.98-32.35-62.16-43.31c-11.85-12.76-9.66-45.91-3.9-55.9c8.82-15.28,41.17-31.38,54.62-38.82
								c13.58-7.51,42.32-29.66,59.06-19.15C1600.75,677.16,1604.07,818.08,1570.42,834.13z"/>
						</g>
					</g>
				</g>
			</g>
		</g>
		<g>
			<path d="M1177.02,780.49c-2.24-16.21,0.77-66.43,6.68-83.93c-2.91,20.67-3.87,100.04,0.76,118.18
				C1180.8,809.07,1177.02,780.49,1177.02,780.49z"/>
			<path d="M1400.36,932.42c2-28.93,0.71-45.49,3.31-83.16c0,32.09,2.82,58.26-2.91,86.56
				C1399.87,932.63,1398.99,929.45,1400.36,932.42z"/>
			<path d="M1450.62,675.95c26.67-11.39,40.82-20.08,75.54-34.92c-28.57,14.61-50.59,29.03-78.39,36.82
				C1450.21,675.62,1452.65,673.38,1450.62,675.95z"/>
			<path d="M1204.25,676.94c24.5,15.52,39.68,22.25,71.58,42.45c-28.23-15.26-52.59-25.23-74.76-43.72
				C1204.3,676.42,1207.52,677.15,1204.25,676.94z"/>
			<path d="M1475.74,811.91c16.84,0.65,33.37,7.56,45.66,19.1c-3.08-9.68-10.68-17.81-20.12-21.54c-9.45-3.73-20.55-2.98-29.41,1.98
				C1475.12,812.38,1478.37,813.31,1475.74,811.91z"/>
			<path d="M1580.1,697.54c1.33,16.08,1.32,32.73,0.78,48.74c-0.62,18.31-1.93,35.78-2.73,50.6
				C1589.23,770.69,1587.79,713.19,1580.1,697.54z"/>
			<path d="M1428.61,547.12c16.23,11.91,74.43,42.27,91.16,51.02C1505.44,585.04,1456.52,553.16,1428.61,547.12z"/>
			<path d="M1219.19,619.67c30.29-24.03,75.42-49.47,112.31-62.45c-33.53,4.72-34.99,7.43-57.79,19.28
				C1253.49,587.01,1232.7,601.35,1219.19,619.67z"/>
			<path d="M1346.01,553.12c-0.18,3.36,1.51,5.9,5.04,4.43c3.53-1.47,3.7-2.67,0.88-4.77
				C1349.12,550.66,1349.4,551.56,1346.01,553.12z"/>
			<path d="M1324.2,951.96c-29.52-17.63-72.93-45.97-96.73-62.61C1227.47,889.35,1292.08,947.56,1324.2,951.96z"/>
			<path d="M1335.75,957.86c0.44,3.52,2.57,4.31,5.24,2.58c2.68-1.73,2.29-2.4-0.38-4.46
				C1337.94,953.91,1335.31,954.33,1335.75,957.86z"/>
			<path d="M1293.22,764.27c-0.28,2.13-2.67,5.54-2.96,7.67c5.06-1,5.42-5.87,5.26-13.23
				C1293.6,760.33,1293.7,760.71,1293.22,764.27z"/>
			<path d="M1263.07,690.03c-2.83-1.11-4.84,4.01-2.38,5.8c2.46,1.79,6.19,0.06,7.57-2.66c1.37-2.71,1.07-5.94,0.74-8.96
				C1266.43,685.35,1263.86,686.48,1263.07,690.03z"/>
			<path d="M1177.02,780.49c-2.24-16.21,0.77-66.43,6.68-83.93c-2.91,20.67-3.87,100.04,0.76,118.18
				C1180.8,809.07,1177.02,780.49,1177.02,780.49z"/>
			<path d="M1400.36,932.42c2-28.93,0.71-45.49,3.31-83.16c0,32.09,2.82,58.26-2.91,86.56
				C1399.87,932.63,1398.99,929.45,1400.36,932.42z"/>
			<path d="M1450.62,675.95c26.67-11.39,40.82-20.08,75.54-34.92c-28.57,14.61-50.59,29.03-78.39,36.82
				C1450.21,675.62,1452.65,673.38,1450.62,675.95z"/>
			<path d="M1204.25,676.94c24.5,15.52,39.68,22.25,71.58,42.45c-28.23-15.26-52.59-25.23-74.76-43.72
				C1204.3,676.42,1207.52,677.15,1204.25,676.94z"/>
			<path d="M1475.74,811.91c16.84,0.65,33.37,7.56,45.66,19.1c-3.08-9.68-10.68-17.81-20.12-21.54c-9.45-3.73-20.55-2.98-29.41,1.98
				C1475.12,812.38,1478.37,813.31,1475.74,811.91z"/>
			<path d="M1580.1,697.54c1.33,16.08,1.32,32.73,0.78,48.74c-0.62,18.31-1.93,35.78-2.73,50.6
				C1589.23,770.69,1587.79,713.19,1580.1,697.54z"/>
			<path d="M1428.61,547.12c16.23,11.91,74.43,42.27,91.16,51.02C1505.44,585.04,1456.52,553.16,1428.61,547.12z"/>
			<path d="M1219.19,619.67c30.29-24.03,75.42-49.47,112.31-62.45c-33.53,4.72-34.99,7.43-57.79,19.28
				C1253.49,587.01,1232.7,601.35,1219.19,619.67z"/>
			<path d="M1346.01,553.12c-0.18,3.36,1.51,5.9,5.04,4.43c3.53-1.47,3.7-2.67,0.88-4.77
				C1349.12,550.66,1349.4,551.56,1346.01,553.12z"/>
			<path d="M1324.2,951.96c-29.52-17.63-72.93-45.97-96.73-62.61C1227.47,889.35,1292.08,947.56,1324.2,951.96z"/>
			<path d="M1335.75,957.86c0.44,3.52,2.57,4.31,5.24,2.58c2.68-1.73,2.29-2.4-0.38-4.46
				C1337.94,953.91,1335.31,954.33,1335.75,957.86z"/>
			<path d="M1293.22,764.27c-0.28,2.13-2.67,5.54-2.96,7.67c5.06-1,5.42-5.87,5.26-13.23
				C1293.6,760.33,1293.7,760.71,1293.22,764.27z"/>
			<path d="M1263.07,690.03c-2.83-1.11-4.84,4.01-2.38,5.8c2.46,1.79,6.19,0.06,7.57-2.66c1.37-2.71,1.07-5.94,0.74-8.96
				C1266.43,685.35,1263.86,686.48,1263.07,690.03z"/>
			<path d="M1177.02,780.49c-2.24-16.21,0.77-66.43,6.68-83.93c-2.91,20.67-3.87,100.04,0.76,118.18
				C1180.8,809.07,1177.02,780.49,1177.02,780.49z"/>
			<path d="M1400.36,932.42c2-28.93,0.71-45.49,3.31-83.16c0,32.09,2.82,58.26-2.91,86.56
				C1399.87,932.63,1398.99,929.45,1400.36,932.42z"/>
			<path d="M1450.62,675.95c26.67-11.39,40.82-20.08,75.54-34.92c-28.57,14.61-50.59,29.03-78.39,36.82
				C1450.21,675.62,1452.65,673.38,1450.62,675.95z"/>
			<path d="M1204.25,676.94c24.5,15.52,39.68,22.25,71.58,42.45c-28.23-15.26-52.59-25.23-74.76-43.72
				C1204.3,676.42,1207.52,677.15,1204.25,676.94z"/>
			<path d="M1475.74,811.91c16.84,0.65,33.37,7.56,45.66,19.1c-3.08-9.68-10.68-17.81-20.12-21.54c-9.45-3.73-20.55-2.98-29.41,1.98
				C1475.12,812.38,1478.37,813.31,1475.74,811.91z"/>
			<path d="M1580.1,697.54c1.33,16.08,1.32,32.73,0.78,48.74c-0.62,18.31-1.93,35.78-2.73,50.6
				C1589.23,770.69,1587.79,713.19,1580.1,697.54z"/>
			<path d="M1428.61,547.12c16.23,11.91,74.43,42.27,91.16,51.02C1505.44,585.04,1456.52,553.16,1428.61,547.12z"/>
			<path d="M1219.19,619.67c30.29-24.03,75.42-49.47,112.31-62.45c-33.53,4.72-34.99,7.43-57.79,19.28
				C1253.49,587.01,1232.7,601.35,1219.19,619.67z"/>
			<path d="M1346.01,553.12c-0.18,3.36,1.51,5.9,5.04,4.43c3.53-1.47,3.7-2.67,0.88-4.77
				C1349.12,550.66,1349.4,551.56,1346.01,553.12z"/>
			<path d="M1324.2,951.96c-29.52-17.63-72.93-45.97-96.73-62.61C1227.47,889.35,1292.08,947.56,1324.2,951.96z"/>
			<path d="M1335.75,957.86c0.44,3.52,2.57,4.31,5.24,2.58c2.68-1.73,2.29-2.4-0.38-4.46
				C1337.94,953.91,1335.31,954.33,1335.75,957.86z"/>
			<path d="M1293.22,764.27c-0.28,2.13-2.67,5.54-2.96,7.67c5.06-1,5.42-5.87,5.26-13.23
				C1293.6,760.33,1293.7,760.71,1293.22,764.27z"/>
			<path d="M1263.07,690.03c-2.83-1.11-4.84,4.01-2.38,5.8c2.46,1.79,6.19,0.06,7.57-2.66c1.37-2.71,1.07-5.94,0.74-8.96
				C1266.43,685.35,1263.86,686.48,1263.07,690.03z"/>
			<path d="M1177.02,780.49c-2.24-16.21,0.77-66.43,6.68-83.93c-2.91,20.67-3.87,100.04,0.76,118.18
				C1180.8,809.07,1177.02,780.49,1177.02,780.49z"/>
			<path d="M1400.36,932.42c2-28.93,0.71-45.49,3.31-83.16c0,32.09,2.82,58.26-2.91,86.56
				C1399.87,932.63,1398.99,929.45,1400.36,932.42z"/>
			<path d="M1450.62,675.95c26.67-11.39,40.82-20.08,75.54-34.92c-28.57,14.61-50.59,29.03-78.39,36.82
				C1450.21,675.62,1452.65,673.38,1450.62,675.95z"/>
			<path d="M1204.25,676.94c24.5,15.52,39.68,22.25,71.58,42.45c-28.23-15.26-52.59-25.23-74.76-43.72
				C1204.3,676.42,1207.52,677.15,1204.25,676.94z"/>
			<path d="M1475.74,811.91c16.84,0.65,33.37,7.56,45.66,19.1c-3.08-9.68-10.68-17.81-20.12-21.54c-9.45-3.73-20.55-2.98-29.41,1.98
				C1475.12,812.38,1478.37,813.31,1475.74,811.91z"/>
			<path d="M1580.1,697.54c1.33,16.08,1.32,32.73,0.78,48.74c-0.62,18.31-1.93,35.78-2.73,50.6
				C1589.23,770.69,1587.79,713.19,1580.1,697.54z"/>
			<path d="M1428.61,547.12c16.23,11.91,74.43,42.27,91.16,51.02C1505.44,585.04,1456.52,553.16,1428.61,547.12z"/>
			<path d="M1219.19,619.67c30.29-24.03,75.42-49.47,112.31-62.45c-33.53,4.72-34.99,7.43-57.79,19.28
				C1253.49,587.01,1232.7,601.35,1219.19,619.67z"/>
			<path d="M1346.01,553.12c-0.18,3.36,1.51,5.9,5.04,4.43c3.53-1.47,3.7-2.67,0.88-4.77
				C1349.12,550.66,1349.4,551.56,1346.01,553.12z"/>
			<path d="M1324.2,951.96c-29.52-17.63-72.93-45.97-96.73-62.61C1227.47,889.35,1292.08,947.56,1324.2,951.96z"/>
			<path d="M1335.75,957.86c0.44,3.52,2.57,4.31,5.24,2.58c2.68-1.73,2.29-2.4-0.38-4.46
				C1337.94,953.91,1335.31,954.33,1335.75,957.86z"/>
			<path d="M1293.22,764.27c-0.28,2.13-2.67,5.54-2.96,7.67c5.06-1,5.42-5.87,5.26-13.23
				C1293.6,760.33,1293.7,760.71,1293.22,764.27z"/>
			<path d="M1263.07,690.03c-2.83-1.11-4.84,4.01-2.38,5.8c2.46,1.79,6.19,0.06,7.57-2.66c1.37-2.71,1.07-5.94,0.74-8.96
				C1266.43,685.35,1263.86,686.48,1263.07,690.03z"/>
		</g>
		<g>
			<path d="M1193.62,579.51c-16.93,15.69-48.22,62.46-48.22,62.46c9.43-21.54,24.95-45.16,40.33-60.54
				c21.04-21.04,39.97-33.36,59.29-44.33C1245.03,537.1,1205.96,568.07,1193.62,579.51z"/>
			<path d="M1275.35,514.75c-2.35,2.51-0.8,2.15-1.82,4.05c1.69,3.34,4.53,1.18,5.71-2.38
				C1279.24,516.43,1282.61,513.78,1275.35,514.75z"/>
			<path d="M1625.99,853.3c-12.7,26.81-23.24,48.72-45.75,70.65c-20.82,20.28-53.13,41.09-77.34,54c0,0,53.24-38.12,82.65-69.96"/>
			<path d="M1636.92,827.56c2.56-0.65,3.04-1.64,2.88-2.99C1638.83,823.71,1638.99,820.46,1636.92,827.56z"/>
			<path d="M1246.6,981.79c-38.93-15.34-72.41-44.14-93.4-80.34c0,0,36.48,39.4,41.28,43.5"/>
			<path d="M1255.67,988.35c2.25,1.15,2.43,0.93,4.68,2.08c0.37-3.34,0.04-1.18,0.41-4.52
				C1258.15,987.1,1258.29,984.16,1255.67,988.35z"/>
		</g>
	</g>
</g>
</svg>
