<?xml version="1.0" encoding="utf-8"?>
<!-- Generator: Adobe Illustrator 24.2.3, SVG Export Plug-In . SVG Version: 6.00 Build 0)  -->
<svg version="1.1" id="Layer_12" xmlns="http://www.w3.org/2000/svg" xmlns:xlink="http://www.w3.org/1999/xlink" x="0px" y="0px"
	 viewBox="0 0 2048 2048" style="enable-background:new 0 0 2048 2048;" xml:space="preserve">
<style type="text/css">
	.st0{fill:#F7F7F7;}
	.st1{clip-path:url(#SVGID_2_);fill:#F7F7F7;}
	.st2{clip-path:url(#SVGID_4_);fill:#F7F7F7;}
	.st3{clip-path:url(#SVGID_6_);fill:#F7F7F7;}
	.st4{clip-path:url(#SVGID_8_);fill:#F7F7F7;}
</style>
<g>
	<g>
		<g>
			<path class="st0" d="M880.4,1376.6c0.5,5.6-30.9,30.3-50.1,41.4c-19.1,11.1-62.3,30.6-65.8,27.2c-4.6-4.4-25.6-73-24.5-78.6
				c0.7-3.4,27.7-13.2,43.1-23.6c15-10.1,34.6-31.5,39.1-31C830.3,1312.8,879.8,1370.9,880.4,1376.6z"/>
			<path class="st0" d="M737.7,1452.8c-2.3,5.1-41.8,10.8-64,10.8c-22.1,0-69.2-4.6-70.6-9.3c-1.8-6.1,14.3-76,18.1-80.3
				c2.2-2.6,30.6,2.4,49.2,1.1c18-1.3,45.7-10,49.4-7.3C726.3,1372.6,740.1,1447.7,737.7,1452.8z"/>
			<path class="st0" d="M576,1447.5c-4.5,3.3-41.6-11.6-60.9-22.7c-19.1-11-57.7-38.6-56.5-43.4c1.5-6.2,50.4-58.7,55.8-60.5
				c3.2-1.1,25.3,17.4,42,25.5c16.3,7.9,44.6,14.2,46.4,18.4C606.3,1372.3,580.7,1444.2,576,1447.5z"/>
			<path class="st0" d="M438.7,1362.1c-5.6,0.6-30.3-30.9-41.4-50.1c-11.1-19.1-30.6-62.3-27.2-65.8c4.4-4.6,73-25.6,78.6-24.5
				c3.4,0.7,13.2,27.7,23.6,43.1c10.1,15,31.5,34.6,31,39.1C502.5,1312,444.4,1361.5,438.7,1362.1z"/>
			<path class="st0" d="M362.5,1219.4c-5.1-2.3-10.8-41.8-10.8-64.1c0-22.1,4.6-69.2,9.3-70.6c6.1-1.8,76,14.3,80.3,18.1
				c2.6,2.2-2.4,30.6-1.1,49.2c1.3,18,10,45.7,7.3,49.4C442.8,1207.9,367.7,1221.7,362.5,1219.4z"/>
			<path class="st0" d="M367.8,1057.7c-3.3-4.5,11.6-41.6,22.6-60.9c11-19.2,38.6-57.7,43.4-56.5c6.2,1.5,58.6,50.4,60.5,55.8
				c1.1,3.2-17.4,25.3-25.5,42c-7.9,16.3-14.2,44.6-18.4,46.4C443.1,1087.9,371.1,1062.3,367.8,1057.7z"/>
			<path class="st0" d="M453.3,920.4c-0.5-5.6,30.9-30.3,50.1-41.4c19.1-11.1,62.3-30.6,65.8-27.2c4.6,4.4,25.6,73,24.5,78.6
				c-0.7,3.4-27.7,13.2-43.1,23.6c-15,10.1-34.6,31.5-39.1,31C503.3,984.2,453.8,926,453.3,920.4z"/>
			<path class="st0" d="M595.9,844.1c2.3-5.1,41.8-10.8,64-10.8c22.1,0,69.2,4.6,70.6,9.3c1.8,6.1-14.3,76-18.1,80.3
				c-2.2,2.6-30.6-2.4-49.2-1.1c-18,1.3-45.7,10-49.4,7.3C607.4,924.4,593.6,849.3,595.9,844.1z"/>
			<path class="st0" d="M757.6,849.5c4.5-3.3,41.6,11.6,60.9,22.7c19.2,11,57.7,38.6,56.5,43.4c-1.5,6.2-50.4,58.7-55.8,60.5
				c-3.2,1.1-25.3-17.4-42-25.5c-16.3-7.9-44.6-14.2-46.4-18.4C727.4,924.7,753,852.8,757.6,849.5z"/>
		</g>
		<g>
			<polygon class="st0" points="916.1,1398.1 897.3,1416.5 883.2,1401.6 902.2,1384.3 			"/>
			<polygon class="st0" points="876.1,1432.4 854.8,1447.8 843,1431 864.4,1416.8 			"/>
			<polygon class="st0" points="831.4,1460.4 808.1,1472.5 799,1454.1 822.2,1443.2 			"/>
			<polygon class="st0" points="783.1,1481.5 758.2,1489.9 752,1470.4 776.5,1463.1 			"/>
			<polygon class="st0" points="732.2,1495.1 706.3,1499.8 703,1479.5 728.4,1475.9 			"/>
			<polygon class="st0" points="679.8,1501 653.5,1501.7 653.3,1481.2 678.9,1481.5 			"/>
			<polygon class="st0" points="627.1,1499 601,1495.8 603.9,1475.4 629.2,1479.6 			"/>
			<polygon class="st0" points="575.3,1489.1 550,1482.1 555.8,1462.4 580.2,1470.2 			"/>
			<polygon class="st0" points="525.6,1471.7 501.6,1460.9 510.3,1442.4 533.3,1453.7 			"/>
			<polygon class="st0" points="479,1447 456.9,1432.8 468.2,1415.7 489.3,1430.4 			"/>
			<polygon class="st0" points="436.6,1415.7 416.8,1398.4 430.6,1383.2 449.2,1400.8 			"/>
			<polygon class="st0" points="399.3,1378.4 382.4,1358.3 398.3,1345.3 414,1365.6 			"/>
			<polygon class="st0" points="368.1,1335.9 354.3,1313.6 371.9,1303.1 384.5,1325.4 			"/>
			<polygon class="st0" points="343.5,1289.3 333.2,1265.1 352.2,1257.4 361.3,1281.4 			"/>
			<polygon class="st0" points="326.1,1239.6 319.5,1214.1 339.5,1209.3 344.9,1234.4 			"/>
			<polygon class="st0" points="316.3,1187.8 313.6,1161.6 334.1,1159.8 335.7,1185.4 			"/>
			<polygon class="st0" points="314.4,1135.1 315.6,1108.8 336.1,1110.1 333.9,1135.7 			"/>
			<polygon class="st0" points="320.3,1082.7 325.4,1056.9 345.5,1061.3 339.5,1086.2 			"/>
			<polygon class="st0" points="334,1031.8 342.9,1007 362.1,1014.3 352.5,1038.1 			"/>
			<polygon class="st0" points="355.1,983.5 367.6,960.3 385.5,970.4 372.4,992.5 			"/>
			<polygon class="st0" points="383.2,938.9 399,917.8 415.2,930.5 399,950.3 			"/>
			<polygon class="st0" points="417.6,898.9 436.3,880.5 450.5,895.4 431.5,912.6 			"/>
			<polygon class="st0" points="457.6,864.6 478.9,849.2 490.6,866 469.3,880.2 			"/>
			<polygon class="st0" points="502.2,836.5 525.6,824.5 534.7,842.9 511.5,853.7 			"/>
			<polygon class="st0" points="550.6,815.5 575.4,807 581.7,826.6 557.1,833.9 			"/>
			<polygon class="st0" points="601.5,801.9 627.4,797.2 630.6,817.5 605.2,821 			"/>
			<polygon class="st0" points="653.9,796 680.2,795.3 680.4,815.8 654.7,815.5 			"/>
			<polygon class="st0" points="706.5,798 732.6,801.2 729.8,821.5 704.5,817.4 			"/>
			<polygon class="st0" points="758.3,807.9 783.7,814.9 777.8,834.6 753.4,826.8 			"/>
			<polygon class="st0" points="808.1,825.3 832.1,836 823.4,854.6 800.4,843.3 			"/>
			<polygon class="st0" points="854.7,850 876.8,864.2 865.4,881.2 844.4,866.6 			"/>
			<polygon class="st0" points="897.1,881.3 916.8,898.6 903,913.8 884.4,896.2 			"/>
		</g>
		<g>
			<polygon class="st0" points="819.9,1294.1 801.2,1312.5 787,1297.6 806,1280.4 			"/>
			<polygon class="st0" points="782.4,1325.4 759.9,1339 749.6,1321.3 772,1308.9 			"/>
			<polygon class="st0" points="738.6,1347.2 713.6,1355.3 707.6,1335.7 732.3,1328.7 			"/>
			<polygon class="st0" points="691,1358.4 664.8,1360.5 663.5,1340 689.2,1339 			"/>
			<polygon class="st0" points="642.2,1358.3 616.2,1354.4 619.6,1334.1 644.8,1339 			"/>
			<polygon class="st0" points="594.6,1347.1 570.2,1337.2 578.2,1318.3 601.6,1328.8 			"/>
			<polygon class="st0" points="550.9,1325.1 529.4,1310 541.6,1293.4 561.9,1309 			"/>
			<polygon class="st0" points="513.4,1293.8 496,1274.1 511.6,1260.7 527.8,1280.6 			"/>
			<polygon class="st0" points="484.1,1254.6 471.7,1231.4 490,1222.1 501.2,1245.1 			"/>
			<polygon class="st0" points="464.6,1209.8 457.9,1184.4 477.8,1179.4 483.4,1204.5 			"/>
			<polygon class="st0" points="456,1161.7 455.2,1135.4 475.7,1135.2 475.5,1160.8 			"/>
			<polygon class="st0" points="458.6,1112.9 463.9,1087.1 483.9,1091.6 477.7,1116.5 			"/>
			<polygon class="st0" points="472.3,1066 483.4,1042.1 501.9,1051.1 490.1,1073.9 			"/>
			<polygon class="st0" points="496.5,1023.5 512.8,1002.8 528.7,1015.8 512,1035.3 			"/>
			<polygon class="st0" points="529.8,987.7 550.4,971.3 562.9,987.6 542.2,1002.8 			"/>
			<polygon class="st0" points="570.4,960.5 594.2,949.3 602.6,968 579,978 			"/>
			<polygon class="st0" points="616.2,943.4 641.9,937.9 645.8,958.1 620.5,962.4 			"/>
			<polygon class="st0" points="664.7,937.2 691,937.8 690.1,958.4 664.5,956.7 			"/>
			<polygon class="st0" points="713.3,942.4 738.7,949 733.2,968.8 708.7,961.3 			"/>
			<polygon class="st0" points="759.4,958.6 782.7,970.9 772.7,988.9 750.5,976 			"/>
			<polygon class="st0" points="800.6,984.9 820.4,1002.3 806.6,1017.5 788,999.8 			"/>
		</g>
	</g>
	<g>
		<g>
			<path class="st0" d="M623.5,1095.2l0.3,10.3h10.7l0.5,11l0.8,91.3l14.6,10.4l14.7,10.7l73.6,0l0.2-133.3L623.5,1095.2z
				 M658.9,1210.6l-0.3-94.4l17.8,0.1l0.2-10.8l21.4,0.2l-0.3,10.6l19.9,0l0.5,93.8L658.9,1210.6z"/>
		</g>
	</g>
	<polygon class="st0" points="758.9,1097.4 801,1097.6 801.2,1112.1 821.7,1139.4 821.8,1146.5 832.3,1146.5 832.3,1153.4 
		853.4,1190.3 853,1160.6 853.6,1097.6 894.7,1097.8 894.8,1110.9 875.4,1110.8 874.8,1146.4 916.3,1146.4 916.3,1139.7 
		927.2,1139.8 926.7,958 916,957.8 916,950.9 884.8,950.8 885,943.8 1125.7,943.7 1126.5,1006.7 1115.6,1006.7 1115.6,985.9 
		1104.9,974.9 1104.8,964.8 1097.6,959.3 1083.8,957.8 1073.5,950.8 958.2,950.9 958.3,1041.6 1008.5,1041.1 1014.1,1034.4 
		1025.5,1029.9 1031.7,1020.8 1031.7,1006.7 1042.3,1006.7 1041.9,1085.8 1032.3,1085.7 1031.7,1069.1 1024.2,1060.1 1013.8,1055 
		1010.7,1048.7 958.3,1048.8 957.8,1139.5 969.2,1139.6 969.4,1146.4 1010.5,1146.5 1010.7,1153.6 874.1,1153.6 874,1181.3 
		1011.7,1181.2 1011.7,1188.3 969,1188.6 969,1195.5 956,1195.5 958.8,1348.7 973.4,1348.8 973.7,1356 1042.3,1356.1 1042.3,1349.1 
		1052.1,1342.2 1066.4,1341.9 1073.6,1335 1079.8,1329.8 1084.2,1321.1 1084.2,1299.8 1094.6,1300 1094.9,1363 884.6,1363.1 
		884.8,1355.9 916.4,1355.7 916.3,1349.6 929.2,1349.2 927.8,1195.9 916.2,1195.8 916.2,1188.4 874.2,1188.3 873.9,1202.7 
		874,1209.9 873.9,1216.2 895,1216.5 895.4,1222.9 885.2,1230.3 843,1230.3 842.9,1216.4 852.8,1216.4 853.2,1209.2 821.8,1173.9 
		815.5,1170.2 811.5,1167.4 811.4,1160.4 801,1160.6 801,1223.4 800.7,1230.2 790.5,1230.3 758.6,1230.3 758.9,1216.2 769.4,1216.2 
		779.6,1216.2 779.9,1209.3 780.1,1111.7 759,1111.6 	"/>
	<polygon class="st0" points="1010.3,1095.2 1030.8,1095.2 1035.4,1097.5 1042.1,1098.7 1051.3,1098.7 1052,1202.1 1053.2,1205.4 
		1057.5,1207.5 1065.3,1209.3 1075.4,1209.1 1084.8,1207.1 1095.9,1202.3 1101.2,1196.2 1102.2,1191.4 1102.3,1185.2 1103.8,1102.7 
		1110.6,1099.8 1113.5,1095.9 1137.9,1095.7 1138,1098.6 1141,1100.4 1144.5,1102 1144.2,1110 1129.3,1110.1 1128.7,1208.8 
		1136.6,1216.3 1151.6,1218.6 1152.1,1228.4 1118.3,1228.8 1117.2,1222.4 1112.3,1217 1103.8,1214.8 1091.3,1216.1 1087.5,1222.2 
		1082.8,1222.3 1082.6,1225.2 1076.9,1225.2 1076.9,1228.6 1062.8,1228.8 1062.7,1225.2 1057.6,1225.2 1057.4,1221.8 1046.9,1222 
		1046.7,1218.3 1039,1215.3 1032.7,1211.8 1030.8,1206.9 1027.5,1203.7 1026.2,1109.7 1021,1109.7 1016.1,1109.6 1010.3,1109.7 	"/>
	<g>
		<g>
			<g>
				<path class="st0" d="M1152.1,1234v41.9h424.1V1234H1152.1z M1181.3,1266.1c0,1.9-1.6,3.5-3.5,3.5h-17.5c-1.9,0-3.5-1.6-3.5-3.5
					v-18.3c0-1.9,1.6-3.5,3.5-3.5h17.5c1.9,0,3.5,1.6,3.5,3.5V1266.1z M1213.6,1266.1c0,1.9-1.6,3.5-3.5,3.5h-17.5
					c-1.9,0-3.5-1.6-3.5-3.5v-18.3c0-1.9,1.6-3.5,3.5-3.5h17.5c1.9,0,3.5,1.6,3.5,3.5V1266.1z M1245.8,1266.1c0,1.9-1.6,3.5-3.5,3.5
					h-17.5c-1.9,0-3.5-1.6-3.5-3.5v-18.3c0-1.9,1.6-3.5,3.5-3.5h17.5c1.9,0,3.5,1.6,3.5,3.5V1266.1z M1278.1,1266.1
					c0,1.9-1.6,3.5-3.5,3.5h-17.5c-1.9,0-3.5-1.6-3.5-3.5v-18.3c0-1.9,1.6-3.5,3.5-3.5h17.5c1.9,0,3.5,1.6,3.5,3.5V1266.1z
					 M1310.4,1266.1c0,1.9-1.6,3.5-3.5,3.5h-17.5c-1.9,0-3.5-1.6-3.5-3.5v-18.3c0-1.9,1.6-3.5,3.5-3.5h17.5c1.9,0,3.5,1.6,3.5,3.5
					V1266.1z M1342.3,1266.1c0,1.9-1.6,3.5-3.5,3.5h-17.5c-1.9,0-3.5-1.6-3.5-3.5v-18.3c0-1.9,1.6-3.5,3.5-3.5h17.5
					c1.9,0,3.5,1.6,3.5,3.5V1266.1z M1374.1,1266.1c0,1.9-1.6,3.5-3.5,3.5h-17.5c-1.9,0-3.5-1.6-3.5-3.5v-18.3
					c0-1.9,1.6-3.5,3.5-3.5h17.5c1.9,0,3.5,1.6,3.5,3.5V1266.1z M1405.9,1266.1c0,1.9-1.6,3.5-3.5,3.5H1385c-1.9,0-3.5-1.6-3.5-3.5
					v-18.3c0-1.9,1.6-3.5,3.5-3.5h17.5c1.9,0,3.5,1.6,3.5,3.5V1266.1z M1439.1,1266.1c0,1.9-1.6,3.5-3.5,3.5h-17.5
					c-1.9,0-3.5-1.6-3.5-3.5v-18.3c0-1.9,1.6-3.5,3.5-3.5h17.5c1.9,0,3.5,1.6,3.5,3.5V1266.1z M1473.1,1266.1c0,1.9-1.6,3.5-3.5,3.5
					h-17.5c-1.9,0-3.5-1.6-3.5-3.5v-18.3c0-1.9,1.6-3.5,3.5-3.5h17.5c1.9,0,3.5,1.6,3.5,3.5V1266.1z M1505.4,1266.1
					c0,1.9-1.6,3.5-3.5,3.5h-17.5c-1.9,0-3.5-1.6-3.5-3.5v-18.3c0-1.9,1.6-3.5,3.5-3.5h17.5c1.9,0,3.5,1.6,3.5,3.5V1266.1z
					 M1537.1,1266.1c0,1.9-1.6,3.5-3.5,3.5h-17.5c-1.9,0-3.5-1.6-3.5-3.5v-18.3c0-1.9,1.6-3.5,3.5-3.5h17.5c1.9,0,3.5,1.6,3.5,3.5
					V1266.1z M1570,1266.1c0,1.9-1.6,3.5-3.5,3.5h-17.5c-1.9,0-3.5-1.6-3.5-3.5v-18.3c0-1.9,1.6-3.5,3.5-3.5h17.5
					c1.9,0,3.5,1.6,3.5,3.5V1266.1z"/>
			</g>
		</g>
		<g>
			<g>
				<path class="st0" d="M1152.1,1048.1v41.9h424.1v-41.9H1152.1z M1181.3,1080.2c0,1.9-1.6,3.5-3.5,3.5h-17.5
					c-1.9,0-3.5-1.6-3.5-3.5v-18.3c0-1.9,1.6-3.5,3.5-3.5h17.5c1.9,0,3.5,1.6,3.5,3.5V1080.2z M1213.6,1080.2c0,1.9-1.6,3.5-3.5,3.5
					h-17.5c-1.9,0-3.5-1.6-3.5-3.5v-18.3c0-1.9,1.6-3.5,3.5-3.5h17.5c1.9,0,3.5,1.6,3.5,3.5V1080.2z M1245.8,1080.2
					c0,1.9-1.6,3.5-3.5,3.5h-17.5c-1.9,0-3.5-1.6-3.5-3.5v-18.3c0-1.9,1.6-3.5,3.5-3.5h17.5c1.9,0,3.5,1.6,3.5,3.5V1080.2z
					 M1278.1,1080.2c0,1.9-1.6,3.5-3.5,3.5h-17.5c-1.9,0-3.5-1.6-3.5-3.5v-18.3c0-1.9,1.6-3.5,3.5-3.5h17.5c1.9,0,3.5,1.6,3.5,3.5
					V1080.2z M1310.4,1080.2c0,1.9-1.6,3.5-3.5,3.5h-17.5c-1.9,0-3.5-1.6-3.5-3.5v-18.3c0-1.9,1.6-3.5,3.5-3.5h17.5
					c1.9,0,3.5,1.6,3.5,3.5V1080.2z M1342.3,1080.2c0,1.9-1.6,3.5-3.5,3.5h-17.5c-1.9,0-3.5-1.6-3.5-3.5v-18.3
					c0-1.9,1.6-3.5,3.5-3.5h17.5c1.9,0,3.5,1.6,3.5,3.5V1080.2z M1374.1,1080.2c0,1.9-1.6,3.5-3.5,3.5h-17.5c-1.9,0-3.5-1.6-3.5-3.5
					v-18.3c0-1.9,1.6-3.5,3.5-3.5h17.5c1.9,0,3.5,1.6,3.5,3.5V1080.2z M1405.9,1080.2c0,1.9-1.6,3.5-3.5,3.5H1385
					c-1.9,0-3.5-1.6-3.5-3.5v-18.3c0-1.9,1.6-3.5,3.5-3.5h17.5c1.9,0,3.5,1.6,3.5,3.5V1080.2z M1439.1,1080.2c0,1.9-1.6,3.5-3.5,3.5
					h-17.5c-1.9,0-3.5-1.6-3.5-3.5v-18.3c0-1.9,1.6-3.5,3.5-3.5h17.5c1.9,0,3.5,1.6,3.5,3.5V1080.2z M1473.1,1080.2
					c0,1.9-1.6,3.5-3.5,3.5h-17.5c-1.9,0-3.5-1.6-3.5-3.5v-18.3c0-1.9,1.6-3.5,3.5-3.5h17.5c1.9,0,3.5,1.6,3.5,3.5V1080.2z
					 M1505.4,1080.2c0,1.9-1.6,3.5-3.5,3.5h-17.5c-1.9,0-3.5-1.6-3.5-3.5v-18.3c0-1.9,1.6-3.5,3.5-3.5h17.5c1.9,0,3.5,1.6,3.5,3.5
					V1080.2z M1537.1,1080.2c0,1.9-1.6,3.5-3.5,3.5h-17.5c-1.9,0-3.5-1.6-3.5-3.5v-18.3c0-1.9,1.6-3.5,3.5-3.5h17.5
					c1.9,0,3.5,1.6,3.5,3.5V1080.2z M1570,1080.2c0,1.9-1.6,3.5-3.5,3.5h-17.5c-1.9,0-3.5-1.6-3.5-3.5v-18.3c0-1.9,1.6-3.5,3.5-3.5
					h17.5c1.9,0,3.5,1.6,3.5,3.5V1080.2z"/>
			</g>
		</g>
		<polygon class="st0" points="1250.3,1109.2 1250.3,1149.9 1234.2,1149.8 1234.1,1141.2 1242.3,1141.3 1242.1,1117.2 
			1234.1,1117.3 1194.4,1117.3 1194.4,1125.4 1186.5,1125.4 1186.4,1157.5 1218.1,1157.2 1218.3,1141.3 1226.3,1141.5 
			1226.6,1189.9 1218.3,1190 1218,1173.9 1187,1173.9 1186.9,1206 1194.5,1206.1 1194.4,1214.2 1242,1214.1 1242.1,1190.1 
			1234,1190 1234.1,1181.6 1249.9,1181.4 1250,1222.5 1162.6,1222.2 1162.7,1214.2 1170.6,1214.2 1170.4,1205.9 1178.2,1205.8 
			1177.9,1125.4 1170.4,1125.3 1170.4,1117.2 1162.8,1117.2 1162.7,1109.1 		"/>
		<polygon class="st0" points="1556.6,1109.2 1557,1149.9 1540.5,1149.8 1540.4,1141.2 1548.6,1141.3 1548.4,1117.2 1540.4,1117.3 
			1500.7,1117.3 1500.7,1125.4 1492.8,1125.4 1492.7,1157.5 1524.4,1157.2 1524.6,1141.3 1532.6,1141.5 1532.9,1189.9 1524.6,1190 
			1524.3,1173.9 1493.3,1173.9 1493.2,1206 1500.8,1206.1 1500.7,1214.2 1548.3,1214.1 1548.4,1190.1 1540.3,1190 1540.4,1181.6 
			1556.2,1181.4 1556.3,1222.5 1468.9,1222.2 1469,1214.2 1476.8,1214.2 1476.7,1205.9 1484.5,1205.8 1484.2,1125.4 1476.7,1125.3 
			1476.7,1117.2 1469.1,1117.2 1469,1109.1 		"/>
		<g>
			<path class="st0" d="M1449,1181.1l-0.3,41.4h-10.8l0-5.9c0,0-5.6,6.1-23.2,5.9c-13.6,0-30-0.5-36.6-9.6
				c-7.4-10.2-6.3-69.5-1.4-84.6c6.5-20.3,24.3-19.1,34.6-19.1c11.5,0,22.7,2,27.2,7.8c0.9-1,0.8-7.9,0.8-7.9h10.6
				c0,0,0.2,30.4-0.4,42.4c-0.9-0.1-12.7,0.1-12.7,0.1s-0.8-16.3-1.2-18.1c-1.6-10.4-14.6-13.6-24.2-13.6c-7.8,0-16.8-2.3-22.1,12
				c-3.5,9.4-5.1,45-3.5,60.7c1.8,17.6,13.5,19.6,26,19.6c12.8,0,15.6-0.6,21.5-8.3c3.3-4.2,3.5-21.6,3.5-21.6L1449,1181.1z"/>
		</g>
		<path class="st0" d="M1342.7,1210.3l0.9-89.9l12.3,0.1l0-10.9c0-0.1-0.1-0.2-0.1-0.2l-26-0.2l-0.4,53.7l0.3,25.4l-13.4-31.4l0-5.9
			l-6.6,0l-0.1-6l-13-23.3l-0.1-12.3l-26.7-0.2l0,12.1l13.4,0.1l-0.1,83.2l-0.2,5.9l-6.5,0l-6.7,0l-0.2,12h20.2l6.5-0.1l0.2-5.8
			l0-53.5l6.6-0.2l0.1,5.9l2.6,2.4l4,3.2l19.9,30l-0.2,18.2l20.5-0.1l6.4-6.3l-0.2-5.4L1342.7,1210.3z"/>
	</g>
	<g>
		<g>
			<g>
				<defs>
					<polygon id="SVGID_1_" points="1731.7,1002 1731.7,1002 1948.3,1002 1948.3,1091.4 1731.7,1091.4 					"/>
				</defs>
				<use xlink:href="#SVGID_1_"  style="overflow:visible;fill:#F7F7F7;"/>
				<clipPath id="SVGID_2_">
					<use xlink:href="#SVGID_1_"  style="overflow:visible;"/>
				</clipPath>
				<path class="st1" d="M1731.7,1075.3c0,0,67.2-25.8,88.7-33.5c19.6-7,33.2-11.7,55-17.8c10-2.8,65.3-20.2,72.2-21.9
					c6.9-1.7-53.9,22.6-66.8,27.8c-15.5,6.2-43.9,15.8-60.4,20.1C1797.6,1056.1,1731.7,1075.3,1731.7,1075.3z"/>
			</g>
			<g>
				<defs>
					<polygon id="SVGID_3_" points="1731.7,1002 1731.7,1002 1948.3,1002 1948.3,1091.4 1731.7,1091.4 					"/>
				</defs>
				<use xlink:href="#SVGID_3_"  style="overflow:visible;fill:#F7F7F7;"/>
				<clipPath id="SVGID_4_">
					<use xlink:href="#SVGID_3_"  style="overflow:visible;"/>
				</clipPath>
				<path class="st2" d="M1763,1091.4c0,0,27.6-9.4,37.6-13c11.5-4.2,28.5-11.5,39.4-17.1c7.1-3.7,16.4-7.3,22.1-11.1
					c3.6-2.5,15.8-11.1,15.8-11.1s-29.1,10.8-29.5,10.9c-2.6,0.8-32.1,14.6-42.9,19.8L1763,1091.4z"/>
			</g>
		</g>
		<g>
			<g>
				<defs>
					<polygon id="SVGID_5_" points="1731.7,1336.4 1731.7,1336.4 1948.3,1336.4 1948.3,1247.1 1731.7,1247.1 					"/>
				</defs>
				<use xlink:href="#SVGID_5_"  style="overflow:visible;fill:#F7F7F7;"/>
				<clipPath id="SVGID_6_">
					<use xlink:href="#SVGID_5_"  style="overflow:visible;"/>
				</clipPath>
				<path class="st3" d="M1731.7,1263.1c0,0,67.2,25.8,88.7,33.5c19.6,7,33.2,11.7,55,17.8c10,2.8,65.3,20.2,72.2,21.9
					s-53.9-22.6-66.8-27.8c-15.5-6.2-43.9-15.8-60.4-20.1C1797.6,1282.4,1731.7,1263.1,1731.7,1263.1z"/>
			</g>
			<g>
				<defs>
					<polygon id="SVGID_7_" points="1731.7,1336.4 1731.7,1336.4 1948.3,1336.4 1948.3,1247.1 1731.7,1247.1 					"/>
				</defs>
				<use xlink:href="#SVGID_7_"  style="overflow:visible;fill:#F7F7F7;"/>
				<clipPath id="SVGID_8_">
					<use xlink:href="#SVGID_7_"  style="overflow:visible;"/>
				</clipPath>
				<path class="st4" d="M1763,1247.1c0,0,27.6,9.4,37.6,13c11.5,4.2,28.5,11.5,39.4,17.1c7.1,3.7,16.4,7.3,22.1,11.1
					c3.6,2.5,15.8,11.1,15.8,11.1s-29.1-10.8-29.5-10.9c-2.6-0.8-32.1-14.6-42.9-19.8L1763,1247.1z"/>
			</g>
		</g>
	</g>
	<path class="st0" d="M1585.1,1091.6c-0.4,47.7-0.7,97.8-0.7,148.7c4.8-28.2,6-45,6-84C1590.4,1117.3,1585.1,1091.6,1585.1,1091.6z"
		/>
	<path class="st0" d="M1681.8,1118.3c-0.2,32.7-0.4,66.9-0.3,101.8c2.4-19.3,3-30.8,3-57.6S1681.8,1118.3,1681.8,1118.3z"/>
	<g>
		<path class="st0" d="M1687.5,1093.7c22.3-9.1,33.3-5.2,43.2,3.8c7,6.4,12.3,44.4,12.3,70.6c0,34.6-5.2,65.8-9.5,74.4
			c-11.4,22.7-45.7,7.9-45.7,7.9s23.3,0.8,36.2-12.7c11.5-12.1,9.6-116.9-1.7-133.8C1715.6,1093.6,1712.6,1091.6,1687.5,1093.7z"/>
		<path class="st0" d="M1587.4,1057.2c38.6-5.2,69.6-8.2,74-2c11.1,15.7,14.1,211.5,8.1,220.1c-4.2,6.1-38.6,5.9-75.9,2.2
			c55-8.7,54.1,0.7,63.5-17.1c7.1-13.5-0.9-70.5-0.7-107.7c0.1-21.8-5.2-80.7-5.6-81.9C1646.3,1056.6,1600.7,1059.1,1587.4,1057.2z"
			/>
		<path class="st0" d="M1639.8,1042.5c17.5-3.9,23.9-1.4,31.9,5.6c7.1,6.2,6.9,13,5,24.9C1676.7,1053.5,1660.4,1040.5,1639.8,1042.5
			z"/>
	</g>
	<g>
		<path class="st0" d="M1968,1048.5c-0.8,72.1,0.9,266.8,0.9,266.8s4.1-18.7,5.5-25c1.3-6.1,0.8-45.2,0.9-51.4
			c0.4-51.3,4.6-149.5-2.9-210.6c-0.3-2.8-1.7-19.3-1.7-19.3S1968.1,1044.6,1968,1048.5z"/>
		<path class="st0" d="M2003.3,1065.1c-2.6,12.8-3.5,36.6-4.2,51c-0.7,13.9-1.1,42.7-1.6,56.6c-0.5,14-0.9,42-0.2,56
			c0.2,4.1,1.2,12.3,1.7,16.3c0.3,2.3,0.9,9.3,0.9,9.3s4.4-30.9,5.3-41.3c0.7-8.1,1-24.4,1.3-32.6c0.4-10.7,1.2-32,1.3-42.7
			c0.3-22.1-0.5-88.4-0.5-88.4S2003.9,1062.3,2003.3,1065.1z"/>
		<path class="st0" d="M1989.9,1301.3c-1.7,1.7-0.7,4-0.7,4s2.8,1.9,4.8,1.1c2-0.8,2.7-1.9,0.8-4.2
			C1994.7,1302.2,1991.3,1299.8,1989.9,1301.3z"/>
		<polygon class="st0" points="1961.8,1041.3 1965.7,1038.4 1968,1036.9 1971.7,1034.8 1970.3,1037.2 1967,1039.9 1962.8,1042.6 
			1959.5,1044.2 		"/>
		<polygon class="st0" points="1962.2,1049.8 1966.1,1046.9 1968.4,1045.4 1972.1,1043.3 1970.8,1045.8 1967.4,1048.4 
			1963.2,1051.2 1959.9,1052.8 		"/>
		<polygon class="st0" points="1962.8,1061.9 1966.7,1059 1969,1057.5 1972.7,1055.3 1971.4,1057.8 1968,1060.5 1963.8,1063.2 
			1960.5,1064.8 		"/>
		<polygon class="st0" points="1963.4,1073.9 1967.3,1071 1969.6,1069.5 1973.3,1067.4 1972,1069.9 1968.6,1072.5 1964.4,1075.3 
			1961.1,1076.9 		"/>
		<polygon class="st0" points="1962.3,1086.1 1966.2,1083.2 1968.5,1081.7 1972.2,1079.6 1970.9,1082.1 1967.5,1084.7 
			1963.3,1087.5 1960,1089.1 		"/>
		<polygon class="st0" points="1961.3,1098.3 1965.1,1095.4 1967.4,1093.9 1971.1,1091.8 1969.8,1094.3 1966.4,1096.9 
			1962.2,1099.7 1958.9,1101.3 		"/>
		<polygon class="st0" points="1963.5,1110.2 1967.4,1107.3 1969.7,1105.8 1973.4,1103.7 1972.1,1106.2 1968.7,1108.8 
			1964.5,1111.6 1961.2,1113.2 		"/>
		<polygon class="st0" points="1962.4,1122.4 1966.3,1119.5 1968.6,1118 1972.3,1115.9 1971,1118.4 1967.6,1121 1963.4,1123.8 
			1960.1,1125.4 		"/>
		<polygon class="st0" points="1962.7,1148.1 1966.6,1145.2 1968.9,1143.7 1972.6,1141.6 1971.2,1144.1 1967.9,1146.7 
			1963.7,1149.5 1960.4,1151.1 		"/>
		<polygon class="st0" points="1963.3,1161.7 1967.2,1158.8 1969.6,1157.3 1973.2,1155.2 1971.9,1157.6 1968.5,1160.3 1964.3,1163 
			1961,1164.7 		"/>
		<polygon class="st0" points="1964,1175.2 1967.9,1172.3 1970.2,1170.8 1973.9,1168.7 1972.6,1171.2 1969.2,1173.8 1965,1176.6 
			1961.7,1178.2 		"/>
		<polygon class="st0" points="1962.8,1189.8 1966.7,1186.9 1969,1185.4 1972.7,1183.3 1971.3,1185.8 1968,1188.4 1963.8,1191.2 
			1960.5,1192.8 		"/>
		<polygon class="st0" points="1963.4,1202.6 1967.3,1199.8 1969.7,1198.3 1973.3,1196.1 1972,1198.6 1968.6,1201.3 1964.4,1204 
			1961.1,1205.6 		"/>
		<polygon class="st0" points="1963.2,1216.6 1967.1,1213.7 1969.4,1212.3 1973.1,1210.1 1971.8,1212.6 1968.4,1215.2 1964.2,1218 
			1960.9,1219.6 		"/>
		<polygon class="st0" points="1963.9,1230.6 1967.8,1227.7 1970.1,1226.2 1973.8,1224.1 1972.4,1226.5 1969.1,1229.2 
			1964.9,1231.9 1961.6,1233.5 		"/>
		<polygon class="st0" points="1963.6,1240.5 1967.5,1237.6 1969.8,1236.1 1973.5,1234 1972.2,1236.5 1968.8,1239.1 1964.6,1241.9 
			1961.3,1243.5 		"/>
		<polygon class="st0" points="1964.9,1250.4 1968.8,1247.5 1971.1,1246 1974.8,1243.8 1973.4,1246.3 1970.1,1249 1965.9,1251.7 
			1962.6,1253.3 		"/>
		<polygon class="st0" points="1964.8,1263.3 1968.6,1260.4 1970.9,1258.9 1974.6,1256.8 1973.3,1259.3 1969.9,1261.9 
			1965.7,1264.7 1962.4,1266.3 		"/>
		<polygon class="st0" points="1964.8,1263.3 1968.6,1260.4 1970.9,1258.9 1974.6,1256.8 1973.3,1259.3 1969.9,1261.9 
			1965.7,1264.7 1962.4,1266.3 		"/>
		<polygon class="st0" points="1964.7,1276.2 1968.6,1273.3 1970.9,1271.8 1974.6,1269.7 1973.2,1272.2 1969.9,1274.8 
			1965.7,1277.6 1962.3,1279.2 		"/>
		<polygon class="st0" points="1964.3,1289.2 1968.2,1286.3 1970.5,1284.8 1974.2,1282.7 1972.9,1285.2 1969.5,1287.8 
			1965.3,1290.6 1962,1292.2 		"/>
		<polygon class="st0" points="1964.7,1134.4 1968.6,1131.5 1970.9,1130 1974.6,1127.8 1973.3,1130.3 1969.9,1133 1965.7,1135.7 
			1962.4,1137.3 		"/>
		<polygon class="st0" points="1643.2,1076.6 1647.1,1073.7 1649.4,1072.2 1653.1,1070.1 1651.8,1072.6 1648.4,1075.2 1644.2,1078 
			1640.9,1079.6 		"/>
		<polygon class="st0" points="1642.1,1088.8 1646,1085.9 1648.3,1084.4 1652,1082.3 1650.7,1084.8 1647.3,1087.4 1643.1,1090.2 
			1639.8,1091.8 		"/>
		<polygon class="st0" points="1644.4,1099.6 1648.3,1096.7 1650.6,1095.2 1654.3,1093.1 1652.9,1095.6 1649.6,1098.2 1645.4,1101 
			1642.1,1102.6 		"/>
		<polygon class="st0" points="1643.3,1112.9 1647.2,1110 1649.5,1108.5 1653.2,1106.4 1651.9,1108.9 1648.5,1111.5 1644.3,1114.3 
			1641,1115.9 		"/>
		<polygon class="st0" points="1645,1123.5 1648.9,1120.6 1651.2,1119.1 1654.9,1117 1653.6,1119.5 1650.2,1122.1 1646,1124.9 
			1642.7,1126.5 		"/>
		<polygon class="st0" points="1645.2,1150.1 1649.1,1147.2 1651.4,1145.7 1655.1,1143.6 1653.8,1146.1 1650.4,1148.7 
			1646.2,1151.5 1642.9,1153.1 		"/>
		<polygon class="st0" points="1645.9,1163.2 1649.8,1160.3 1652.1,1158.8 1655.8,1156.7 1654.4,1159.2 1651.1,1161.8 
			1646.9,1164.6 1643.6,1166.2 		"/>
		<polygon class="st0" points="1648.2,1175.7 1652.1,1172.8 1654.4,1171.3 1658.1,1169.1 1656.8,1171.6 1653.4,1174.3 1649.2,1177 
			1645.9,1178.6 		"/>
		<polygon class="st0" points="1647.3,1190.2 1651.1,1187.3 1653.5,1185.8 1657.1,1183.7 1655.8,1186.2 1652.4,1188.8 
			1648.3,1191.6 1644.9,1193.2 		"/>
		<polygon class="st0" points="1647.9,1202.8 1651.8,1199.9 1654.1,1198.4 1657.8,1196.3 1656.4,1198.7 1653.1,1201.4 
			1648.9,1204.1 1645.6,1205.7 		"/>
		<polygon class="st0" points="1648.6,1217.4 1652.5,1214.6 1654.8,1213.1 1658.5,1210.9 1657.1,1213.4 1653.8,1216.1 
			1649.6,1218.8 1646.3,1220.4 		"/>
		<polygon class="st0" points="1649.3,1230.8 1653.1,1227.9 1655.4,1226.4 1659.1,1224.3 1657.8,1226.8 1654.4,1229.4 
			1650.2,1232.2 1646.9,1233.8 		"/>
		<polygon class="st0" points="1649.7,1240.5 1653.6,1237.6 1655.9,1236.1 1659.6,1234 1658.3,1236.5 1654.9,1239.1 1650.7,1241.9 
			1647.4,1243.5 		"/>
		<polygon class="st0" points="1649.4,1251.9 1653.3,1249 1655.6,1247.5 1659.3,1245.3 1658,1247.8 1654.6,1250.5 1650.4,1253.2 
			1647.1,1254.8 		"/>
		<polygon class="st0" points="1649.1,1263.8 1652.9,1260.9 1655.3,1259.4 1658.9,1257.3 1657.6,1259.8 1654.3,1262.4 
			1650.1,1265.2 1646.7,1266.8 		"/>
		<polygon class="st0" points="1649.7,1275.7 1653.5,1272.8 1655.9,1271.3 1659.5,1269.2 1658.2,1271.7 1654.8,1274.3 
			1650.7,1277.1 1647.3,1278.7 		"/>
		<polygon class="st0" points="1644.5,1137 1648.4,1134.2 1650.7,1132.7 1654.4,1130.5 1653.1,1133 1649.7,1135.7 1645.5,1138.4 
			1642.2,1140 		"/>
	</g>
	<g>
		<path class="st0" d="M196.5,1095.1c6.9-3.9,116.6,3.5,116.6,3.5l0,4.9c0,0-92.6,2.3-100.9,6.3c-7.2,3.4-3.2,50.8-5.2,69.2
			c-0.6,5.7-1,16.4-1.6,23.1c-0.6,6.1-3.4,28.1-3.4,28.1s-9.3-42-9.9-55.5C191.1,1154.6,190.9,1098.2,196.5,1095.1z"/>
		<path class="st0" d="M209.3,1236.7c0,0,12.1-1.9,16.5-2.7c4.8-0.8,15.2-3.1,20.1-3.9c5.3-0.9,20.7,0.6,25.9,0
			c9.7-1.1,41.8,2.4,41.8,2.4v7.2L209.3,1236.7z"/>
		<path class="st0" d="M66.5,1233.5c4.4-3.2,9.8-5.8,13-7.1c3.8-1.5,10.1-3.9,14.4-5c3.6-0.9,12.8-3.4,15.8-3.8
			c9.5-1.3,23-0.6,31.4,1.3c3.5,0.8,16.4,4,16.4,4s-13.9,6.4-18.4,8.1c-3.8,1.4-15.5,3.4-19.1,4.1c-7,1.4-22.7,2.2-28.7,2.7
			c-8.9,0.8-30.8,2.1-30.8,2.1S66.4,1233.5,66.5,1233.5z"/>
		<path class="st0" d="M52.2,1239.5c0,0,0.9-20.2,1.4-23.9c3.4-22.7,3.1-53.9,0.7-75.4c-1-8.7-2.9-21.9-4.3-25.3
			c-0.8-1.9-2.7-8.4-2.7-8.4s-3.3,14-3.9,18.8c-1.3,10.7-5.1,50.2-2.2,70c0.7,4.9,3.4,20.1,5.8,25.7L52.2,1239.5z"/>
		<path class="st0" d="M67.9,1112.5c3.4,0.9,8.3,3.2,12.1,3.8c4.7,0.7,14.7,2.8,19,3.2c13.7,1.3,27.9,1.8,45,2.2
			c3.9,0.1,23-1.4,23-1.4s-11-2.4-13.9-3.2c-3.4-0.9-8.1-2.6-11.1-3.3c-7.3-1.9-20-4-27.1-4.6c-9.9-0.7-26.6-2.8-36.7-2.6
			c-7.3,0.1-29.6-0.1-29.6-0.1S64.8,1111.7,67.9,1112.5z"/>
		<path class="st0" d="M73.3,1138.1l-2.2,46.3c0,0,3.1-7.1,4.2-9.6c1.1-2.5,1.5-8.6,1.5-10.4c0-6.7,0.7-13.7-0.8-19.4L73.3,1138.1z"
			/>
		<path class="st0" d="M293.7,1141.1l-2.2,46.3c0,0,2.7-6,3.4-8.1c1.5-4.6,1.2-10.1,1.2-11.1c0.4-5.7-0.3-8.9,0.3-17.2L293.7,1141.1
			z"/>
		<path class="st0" d="M99,1074.3c1.3,1.1,7.2,1.5,8.7,1.8c4.8,1,11.2-0.1,13.8-2.3c1.4-1.2-1.4-2.7-2.1-3.6
			c-1.3-1.6-3.1-2.1-5.5-2.6c-3.6-0.7-8.8-0.8-12.5-0.3c-1.6,0.2-5.6,1.2-6.3,2.5C95.1,1069.9,98.1,1073.6,99,1074.3z"/>
		<path class="st0" d="M212.3,1073.6c0,0,16.9-2.4,19.8-2.6c13.4-0.6,24.4-0.3,39.8,0.8c3,0.2,14.9,2.7,14.9,2.7s-13.1,2.1-16.1,2.1
			c-15.8,0-32,1.1-47.3-1.1C219.9,1075.1,212.3,1073.6,212.3,1073.6z"/>
	</g>
	<g>
		<g>
			<g>
				<g>
					<g>
						<polygon class="st0" points="956.5,646 956.3,641.4 956.3,638.8 956.6,634.7 957.9,637.1 958.2,641.2 958.2,646 957.7,649.4 
													"/>
						<polygon class="st0" points="967.8,652.5 967.6,647.9 967.6,645.2 967.9,641.2 969.2,643.6 969.5,647.6 969.5,652.4 
							969,655.9 						"/>
						<polygon class="st0" points="979.5,657.3 979.3,652.7 979.3,650.1 979.6,646 980.9,648.4 981.3,652.5 981.3,657.3 
							980.8,660.7 						"/>
						<polygon class="st0" points="992.3,662 992.1,657.4 992.1,654.8 992.4,650.8 993.7,653.2 994.1,657.2 994,662 993.6,665.5 
													"/>
						<polygon class="st0" points="1001.7,669.4 1001.4,664.8 1001.4,662.2 1001.7,658.1 1003,660.5 1003.4,664.6 1003.4,669.4 
							1002.9,672.8 						"/>
						<polygon class="st0" points="1014,676 1013.7,671.3 1013.7,668.7 1014,664.7 1015.3,667.1 1015.7,671.1 1015.7,675.9 
							1015.2,679.4 						"/>
						<polygon class="st0" points="1026.3,683.3 1026,678.7 1026,676.1 1026.3,672 1027.6,674.4 1028,678.5 1028,683.3 
							1027.5,686.7 						"/>
						<polygon class="st0" points="1035.1,687 1034.9,682.4 1034.9,679.7 1035.2,675.7 1036.5,678.1 1036.8,682.1 1036.8,686.9 
							1036.3,690.4 						"/>
						<polygon class="st0" points="1044.5,693.3 1044.2,688.7 1044.2,686 1044.5,682 1045.8,684.4 1046.2,688.4 1046.2,693.2 
							1045.7,696.7 						"/>
						<polygon class="st0" points="1054.3,701.5 1054,696.9 1054,694.3 1054.3,690.2 1055.6,692.6 1056,696.7 1056,701.5 
							1055.5,704.9 						"/>
					</g>
					<g>
						<polygon class="st0" points="881.5,675 885.4,672.5 887.7,671.2 891.3,669.4 889.9,671.7 886.6,674.1 882.4,676.5 
							879.2,677.8 						"/>
						<polygon class="st0" points="881.6,688 885.5,685.5 887.8,684.2 891.4,682.4 890,684.8 886.7,687.1 882.5,689.5 879.3,690.8 
													"/>
						<polygon class="st0" points="883.4,700.6 887.2,698 889.5,696.8 893.1,695 891.7,697.3 888.4,699.7 884.3,702 881,703.4 
													"/>
						<polygon class="st0" points="885.7,714 889.5,711.5 891.8,710.2 895.4,708.4 894,710.8 890.7,713.1 886.6,715.5 883.3,716.8 
													"/>
						<polygon class="st0" points="884,725.8 887.9,723.3 890.2,722 893.8,720.2 892.4,722.5 889.1,724.8 884.9,727.3 881.7,728.6 
													"/>
						<polygon class="st0" points="884.5,739.7 888.4,737.2 890.7,735.9 894.3,734.1 892.9,736.4 889.6,738.8 885.5,741.2 
							882.2,742.5 						"/>
						<polygon class="st0" points="884.4,754.1 888.2,751.5 890.5,750.2 894.2,748.4 892.8,750.8 889.4,753.1 885.3,755.5 
							882,756.8 						"/>
						<polygon class="st0" points="885.7,763.6 889.5,761 891.8,759.7 895.4,757.9 894,760.3 890.7,762.6 886.6,765 883.3,766.3 
													"/>
						<polygon class="st0" points="884.9,774.8 888.8,772.3 891,771 894.7,769.2 893.3,771.5 890,773.8 885.8,776.3 882.6,777.6 
													"/>
						<polygon class="st0" points="882.8,787.4 886.6,784.9 888.9,783.6 892.5,781.8 891.1,784.1 887.8,786.5 883.7,788.9 
							880.4,790.2 						"/>
					</g>
					<g>
						<polygon class="st0" points="818,623.9 822.1,626.1 824.3,627.5 827.6,629.8 824.9,629.7 821.2,627.9 817.2,625.4 
							814.5,623.1 						"/>
						<polygon class="st0" points="806.6,630.1 810.7,632.3 812.9,633.7 816.2,636.1 813.4,635.9 809.8,634.1 805.7,631.6 
							803,629.3 						"/>
						<polygon class="st0" points="796.3,637.5 800.4,639.8 802.6,641.2 805.9,643.5 803.2,643.4 799.5,641.6 795.5,639 
							792.8,636.8 						"/>
						<polygon class="st0" points="785.5,645.9 789.6,648.1 791.8,649.5 795.1,651.9 792.4,651.8 788.8,649.9 784.7,647.4 
							782,645.2 						"/>
						<polygon class="st0" points="774.4,650 778.5,652.2 780.7,653.6 784,656 781.2,655.8 777.6,654 773.5,651.5 770.8,649.2 
													"/>
						<polygon class="st0" points="762.3,657 766.4,659.2 768.6,660.6 771.9,663 769.2,662.8 765.6,661 761.5,658.5 758.8,656.3 
													"/>
						<polygon class="st0" points="749.6,663.6 753.7,665.8 755.9,667.2 759.2,669.6 756.5,669.5 752.8,667.6 748.8,665.1 
							746.1,662.8 						"/>
						<polygon class="st0" points="741.8,669.2 745.9,671.4 748.1,672.8 751.4,675.2 748.7,675 745.1,673.2 741,670.7 738.3,668.5 
													"/>
						<polygon class="st0" points="731.6,673.8 735.6,676 737.9,677.5 741.2,679.8 738.4,679.7 734.8,677.8 730.7,675.3 728,673.1 
													"/>
						<polygon class="st0" points="719.4,677.9 723.5,680.1 725.7,681.5 729,683.8 726.3,683.7 722.7,681.9 718.6,679.3 
							715.9,677.1 						"/>
					</g>
					<g>
						<polygon class="st0" points="830.3,540 830.5,544.6 830.5,547.3 830.1,551.3 828.8,548.9 828.5,544.8 828.6,540 829.2,536.6 
													"/>
						<polygon class="st0" points="819.1,533.4 819.3,538 819.3,540.6 818.9,544.6 817.6,542.2 817.3,538.2 817.4,533.4 818,529.9 
													"/>
						<polygon class="st0" points="807.5,528.4 807.7,533 807.6,535.6 807.3,539.6 806,537.2 805.7,533.2 805.8,528.4 806.3,524.9 
													"/>
						<polygon class="st0" points="794.8,523.4 795,528 794.9,530.6 794.6,534.7 793.3,532.3 793,528.2 793.1,523.4 793.6,520 
													"/>
						<polygon class="st0" points="785.6,515.9 785.8,520.5 785.7,523.1 785.4,527.2 784.1,524.8 783.8,520.7 783.9,515.9 
							784.4,512.5 						"/>
						<polygon class="st0" points="773.4,509.2 773.6,513.8 773.5,516.4 773.2,520.4 771.9,518 771.6,514 771.7,509.2 772.2,505.7 
													"/>
						<polygon class="st0" points="761.2,501.6 761.4,506.2 761.3,508.9 761,512.9 759.7,510.5 759.4,506.4 759.5,501.6 760,498.2 
													"/>
						<polygon class="st0" points="752.4,497.8 752.6,502.4 752.5,505 752.2,509.1 750.9,506.7 750.6,502.6 750.7,497.8 
							751.2,494.4 						"/>
						<polygon class="st0" points="743.2,491.4 743.4,496 743.3,498.6 743,502.6 741.7,500.2 741.4,496.2 741.5,491.4 742,487.9 
													"/>
						<polygon class="st0" points="733.5,483 733.7,487.6 733.6,490.2 733.3,494.3 732,491.8 731.7,487.8 731.8,483 732.3,479.5 
													"/>
					</g>
					<g>
						<polygon class="st0" points="910.8,504.5 906.9,507 904.6,508.2 900.9,509.9 902.4,507.6 905.8,505.4 910,503 913.2,501.8 
													"/>
						<polygon class="st0" points="911,491.5 907.1,494 904.8,495.2 901.1,496.9 902.6,494.6 906,492.3 910.2,490 913.4,488.8 
													"/>
						<polygon class="st0" points="909.6,478.9 905.7,481.4 903.3,482.6 899.7,484.3 901.1,482 904.5,479.7 908.7,477.4 912,476.2 
													"/>
						<polygon class="st0" points="907.5,465.4 903.6,467.9 901.3,469.1 897.7,470.8 899.1,468.5 902.5,466.2 906.7,463.9 
							910,462.7 						"/>
						<polygon class="st0" points="909.5,453.7 905.6,456.1 903.3,457.4 899.6,459.1 901,456.8 904.4,454.5 908.6,452.2 911.9,451 
													"/>
						<polygon class="st0" points="909.3,439.7 905.4,442.2 903,443.5 899.4,445.2 900.8,442.9 904.2,440.6 908.4,438.3 911.7,437 
													"/>
						<polygon class="st0" points="909.8,425.4 905.8,427.9 903.5,429.1 899.9,430.9 901.3,428.5 904.7,426.3 908.9,424 
							912.2,422.7 						"/>
						<polygon class="st0" points="908.7,415.9 904.8,418.4 902.5,419.6 898.8,421.3 900.3,419 903.6,416.7 907.8,414.4 
							911.1,413.2 						"/>
						<polygon class="st0" points="909.7,404.7 905.8,407.1 903.5,408.4 899.8,410.1 901.3,407.8 904.6,405.5 908.8,403.2 
							912.1,402 						"/>
						<polygon class="st0" points="912.2,392.1 908.2,394.6 905.9,395.8 902.3,397.5 903.7,395.2 907.1,393 911.3,390.6 
							914.6,389.4 						"/>
					</g>
					<g>
						<polygon class="st0" points="977.7,562 973.7,559.8 971.5,558.3 968.2,556 970.9,556.1 974.5,558 978.6,560.5 981.3,562.8 
													"/>
						<polygon class="st0" points="989.2,555.8 985.2,553.6 983,552.2 979.7,549.8 982.4,550 986,551.8 990.1,554.4 992.8,556.6 
													"/>
						<polygon class="st0" points="999.5,548.5 995.5,546.3 993.3,544.8 990,542.5 992.7,542.6 996.3,544.5 1000.4,547 
							1003.1,549.3 						"/>
						<polygon class="st0" points="1010.4,540.2 1006.3,538 1004.1,536.5 1000.8,534.2 1003.5,534.3 1007.2,536.1 1011.2,538.7 
							1013.9,541 						"/>
						<polygon class="st0" points="1021.5,536.2 1017.5,534 1015.3,532.5 1012,530.2 1014.7,530.3 1018.3,532.2 1022.4,534.7 
							1025.1,537 						"/>
						<polygon class="st0" points="1033.6,529.2 1029.6,527 1027.4,525.6 1024.1,523.2 1026.8,523.4 1030.4,525.2 1034.5,527.8 
							1037.2,530 						"/>
						<polygon class="st0" points="1046.4,522.7 1042.3,520.5 1040.1,519.1 1036.8,516.7 1039.6,516.8 1043.2,518.7 1047.3,521.3 
							1049.9,523.5 						"/>
						<polygon class="st0" points="1054.2,517.2 1050.2,514.9 1047.9,513.5 1044.7,511.1 1047.4,511.3 1051,513.1 1055.1,515.7 
							1057.8,518 						"/>
						<polygon class="st0" points="1064.5,512.6 1060.4,510.4 1058.3,509 1055,506.6 1057.7,506.7 1061.3,508.6 1065.4,511.1 
							1068.1,513.4 						"/>
						<polygon class="st0" points="1076.7,508.7 1072.6,506.4 1070.4,505 1067.1,502.6 1069.9,502.8 1073.5,504.6 1077.5,507.2 
							1080.2,509.5 						"/>
					</g>
					<polygon class="st0" points="1064.1,709.7 1063.8,705 1063.8,702.4 1064.1,698.4 1065.4,700.8 1065.8,704.8 1065.8,709.6 
						1065.3,713.1 					"/>
					<polygon class="st0" points="1073.1,714.8 1072.8,710.2 1072.8,707.5 1073.1,703.5 1074.4,705.9 1074.8,709.9 1074.8,714.7 
						1074.3,718.2 					"/>
					<polygon class="st0" points="945.2,639.6 944.9,635 945,632.3 945.2,628.3 946.5,630.7 946.9,634.7 946.9,639.5 946.4,643 
											"/>
					<g>
						<g>
							<path class="st0" d="M896.8,363.4C769.9,363.4,667,466.2,667,593.1s102.8,229.7,229.7,229.7s229.7-102.8,229.7-229.7
								S1023.6,363.4,896.8,363.4z M914.5,391.2c25.1-13.3,141,50.1,138.2,84.9c-0.8,9.8-17.5,18.5-33,27.4
								c-25.9,14.7-50.6,27-64.3,30.2c-15.9,3.6-41.8-13.7-47.2-23c-8.3-14.3-6.2-48.1-5.9-62.5
								C902.6,433.6,898.1,399.9,914.5,391.2z M950.8,616.8c3.8-2.2,8.7-0.9,10.9,2.9s0.9,8.7-2.9,10.9c-3.8,2.2-8.7,0.9-10.9-2.9
								C945.7,623.9,947,619,950.8,616.8z M943.1,556.4c0-4.4,3.6-8,8-8s8,3.6,8,8s-3.6,8-8,8C946.7,564.4,943.1,560.8,943.1,556.4z
								 M940.7,593.1c0,24.3-19.7,44-44,44c-24.3,0-44-19.7-44-44c0-24.3,19.7-44,44-44C921,549.1,940.7,568.8,940.7,593.1z
								 M887.6,525.2c2.2-3.8,7.1-5.1,10.9-2.9c3.8,2.2,5.1,7.1,2.9,10.9c-2.2,3.8-7.1,5.1-10.9,2.9
								C886.7,533.9,885.4,529,887.6,525.2z M873.4,399.6c8.1,5.6,7.3,24.4,7.2,42.3c-0.2,29.8-1.9,57.3-6,70.7
								c-4.8,15.6-32.7,29.3-43.5,29.3c-16.5,0-44.8-18.7-57.1-26.1c-12.5-7.5-43.9-20.4-43.2-39
								C731.8,448.5,844.6,379.8,873.4,399.6z M842.8,622.8c4.4,0,8,3.6,8,8s-3.6,8-8,8s-8-3.6-8-8
								C834.8,626.3,838.4,622.8,842.8,622.8z M830.5,568.4c-2.2-3.8-0.9-8.7,2.9-10.9c3.8-2.2,8.7-0.9,10.9,2.9
								c2.2,3.8,0.9,8.7-2.9,10.9S832.7,572.2,830.5,568.4z M713.1,678.7c-24-15.1-27.1-147.1,4.4-162.2c8.9-4.2,24.8,5.9,40.2,14.9
								c25.7,15,48.7,30.3,58.2,40.6c11.1,12,9,43,3.7,52.4c-8.3,14.3-38.6,29.4-51.2,36.4C755.7,667.8,728.8,688.5,713.1,678.7z
								 M879,794.9c-25.1,13.3-141-50.1-138.2-84.9c0.8-9.8,17.5-18.5,33-27.4c25.9-14.7,50.6-27,64.3-30.2
								c15.9-3.6,41.8,13.7,47.2,23c8.3,14.3,6.2,48.1,5.9,62.5C890.9,752.6,895.4,786.3,879,794.9z M909.4,663.5
								c-2.2,3.8-7.1,5.1-10.9,2.9c-3.8-2.2-5.1-7.1-2.9-10.9c2.2-3.8,7.1-5.1,10.9-2.9C910.3,654.8,911.6,659.7,909.4,663.5z
								 M920.1,786.6c-8.1-5.6-7.3-24.4-7.2-42.3c0.2-29.8,1.9-57.3,6-70.7c4.8-15.6,32.7-29.3,43.5-29.3
								c16.5,0,44.8,18.7,57.1,26.1c12.5,7.5,43.9,20.4,43.2,39C1061.7,737.7,948.8,806.4,920.1,786.6z M1076,669.6
								c-8.9,4.2-24.8-5.9-40.2-14.9c-25.7-15-48.7-30.3-58.2-40.6c-11.1-12-9-43-3.7-52.4c8.3-14.3,38.6-29.4,51.2-36.4
								c12.7-7,39.7-27.8,55.3-18C1104.4,522.6,1107.5,654.6,1076,669.6z"/>
						</g>
					</g>
				</g>
			</g>
		</g>
		<g>
			<path class="st0" d="M707.4,619.4c-2.1-15.2,0.7-62.3,6.3-78.6c-2.7,19.4-3.6,93.7,0.7,110.7
				C710.9,646.2,707.4,619.4,707.4,619.4z"/>
			<path class="st0" d="M916.7,761.7c1.9-27.1,0.7-42.6,3.1-77.9c0,30.1,2.6,54.6-2.7,81.1C916.2,761.9,915.4,759,916.7,761.7z"/>
			<path class="st0" d="M963.8,521.4c25-10.7,38.3-18.8,70.8-32.7c-26.8,13.7-47.4,27.2-73.5,34.5
				C963.4,521.1,965.7,519,963.8,521.4z"/>
			<path class="st0" d="M732.9,522.4c23,14.5,37.2,20.8,67.1,39.8c-26.5-14.3-49.3-23.6-70-41C733,521.9,736,522.6,732.9,522.4z"/>
			<path class="st0" d="M987.3,648.8c15.8,0.6,31.3,7.1,42.8,17.9c-2.9-9.1-10-16.7-18.9-20.2c-8.8-3.5-19.3-2.8-27.6,1.9
				C986.7,649.3,989.8,650.1,987.3,648.8z"/>
			<path class="st0" d="M1085.1,541.7c1.3,15.1,1.2,30.7,0.7,45.7c-0.6,17.2-1.8,33.5-2.6,47.4
				C1093.6,610.2,1092.3,556.3,1085.1,541.7z"/>
			<path class="st0" d="M943.1,400.7c15.2,11.2,69.7,39.6,85.4,47.8C1015.1,436.3,969.3,406.4,943.1,400.7z"/>
			<path class="st0" d="M746.9,468.7c28.4-22.5,70.7-46.4,105.2-58.5c-31.4,4.4-32.8,7-54.2,18.1C779,438.1,759.6,451.5,746.9,468.7
				z"/>
			<path class="st0" d="M865.7,406.3c-0.2,3.1,1.4,5.5,4.7,4.1s3.5-2.5,0.8-4.5C868.6,404,868.9,404.9,865.7,406.3z"/>
			<path class="st0" d="M845.3,780c-27.7-16.5-68.3-43.1-90.6-58.7C754.7,721.4,815.2,775.9,845.3,780z"/>
			<path class="st0" d="M856.1,785.6c0.4,3.3,2.4,4,4.9,2.4c2.5-1.6,2.2-2.3-0.4-4.2C858.2,781.9,855.7,782.3,856.1,785.6z"/>
			<path class="st0" d="M816.3,604.2c-0.3,2-2.5,5.2-2.8,7.2c4.7-0.9,5.1-5.5,4.9-12.4C816.6,600.5,816.7,600.8,816.3,604.2z"/>
			<path class="st0" d="M788,534.6c-2.7-1-4.5,3.8-2.2,5.4s5.8,0,7.1-2.5s1-5.6,0.7-8.4C791.2,530.2,788.8,531.3,788,534.6z"/>
			<path class="st0" d="M707.4,619.4c-2.1-15.2,0.7-62.3,6.3-78.6c-2.7,19.4-3.6,93.7,0.7,110.7
				C710.9,646.2,707.4,619.4,707.4,619.4z"/>
			<path class="st0" d="M916.7,761.7c1.9-27.1,0.7-42.6,3.1-77.9c0,30.1,2.6,54.6-2.7,81.1C916.2,761.9,915.4,759,916.7,761.7z"/>
			<path class="st0" d="M963.8,521.4c25-10.7,38.3-18.8,70.8-32.7c-26.8,13.7-47.4,27.2-73.5,34.5
				C963.4,521.1,965.7,519,963.8,521.4z"/>
			<path class="st0" d="M732.9,522.4c23,14.5,37.2,20.8,67.1,39.8c-26.5-14.3-49.3-23.6-70-41C733,521.9,736,522.6,732.9,522.4z"/>
			<path class="st0" d="M987.3,648.8c15.8,0.6,31.3,7.1,42.8,17.9c-2.9-9.1-10-16.7-18.9-20.2c-8.8-3.5-19.3-2.8-27.6,1.9
				C986.7,649.3,989.8,650.1,987.3,648.8z"/>
			<path class="st0" d="M1085.1,541.7c1.3,15.1,1.2,30.7,0.7,45.7c-0.6,17.2-1.8,33.5-2.6,47.4
				C1093.6,610.2,1092.3,556.3,1085.1,541.7z"/>
			<path class="st0" d="M943.1,400.7c15.2,11.2,69.7,39.6,85.4,47.8C1015.1,436.3,969.3,406.4,943.1,400.7z"/>
			<path class="st0" d="M746.9,468.7c28.4-22.5,70.7-46.4,105.2-58.5c-31.4,4.4-32.8,7-54.2,18.1C779,438.1,759.6,451.5,746.9,468.7
				z"/>
			<path class="st0" d="M865.7,406.3c-0.2,3.1,1.4,5.5,4.7,4.1s3.5-2.5,0.8-4.5C868.6,404,868.9,404.9,865.7,406.3z"/>
			<path class="st0" d="M845.3,780c-27.7-16.5-68.3-43.1-90.6-58.7C754.7,721.4,815.2,775.9,845.3,780z"/>
			<path class="st0" d="M856.1,785.6c0.4,3.3,2.4,4,4.9,2.4c2.5-1.6,2.2-2.3-0.4-4.2C858.2,781.9,855.7,782.3,856.1,785.6z"/>
			<path class="st0" d="M816.3,604.2c-0.3,2-2.5,5.2-2.8,7.2c4.7-0.9,5.1-5.5,4.9-12.4C816.6,600.5,816.7,600.8,816.3,604.2z"/>
			<path class="st0" d="M788,534.6c-2.7-1-4.5,3.8-2.2,5.4s5.8,0,7.1-2.5s1-5.6,0.7-8.4C791.2,530.2,788.8,531.3,788,534.6z"/>
			<path class="st0" d="M707.4,619.4c-2.1-15.2,0.7-62.3,6.3-78.6c-2.7,19.4-3.6,93.7,0.7,110.7
				C710.9,646.2,707.4,619.4,707.4,619.4z"/>
			<path class="st0" d="M916.7,761.7c1.9-27.1,0.7-42.6,3.1-77.9c0,30.1,2.6,54.6-2.7,81.1C916.2,761.9,915.4,759,916.7,761.7z"/>
			<path class="st0" d="M963.8,521.4c25-10.7,38.3-18.8,70.8-32.7c-26.8,13.7-47.4,27.2-73.5,34.5
				C963.4,521.1,965.7,519,963.8,521.4z"/>
			<path class="st0" d="M732.9,522.4c23,14.5,37.2,20.8,67.1,39.8c-26.5-14.3-49.3-23.6-70-41C733,521.9,736,522.6,732.9,522.4z"/>
			<path class="st0" d="M987.3,648.8c15.8,0.6,31.3,7.1,42.8,17.9c-2.9-9.1-10-16.7-18.9-20.2c-8.8-3.5-19.3-2.8-27.6,1.9
				C986.7,649.3,989.8,650.1,987.3,648.8z"/>
			<path class="st0" d="M1085.1,541.7c1.3,15.1,1.2,30.7,0.7,45.7c-0.6,17.2-1.8,33.5-2.6,47.4
				C1093.6,610.2,1092.3,556.3,1085.1,541.7z"/>
			<path class="st0" d="M943.1,400.7c15.2,11.2,69.7,39.6,85.4,47.8C1015.1,436.3,969.3,406.4,943.1,400.7z"/>
			<path class="st0" d="M746.9,468.7c28.4-22.5,70.7-46.4,105.2-58.5c-31.4,4.4-32.8,7-54.2,18.1C779,438.1,759.6,451.5,746.9,468.7
				z"/>
			<path class="st0" d="M865.7,406.3c-0.2,3.1,1.4,5.5,4.7,4.1s3.5-2.5,0.8-4.5C868.6,404,868.9,404.9,865.7,406.3z"/>
			<path class="st0" d="M845.3,780c-27.7-16.5-68.3-43.1-90.6-58.7C754.7,721.4,815.2,775.9,845.3,780z"/>
			<path class="st0" d="M856.1,785.6c0.4,3.3,2.4,4,4.9,2.4c2.5-1.6,2.2-2.3-0.4-4.2C858.2,781.9,855.7,782.3,856.1,785.6z"/>
			<path class="st0" d="M816.3,604.2c-0.3,2-2.5,5.2-2.8,7.2c4.7-0.9,5.1-5.5,4.9-12.4C816.6,600.5,816.7,600.8,816.3,604.2z"/>
			<path class="st0" d="M788,534.6c-2.7-1-4.5,3.8-2.2,5.4s5.8,0,7.1-2.5s1-5.6,0.7-8.4C791.2,530.2,788.8,531.3,788,534.6z"/>
		</g>
		<g>
			<g>
				<g>
					<g>
						<polygon class="st0" points="956.5,646 956.3,641.4 956.3,638.8 956.6,634.7 957.9,637.1 958.2,641.2 958.2,646 957.7,649.4 
													"/>
						<polygon class="st0" points="967.8,652.5 967.6,647.9 967.6,645.2 967.9,641.2 969.2,643.6 969.5,647.6 969.5,652.4 
							969,655.9 						"/>
						<polygon class="st0" points="979.5,657.3 979.3,652.7 979.3,650.1 979.6,646 980.9,648.4 981.3,652.5 981.3,657.3 
							980.8,660.7 						"/>
						<polygon class="st0" points="992.3,662 992.1,657.4 992.1,654.8 992.4,650.8 993.7,653.2 994.1,657.2 994,662 993.6,665.5 
													"/>
						<polygon class="st0" points="1001.7,669.4 1001.4,664.8 1001.4,662.2 1001.7,658.1 1003,660.5 1003.4,664.6 1003.4,669.4 
							1002.9,672.8 						"/>
						<polygon class="st0" points="1014,676 1013.7,671.3 1013.7,668.7 1014,664.7 1015.3,667.1 1015.7,671.1 1015.7,675.9 
							1015.2,679.4 						"/>
						<polygon class="st0" points="1026.3,683.3 1026,678.7 1026,676.1 1026.3,672 1027.6,674.4 1028,678.5 1028,683.3 
							1027.5,686.7 						"/>
						<polygon class="st0" points="1035.1,687 1034.9,682.4 1034.9,679.7 1035.2,675.7 1036.5,678.1 1036.8,682.1 1036.8,686.9 
							1036.3,690.4 						"/>
						<polygon class="st0" points="1044.5,693.3 1044.2,688.7 1044.2,686 1044.5,682 1045.8,684.4 1046.2,688.4 1046.2,693.2 
							1045.7,696.7 						"/>
						<polygon class="st0" points="1054.3,701.5 1054,696.9 1054,694.3 1054.3,690.2 1055.6,692.6 1056,696.7 1056,701.5 
							1055.5,704.9 						"/>
					</g>
					<g>
						<polygon class="st0" points="881.5,675 885.4,672.5 887.7,671.2 891.3,669.4 889.9,671.7 886.6,674.1 882.4,676.5 
							879.2,677.8 						"/>
						<polygon class="st0" points="881.6,688 885.5,685.5 887.8,684.2 891.4,682.4 890,684.8 886.7,687.1 882.5,689.5 879.3,690.8 
													"/>
						<polygon class="st0" points="883.4,700.6 887.2,698 889.5,696.8 893.1,695 891.7,697.3 888.4,699.7 884.3,702 881,703.4 
													"/>
						<polygon class="st0" points="885.7,714 889.5,711.5 891.8,710.2 895.4,708.4 894,710.8 890.7,713.1 886.6,715.5 883.3,716.8 
													"/>
						<polygon class="st0" points="884,725.8 887.9,723.3 890.2,722 893.8,720.2 892.4,722.5 889.1,724.8 884.9,727.3 881.7,728.6 
													"/>
						<polygon class="st0" points="884.5,739.7 888.4,737.2 890.7,735.9 894.3,734.1 892.9,736.4 889.6,738.8 885.5,741.2 
							882.2,742.5 						"/>
						<polygon class="st0" points="884.4,754.1 888.2,751.5 890.5,750.2 894.2,748.4 892.8,750.8 889.4,753.1 885.3,755.5 
							882,756.8 						"/>
						<polygon class="st0" points="885.7,763.6 889.5,761 891.8,759.7 895.4,757.9 894,760.3 890.7,762.6 886.6,765 883.3,766.3 
													"/>
						<polygon class="st0" points="884.9,774.8 888.8,772.3 891,771 894.7,769.2 893.3,771.5 890,773.8 885.8,776.3 882.6,777.6 
													"/>
						<polygon class="st0" points="882.8,787.4 886.6,784.9 888.9,783.6 892.5,781.8 891.1,784.1 887.8,786.5 883.7,788.9 
							880.4,790.2 						"/>
					</g>
					<g>
						<polygon class="st0" points="818,623.9 822.1,626.1 824.3,627.5 827.6,629.8 824.9,629.7 821.2,627.9 817.2,625.4 
							814.5,623.1 						"/>
						<polygon class="st0" points="806.6,630.1 810.7,632.3 812.9,633.7 816.2,636.1 813.4,635.9 809.8,634.1 805.7,631.6 
							803,629.3 						"/>
						<polygon class="st0" points="796.3,637.5 800.4,639.8 802.6,641.2 805.9,643.5 803.2,643.4 799.5,641.6 795.5,639 
							792.8,636.8 						"/>
						<polygon class="st0" points="785.5,645.9 789.6,648.1 791.8,649.5 795.1,651.9 792.4,651.8 788.8,649.9 784.7,647.4 
							782,645.2 						"/>
						<polygon class="st0" points="774.4,650 778.5,652.2 780.7,653.6 784,656 781.2,655.8 777.6,654 773.5,651.5 770.8,649.2 
													"/>
						<polygon class="st0" points="762.3,657 766.4,659.2 768.6,660.6 771.9,663 769.2,662.8 765.6,661 761.5,658.5 758.8,656.3 
													"/>
						<polygon class="st0" points="749.6,663.6 753.7,665.8 755.9,667.2 759.2,669.6 756.5,669.5 752.8,667.6 748.8,665.1 
							746.1,662.8 						"/>
						<polygon class="st0" points="741.8,669.2 745.9,671.4 748.1,672.8 751.4,675.2 748.7,675 745.1,673.2 741,670.7 738.3,668.5 
													"/>
						<polygon class="st0" points="731.6,673.8 735.6,676 737.9,677.5 741.2,679.8 738.4,679.7 734.8,677.8 730.7,675.3 728,673.1 
													"/>
						<polygon class="st0" points="719.4,677.9 723.5,680.1 725.7,681.5 729,683.8 726.3,683.7 722.7,681.9 718.6,679.3 
							715.9,677.1 						"/>
					</g>
					<g>
						<polygon class="st0" points="830.3,540 830.5,544.6 830.5,547.3 830.1,551.3 828.8,548.9 828.5,544.8 828.6,540 829.2,536.6 
													"/>
						<polygon class="st0" points="819.1,533.4 819.3,538 819.3,540.6 818.9,544.6 817.6,542.2 817.3,538.2 817.4,533.4 818,529.9 
													"/>
						<polygon class="st0" points="807.5,528.4 807.7,533 807.6,535.6 807.3,539.6 806,537.2 805.7,533.2 805.8,528.4 806.3,524.9 
													"/>
						<polygon class="st0" points="794.8,523.4 795,528 794.9,530.6 794.6,534.7 793.3,532.3 793,528.2 793.1,523.4 793.6,520 
													"/>
						<polygon class="st0" points="785.6,515.9 785.8,520.5 785.7,523.1 785.4,527.2 784.1,524.8 783.8,520.7 783.9,515.9 
							784.4,512.5 						"/>
						<polygon class="st0" points="773.4,509.2 773.6,513.8 773.5,516.4 773.2,520.4 771.9,518 771.6,514 771.7,509.2 772.2,505.7 
													"/>
						<polygon class="st0" points="761.2,501.6 761.4,506.2 761.3,508.9 761,512.9 759.7,510.5 759.4,506.4 759.5,501.6 760,498.2 
													"/>
						<polygon class="st0" points="752.4,497.8 752.6,502.4 752.5,505 752.2,509.1 750.9,506.7 750.6,502.6 750.7,497.8 
							751.2,494.4 						"/>
						<polygon class="st0" points="743.2,491.4 743.4,496 743.3,498.6 743,502.6 741.7,500.2 741.4,496.2 741.5,491.4 742,487.9 
													"/>
						<polygon class="st0" points="733.5,483 733.7,487.6 733.6,490.2 733.3,494.3 732,491.8 731.7,487.8 731.8,483 732.3,479.5 
													"/>
					</g>
					<g>
						<polygon class="st0" points="910.8,504.5 906.9,507 904.6,508.2 900.9,509.9 902.4,507.6 905.8,505.4 910,503 913.2,501.8 
													"/>
						<polygon class="st0" points="911,491.5 907.1,494 904.8,495.2 901.1,496.9 902.6,494.6 906,492.3 910.2,490 913.4,488.8 
													"/>
						<polygon class="st0" points="909.6,478.9 905.7,481.4 903.3,482.6 899.7,484.3 901.1,482 904.5,479.7 908.7,477.4 912,476.2 
													"/>
						<polygon class="st0" points="907.5,465.4 903.6,467.9 901.3,469.1 897.7,470.8 899.1,468.5 902.5,466.2 906.7,463.9 
							910,462.7 						"/>
						<polygon class="st0" points="909.5,453.7 905.6,456.1 903.3,457.4 899.6,459.1 901,456.8 904.4,454.5 908.6,452.2 911.9,451 
													"/>
						<polygon class="st0" points="909.3,439.7 905.4,442.2 903,443.5 899.4,445.2 900.8,442.9 904.2,440.6 908.4,438.3 911.7,437 
													"/>
						<polygon class="st0" points="909.8,425.4 905.8,427.9 903.5,429.1 899.9,430.9 901.3,428.5 904.7,426.3 908.9,424 
							912.2,422.7 						"/>
						<polygon class="st0" points="908.7,415.9 904.8,418.4 902.5,419.6 898.8,421.3 900.3,419 903.6,416.7 907.8,414.4 
							911.1,413.2 						"/>
						<polygon class="st0" points="909.7,404.7 905.8,407.1 903.5,408.4 899.8,410.1 901.3,407.8 904.6,405.5 908.8,403.2 
							912.1,402 						"/>
						<polygon class="st0" points="912.2,392.1 908.2,394.6 905.9,395.8 902.3,397.5 903.7,395.2 907.1,393 911.3,390.6 
							914.6,389.4 						"/>
					</g>
					<g>
						<polygon class="st0" points="977.7,562 973.7,559.8 971.5,558.3 968.2,556 970.9,556.1 974.5,558 978.6,560.5 981.3,562.8 
													"/>
						<polygon class="st0" points="989.2,555.8 985.2,553.6 983,552.2 979.7,549.8 982.4,550 986,551.8 990.1,554.4 992.8,556.6 
													"/>
						<polygon class="st0" points="999.5,548.5 995.5,546.3 993.3,544.8 990,542.5 992.7,542.6 996.3,544.5 1000.4,547 
							1003.1,549.3 						"/>
						<polygon class="st0" points="1010.4,540.2 1006.3,538 1004.1,536.5 1000.8,534.2 1003.5,534.3 1007.2,536.1 1011.2,538.7 
							1013.9,541 						"/>
						<polygon class="st0" points="1021.5,536.2 1017.5,534 1015.3,532.5 1012,530.2 1014.7,530.3 1018.3,532.2 1022.4,534.7 
							1025.1,537 						"/>
						<polygon class="st0" points="1033.6,529.2 1029.6,527 1027.4,525.6 1024.1,523.2 1026.8,523.4 1030.4,525.2 1034.5,527.8 
							1037.2,530 						"/>
						<polygon class="st0" points="1046.4,522.7 1042.3,520.5 1040.1,519.1 1036.8,516.7 1039.6,516.8 1043.2,518.7 1047.3,521.3 
							1049.9,523.5 						"/>
						<polygon class="st0" points="1054.2,517.2 1050.2,514.9 1047.9,513.5 1044.7,511.1 1047.4,511.3 1051,513.1 1055.1,515.7 
							1057.8,518 						"/>
						<polygon class="st0" points="1064.5,512.6 1060.4,510.4 1058.3,509 1055,506.6 1057.7,506.7 1061.3,508.6 1065.4,511.1 
							1068.1,513.4 						"/>
						<polygon class="st0" points="1076.7,508.7 1072.6,506.4 1070.4,505 1067.1,502.6 1069.9,502.8 1073.5,504.6 1077.5,507.2 
							1080.2,509.5 						"/>
					</g>
					<polygon class="st0" points="1064.1,709.7 1063.8,705 1063.8,702.4 1064.1,698.4 1065.4,700.8 1065.8,704.8 1065.8,709.6 
						1065.3,713.1 					"/>
					<polygon class="st0" points="1073.1,714.8 1072.8,710.2 1072.8,707.5 1073.1,703.5 1074.4,705.9 1074.8,709.9 1074.8,714.7 
						1074.3,718.2 					"/>
					<polygon class="st0" points="945.2,639.6 944.9,635 945,632.3 945.2,628.3 946.5,630.7 946.9,634.7 946.9,639.5 946.4,643 
											"/>
				</g>
			</g>
		</g>
		<g>
			<path class="st0" d="M707.4,619.4c-2.1-15.2,0.7-62.3,6.3-78.6c-2.7,19.4-3.6,93.7,0.7,110.7
				C710.9,646.2,707.4,619.4,707.4,619.4z"/>
			<path class="st0" d="M916.7,761.7c1.9-27.1,0.7-42.6,3.1-77.9c0,30.1,2.6,54.6-2.7,81.1C916.2,761.9,915.4,759,916.7,761.7z"/>
			<path class="st0" d="M963.8,521.4c25-10.7,38.3-18.8,70.8-32.7c-26.8,13.7-47.4,27.2-73.5,34.5
				C963.4,521.1,965.7,519,963.8,521.4z"/>
			<path class="st0" d="M732.9,522.4c23,14.5,37.2,20.8,67.1,39.8c-26.5-14.3-49.3-23.6-70-41C733,521.9,736,522.6,732.9,522.4z"/>
			<path class="st0" d="M987.3,648.8c15.8,0.6,31.3,7.1,42.8,17.9c-2.9-9.1-10-16.7-18.9-20.2c-8.8-3.5-19.3-2.8-27.6,1.9
				C986.7,649.3,989.8,650.1,987.3,648.8z"/>
			<path class="st0" d="M1085.1,541.7c1.3,15.1,1.2,30.7,0.7,45.7c-0.6,17.2-1.8,33.5-2.6,47.4
				C1093.6,610.2,1092.3,556.3,1085.1,541.7z"/>
			<path class="st0" d="M943.1,400.7c15.2,11.2,69.7,39.6,85.4,47.8C1015.1,436.3,969.3,406.4,943.1,400.7z"/>
			<path class="st0" d="M746.9,468.7c28.4-22.5,70.7-46.4,105.2-58.5c-31.4,4.4-32.8,7-54.2,18.1C779,438.1,759.6,451.5,746.9,468.7
				z"/>
			<path class="st0" d="M865.7,406.3c-0.2,3.1,1.4,5.5,4.7,4.1s3.5-2.5,0.8-4.5C868.6,404,868.9,404.9,865.7,406.3z"/>
			<path class="st0" d="M845.3,780c-27.7-16.5-68.3-43.1-90.6-58.7C754.7,721.4,815.2,775.9,845.3,780z"/>
			<path class="st0" d="M856.1,785.6c0.4,3.3,2.4,4,4.9,2.4c2.5-1.6,2.2-2.3-0.4-4.2C858.2,781.9,855.7,782.3,856.1,785.6z"/>
			<path class="st0" d="M816.3,604.2c-0.3,2-2.5,5.2-2.8,7.2c4.7-0.9,5.1-5.5,4.9-12.4C816.6,600.5,816.7,600.8,816.3,604.2z"/>
			<path class="st0" d="M788,534.6c-2.7-1-4.5,3.8-2.2,5.4s5.8,0,7.1-2.5s1-5.6,0.7-8.4C791.2,530.2,788.8,531.3,788,534.6z"/>
		</g>
		<g>
			<path class="st0" d="M1087,443.8c-16.9-43.8-80.1-70.3-122.4-84.9c0,0,52.1,22.4,75.7,39.3C1058.5,411.1,1087,443.8,1087,443.8z"
				/>
			<path class="st0" d="M1095,454c-3.7,1.8,1.7,5.6,2.9,1.7C1097.9,455.7,1095,450.2,1095,454z"/>
			<path class="st0" d="M662.7,510.4c-10.3,26.6-19.4,57.4-18.7,85.7c0.8,30.6,4.9,64.5,13.3,94.2c0,0-6.9-92.4-6.9-104.3
				C650.5,570.3,662.7,510.4,662.7,510.4z"/>
			<path class="st0" d="M661,486.5c-1.9-1.9,0.9-5.8,3.3-4.5S664,489.4,661,486.5z"/>
			<path class="st0" d="M706.4,750.6c7.3,14.2,17.8,26.8,30.4,36.7c14.6,11.5,31.9,19.4,50.3,22.2c0,0-31.9-11.9-50.7-26.9
				C719.7,769.4,706.4,750.6,706.4,750.6z"/>
			<path class="st0" d="M683.8,723.6c1.7,3.5,2.5,2.1,4.3,5.6c3-1,4-1.1,2-3.5C688.1,723.2,684.9,724.3,683.8,723.6z"/>
		</g>
	</g>
	<g>
		<g>
			<g>
				<g>
					<g>
						<polygon class="st0" points="1442.9,808.9 1442.6,804 1442.7,801.2 1442.9,796.9 1444.4,799.4 1444.7,803.7 1444.7,808.9 
							1444.2,812.6 						"/>
						<polygon class="st0" points="1455,815.8 1454.7,810.9 1454.7,808.1 1455,803.8 1456.4,806.3 1456.8,810.6 1456.8,815.8 
							1456.3,819.5 						"/>
						<polygon class="st0" points="1467.5,821 1467.2,816 1467.2,813.2 1467.5,808.9 1468.9,811.5 1469.3,815.8 1469.3,820.9 
							1468.8,824.6 						"/>
						<polygon class="st0" points="1481.1,826 1480.8,821.1 1480.9,818.3 1481.2,814 1482.6,816.5 1483,820.9 1482.9,826 
							1482.4,829.7 						"/>
						<polygon class="st0" points="1491.1,833.9 1490.8,829 1490.8,826.2 1491.1,821.8 1492.5,824.4 1492.9,828.7 1492.9,833.8 
							1492.4,837.5 						"/>
						<polygon class="st0" points="1504.2,840.9 1503.9,835.9 1504,833.1 1504.3,828.8 1505.7,831.4 1506.1,835.7 1506,840.8 
							1505.5,844.5 						"/>
						<polygon class="st0" points="1517.3,848.7 1517.1,843.8 1517.1,841 1517.4,836.7 1518.8,839.2 1519.2,843.5 1519.2,848.7 
							1518.7,852.4 						"/>
						<polygon class="st0" points="1526.8,852.6 1526.5,847.7 1526.6,844.9 1526.8,840.6 1528.3,843.2 1528.6,847.5 1528.6,852.6 
							1528.1,856.3 						"/>
						<polygon class="st0" points="1536.8,859.4 1536.5,854.4 1536.5,851.6 1536.8,847.3 1538.2,849.9 1538.6,854.2 1538.6,859.3 
							1538.1,863 						"/>
						<polygon class="st0" points="1547.2,868.1 1546.9,863.2 1547,860.4 1547.3,856.1 1548.7,858.7 1549.1,863 1549.1,868.1 
							1548.5,871.8 						"/>
					</g>
					<g>
						<polygon class="st0" points="1362.9,839.9 1367,837.2 1369.4,835.8 1373.3,833.8 1371.8,836.4 1368.3,838.9 1363.8,841.4 
							1360.4,842.8 						"/>
						<polygon class="st0" points="1363,853.8 1367.1,851 1369.5,849.7 1373.4,847.7 1371.9,850.3 1368.4,852.8 1363.9,855.3 
							1360.5,856.7 						"/>
						<polygon class="st0" points="1364.8,867.2 1368.9,864.4 1371.4,863.1 1375.2,861.1 1373.8,863.7 1370.2,866.2 1365.8,868.7 
							1362.3,870.1 						"/>
						<polygon class="st0" points="1367.3,881.5 1371.4,878.8 1373.8,877.4 1377.7,875.5 1376.2,878 1372.7,880.5 1368.3,883.1 
							1364.8,884.5 						"/>
						<polygon class="st0" points="1365.5,894.1 1369.6,891.3 1372.1,890 1375.9,888 1374.4,890.5 1370.9,893 1366.5,895.6 
							1363,897 						"/>
						<polygon class="st0" points="1366.1,908.9 1370.2,906.2 1372.7,904.8 1376.5,902.9 1375,905.4 1371.5,907.9 1367.1,910.5 
							1363.6,911.9 						"/>
						<polygon class="st0" points="1365.9,924.2 1370,921.5 1372.5,920.1 1376.3,918.2 1374.8,920.7 1371.3,923.2 1366.9,925.8 
							1363.4,927.2 						"/>
						<polygon class="st0" points="1367.3,934.4 1371.4,931.7 1373.8,930.3 1377.7,928.3 1376.2,930.9 1372.7,933.4 1368.2,935.9 
							1364.8,937.3 						"/>
						<polygon class="st0" points="1366.5,946.4 1370.6,943.6 1373,942.3 1376.9,940.3 1375.4,942.8 1371.9,945.3 1367.4,947.9 
							1364,949.3 						"/>
						<polygon class="st0" points="1364.2,959.8 1368.3,957.1 1370.7,955.7 1374.6,953.8 1373.1,956.3 1369.6,958.8 1365.1,961.4 
							1361.7,962.8 						"/>
					</g>
					<g>
						<polygon class="st0" points="1295.1,785.3 1299.4,787.7 1301.8,789.2 1305.3,791.7 1302.4,791.5 1298.5,789.6 1294.2,786.9 
							1291.3,784.5 						"/>
						<polygon class="st0" points="1282.9,791.9 1287.2,794.3 1289.6,795.8 1293.1,798.3 1290.2,798.2 1286.3,796.2 1282,793.5 
							1279.1,791.1 						"/>
						<polygon class="st0" points="1271.9,799.9 1276.3,802.2 1278.6,803.7 1282.2,806.2 1279.2,806.1 1275.4,804.2 1271,801.5 
							1268.1,799.1 						"/>
						<polygon class="st0" points="1260.4,808.8 1264.8,811.2 1267.1,812.7 1270.7,815.2 1267.7,815 1263.9,813.1 1259.5,810.4 
							1256.6,808 						"/>
						<polygon class="st0" points="1248.5,813.2 1252.9,815.5 1255.2,817 1258.8,819.5 1255.8,819.4 1252,817.4 1247.6,814.7 
							1244.7,812.3 						"/>
						<polygon class="st0" points="1235.7,820.7 1240,823 1242.4,824.5 1245.9,827 1243,826.9 1239.1,824.9 1234.8,822.2 
							1231.9,819.8 						"/>
						<polygon class="st0" points="1222.1,827.7 1226.4,830 1228.8,831.5 1232.3,834.1 1229.4,833.9 1225.5,832 1221.2,829.3 
							1218.3,826.9 						"/>
						<polygon class="st0" points="1213.8,833.7 1218.1,836 1220.5,837.5 1224,840 1221.1,839.9 1217.2,838 1212.9,835.3 
							1210,832.9 						"/>
						<polygon class="st0" points="1202.8,838.6 1207.2,841 1209.5,842.5 1213.1,845 1210.1,844.8 1206.3,842.9 1201.9,840.2 
							1199,837.8 						"/>
						<polygon class="st0" points="1189.9,842.9 1194.2,845.3 1196.6,846.8 1200.1,849.3 1197.2,849.1 1193.3,847.2 1189,844.5 
							1186.1,842.1 						"/>
					</g>
					<g>
						<polygon class="st0" points="1308.2,695.8 1308.4,700.7 1308.4,703.5 1308,707.8 1306.6,705.2 1306.3,700.9 1306.4,695.8 
							1307,692.1 						"/>
						<polygon class="st0" points="1296.3,688.7 1296.5,693.6 1296.4,696.4 1296.1,700.7 1294.7,698.1 1294.4,693.8 1294.5,688.7 
							1295,685 						"/>
						<polygon class="st0" points="1283.8,683.3 1284.1,688.3 1284,691.1 1283.6,695.4 1282.3,692.8 1281.9,688.5 1282,683.4 
							1282.6,679.7 						"/>
						<polygon class="st0" points="1270.3,678 1270.5,683 1270.4,685.8 1270.1,690.1 1268.7,687.5 1268.4,683.2 1268.5,678.1 
							1269,674.4 						"/>
						<polygon class="st0" points="1260.5,670 1260.7,675 1260.6,677.8 1260.2,682.1 1258.9,679.5 1258.5,675.2 1258.6,670.1 
							1259.2,666.4 						"/>
						<polygon class="st0" points="1247.4,662.8 1247.7,667.8 1247.6,670.6 1247.2,674.9 1245.8,672.3 1245.5,668 1245.6,662.9 
							1246.2,659.2 						"/>
						<polygon class="st0" points="1234.4,654.8 1234.6,659.7 1234.6,662.5 1234.2,666.8 1232.8,664.3 1232.5,659.9 1232.6,654.8 
							1233.2,651.1 						"/>
						<polygon class="st0" points="1225,650.7 1225.3,655.7 1225.2,658.5 1224.8,662.8 1223.4,660.2 1223.1,655.9 1223.2,650.8 
							1223.8,647 						"/>
						<polygon class="st0" points="1215.2,643.8 1215.4,648.8 1215.3,651.6 1215,655.9 1213.6,653.3 1213.3,649 1213.4,643.9 
							1213.9,640.2 						"/>
						<polygon class="st0" points="1204.9,634.9 1205.1,639.8 1205,642.6 1204.6,647 1203.3,644.4 1202.9,640 1203.1,634.9 
							1203.6,631.2 						"/>
					</g>
					<g>
						<polygon class="st0" points="1394.1,657.9 1390,660.5 1387.5,661.8 1383.6,663.7 1385.1,661.2 1388.7,658.8 1393.2,656.3 
							1396.7,655 						"/>
						<polygon class="st0" points="1394.3,644 1390.2,646.6 1387.7,648 1383.8,649.8 1385.3,647.3 1388.9,644.9 1393.4,642.4 
							1396.9,641.1 						"/>
						<polygon class="st0" points="1392.8,630.5 1388.6,633.2 1386.2,634.5 1382.3,636.3 1383.8,633.9 1387.4,631.5 1391.9,629 
							1395.4,627.7 						"/>
						<polygon class="st0" points="1390.6,616.2 1386.5,618.8 1384,620.1 1380.1,621.9 1381.6,619.5 1385.2,617 1389.7,614.6 
							1393.2,613.3 						"/>
						<polygon class="st0" points="1392.7,603.6 1388.5,606.3 1386.1,607.6 1382.2,609.4 1383.7,607 1387.3,604.5 1391.8,602.1 
							1395.3,600.7 						"/>
						<polygon class="st0" points="1392.5,588.8 1388.3,591.4 1385.8,592.7 1381.9,594.6 1383.5,592.1 1387.1,589.7 1391.6,587.2 
							1395,585.9 						"/>
						<polygon class="st0" points="1393,573.5 1388.8,576.1 1386.3,577.4 1382.4,579.3 1384,576.8 1387.6,574.4 1392.1,571.9 
							1395.6,570.6 						"/>
						<polygon class="st0" points="1391.9,563.3 1387.7,566 1385.2,567.3 1381.3,569.1 1382.9,566.6 1386.4,564.2 1390.9,561.8 
							1394.4,560.4 						"/>
						<polygon class="st0" points="1392.9,551.3 1388.8,554 1386.3,555.3 1382.4,557.1 1383.9,554.7 1387.5,552.2 1392,549.8 
							1395.5,548.4 						"/>
						<polygon class="st0" points="1395.6,537.9 1391.4,540.6 1388.9,541.9 1385,543.7 1386.6,541.3 1390.1,538.8 1394.6,536.4 
							1398.1,535 						"/>
					</g>
					<g>
						<polygon class="st0" points="1465.5,719.2 1461.2,716.9 1458.9,715.3 1455.4,712.8 1458.3,713 1462.1,714.9 1466.5,717.7 
							1469.3,720.1 						"/>
						<polygon class="st0" points="1477.8,712.7 1473.5,710.3 1471.1,708.8 1467.6,706.3 1470.5,706.4 1474.4,708.4 1478.7,711.1 
							1481.6,713.5 						"/>
						<polygon class="st0" points="1488.8,704.8 1484.5,702.5 1482.1,700.9 1478.6,698.4 1481.5,698.5 1485.4,700.5 1489.7,703.3 
							1492.6,705.7 						"/>
						<polygon class="st0" points="1500.4,696 1496,693.6 1493.7,692.1 1490.2,689.5 1493.1,689.7 1497,691.7 1501.3,694.4 
							1504.2,696.8 						"/>
						<polygon class="st0" points="1512.3,691.7 1508,689.3 1505.6,687.8 1502.1,685.3 1505,685.4 1508.9,687.4 1513.2,690.1 
							1516.1,692.5 						"/>
						<polygon class="st0" points="1525.2,684.3 1520.9,681.9 1518.5,680.4 1515,677.9 1517.9,678 1521.8,680 1526.1,682.7 
							1529,685.1 						"/>
						<polygon class="st0" points="1538.8,677.3 1534.5,675 1532.1,673.4 1528.6,670.9 1531.6,671.1 1535.4,673 1539.7,675.8 
							1542.6,678.2 						"/>
						<polygon class="st0" points="1547.2,671.4 1542.8,669 1540.5,667.5 1537,665 1539.9,665.1 1543.8,667.1 1548.1,669.8 
							1550.9,672.2 						"/>
						<polygon class="st0" points="1558.2,666.5 1553.8,664.2 1551.5,662.7 1548,660.1 1550.9,660.3 1554.8,662.2 1559.1,665 
							1561.9,667.4 						"/>
						<polygon class="st0" points="1571.1,662.3 1566.8,660 1564.5,658.4 1561,655.9 1563.9,656.1 1567.7,658 1572.1,660.8 
							1574.9,663.2 						"/>
					</g>
					<polygon class="st0" points="1557.7,876.8 1557.4,871.9 1557.5,869.1 1557.7,864.8 1559.2,867.3 1559.5,871.7 1559.5,876.8 
						1559,880.5 					"/>
					<polygon class="st0" points="1567.3,882.3 1567,877.4 1567,874.6 1567.3,870.3 1568.7,872.8 1569.1,877.1 1569.1,882.3 
						1568.6,886 					"/>
					<polygon class="st0" points="1430.8,802.1 1430.5,797.1 1430.6,794.3 1430.8,790 1432.3,792.6 1432.7,796.9 1432.6,802 
						1432.1,805.7 					"/>
					<g>
						<g>
							<path class="st0" d="M1379.1,507.3c-135.4,0-245.2,109.8-245.2,245.2s109.8,245.2,245.2,245.2s245.2-109.8,245.2-245.2
								S1514.5,507.3,1379.1,507.3z M1398,537c26.8-14.2,150.4,53.4,147.5,90.6c-0.8,10.5-18.6,19.8-35.2,29.2
								c-27.6,15.7-54,28.8-68.6,32.2c-17,3.9-44.6-14.6-50.4-24.6c-8.8-15.3-6.6-51.3-6.3-66.7C1385.3,582.2,1380.5,546.3,1398,537
								z M1436.8,777.8c4.1-2.3,9.3-1,11.6,3.1s0.9,9.3-3.1,11.6c-4.1,2.3-9.3,1-11.6-3.1S1432.8,780.1,1436.8,777.8z M1428.6,713.3
								c0-4.7,3.8-8.5,8.5-8.5s8.5,3.8,8.5,8.5s-3.8,8.5-8.5,8.5S1428.6,718,1428.6,713.3z M1426,752.4c0,25.9-21,46.9-46.9,46.9
								c-25.9,0-46.9-21-46.9-46.9s21-46.9,46.9-46.9C1405,705.5,1426,726.5,1426,752.4z M1369.4,680c2.3-4.1,7.5-5.5,11.6-3.1
								c4.1,2.3,5.4,7.5,3.1,11.6s-7.5,5.5-11.6,3.1S1367,684,1369.4,680z M1354.2,545.9c8.6,5.9,7.8,26,7.7,45.1
								c-0.2,31.8-2,61.2-6.4,75.5c-5.1,16.6-34.9,31.3-46.5,31.3c-17.7,0-47.8-20-60.9-27.9c-13.3-8-46.8-21.8-46.1-41.6
								C1203.1,598.1,1323.5,524.8,1354.2,545.9z M1321.6,784.1c4.7,0,8.5,3.8,8.5,8.5s-3.8,8.5-8.5,8.5s-8.5-3.8-8.5-8.5
								S1316.9,784.1,1321.6,784.1z M1308.4,726c-2.3-4.1-0.9-9.3,3.1-11.6c4.1-2.3,9.3-1,11.6,3.1c2.3,4.1,0.9,9.3-3.1,11.6
								C1315.9,731.5,1310.7,730.1,1308.4,726z M1183.1,843.8c-25.6-16.1-28.9-157,4.7-173.1c9.5-4.5,26.5,6.3,42.9,15.9
								c27.4,16.1,52,32.3,62.2,43.3c11.8,12.8,9.7,45.9,3.9,55.9c-8.8,15.3-41.2,31.4-54.6,38.8
								C1228.6,832.1,1199.8,854.3,1183.1,843.8z M1360.2,967.8c-26.8,14.2-150.4-53.4-147.5-90.6c0.8-10.5,18.6-19.8,35.2-29.2
								c27.6-15.7,54-28.8,68.6-32.2c17-3.9,44.6,14.6,50.4,24.6c8.8,15.3,6.6,51.3,6.3,66.7
								C1372.9,922.6,1377.7,958.6,1360.2,967.8z M1392.6,827.5c-2.3,4.1-7.5,5.5-11.6,3.1s-5.4-7.5-3.1-11.6
								c2.3-4.1,7.5-5.5,11.6-3.1S1394.9,823.5,1392.6,827.5z M1404,959c-8.6-5.9-7.8-26-7.7-45.1c0.2-31.8,2-61.2,6.4-75.5
								c5.1-16.6,34.9-31.3,46.5-31.3c17.7,0,47.8,20,60.9,27.9c13.3,8,46.8,21.8,46.1,41.6C1555.1,906.7,1434.7,980.1,1404,959z
								 M1570.4,834.1c-9.5,4.5-26.5-6.3-42.9-15.9c-27.4-16.1-52-32.3-62.2-43.3c-11.8-12.8-9.7-45.9-3.9-55.9
								c8.8-15.3,41.2-31.4,54.6-38.8c13.6-7.5,42.3-29.7,59.1-19.2C1600.8,677.2,1604.1,818.1,1570.4,834.1z"/>
						</g>
					</g>
				</g>
			</g>
		</g>
		<g>
			<path class="st0" d="M1177,780.5c-2.2-16.2,0.8-66.4,6.7-83.9c-2.9,20.7-3.9,100,0.8,118.2C1180.8,809.1,1177,780.5,1177,780.5z"
				/>
			<path class="st0" d="M1400.4,932.4c2-28.9,0.7-45.5,3.3-83.2c0,32.1,2.8,58.3-2.9,86.6C1399.9,932.6,1399,929.5,1400.4,932.4z"/>
			<path class="st0" d="M1450.6,676c26.7-11.4,40.8-20.1,75.5-34.9c-28.6,14.6-50.6,29-78.4,36.8
				C1450.2,675.6,1452.7,673.4,1450.6,676z"/>
			<path class="st0" d="M1204.3,676.9c24.5,15.5,39.7,22.3,71.6,42.5c-28.2-15.3-52.6-25.2-74.8-43.7
				C1204.3,676.4,1207.5,677.2,1204.3,676.9z"/>
			<path class="st0" d="M1475.7,811.9c16.8,0.7,33.4,7.6,45.7,19.1c-3.1-9.7-10.7-17.8-20.1-21.5c-9.4-3.7-20.6-3-29.4,2
				C1475.1,812.4,1478.4,813.3,1475.7,811.9z"/>
			<path class="st0" d="M1580.1,697.5c1.3,16.1,1.3,32.7,0.8,48.7c-0.6,18.3-1.9,35.8-2.7,50.6
				C1589.2,770.7,1587.8,713.2,1580.1,697.5z"/>
			<path class="st0" d="M1428.6,547.1c16.2,11.9,74.4,42.3,91.2,51C1505.4,585,1456.5,553.2,1428.6,547.1z"/>
			<path class="st0" d="M1219.2,619.7c30.3-24,75.4-49.5,112.3-62.5c-33.5,4.7-35,7.4-57.8,19.3
				C1253.5,587,1232.7,601.3,1219.2,619.7z"/>
			<path class="st0" d="M1346,553.1c-0.2,3.4,1.5,5.9,5,4.4c3.5-1.5,3.7-2.7,0.9-4.8C1349.1,550.7,1349.4,551.6,1346,553.1z"/>
			<path class="st0" d="M1324.2,952c-29.5-17.6-72.9-46-96.7-62.6C1227.5,889.3,1292.1,947.6,1324.2,952z"/>
			<path class="st0" d="M1335.8,957.9c0.4,3.5,2.6,4.3,5.2,2.6c2.7-1.7,2.3-2.4-0.4-4.5C1337.9,953.9,1335.3,954.3,1335.8,957.9z"/>
			<path class="st0" d="M1293.2,764.3c-0.3,2.1-2.7,5.5-3,7.7c5.1-1,5.4-5.9,5.3-13.2C1293.6,760.3,1293.7,760.7,1293.2,764.3z"/>
			<path class="st0" d="M1263.1,690c-2.8-1.1-4.8,4-2.4,5.8s6.2,0.1,7.6-2.7c1.4-2.7,1.1-5.9,0.7-9
				C1266.4,685.3,1263.9,686.5,1263.1,690z"/>
			<path class="st0" d="M1177,780.5c-2.2-16.2,0.8-66.4,6.7-83.9c-2.9,20.7-3.9,100,0.8,118.2C1180.8,809.1,1177,780.5,1177,780.5z"
				/>
			<path class="st0" d="M1400.4,932.4c2-28.9,0.7-45.5,3.3-83.2c0,32.1,2.8,58.3-2.9,86.6C1399.9,932.6,1399,929.5,1400.4,932.4z"/>
			<path class="st0" d="M1450.6,676c26.7-11.4,40.8-20.1,75.5-34.9c-28.6,14.6-50.6,29-78.4,36.8
				C1450.2,675.6,1452.7,673.4,1450.6,676z"/>
			<path class="st0" d="M1204.3,676.9c24.5,15.5,39.7,22.3,71.6,42.5c-28.2-15.3-52.6-25.2-74.8-43.7
				C1204.3,676.4,1207.5,677.2,1204.3,676.9z"/>
			<path class="st0" d="M1475.7,811.9c16.8,0.7,33.4,7.6,45.7,19.1c-3.1-9.7-10.7-17.8-20.1-21.5c-9.4-3.7-20.6-3-29.4,2
				C1475.1,812.4,1478.4,813.3,1475.7,811.9z"/>
			<path class="st0" d="M1580.1,697.5c1.3,16.1,1.3,32.7,0.8,48.7c-0.6,18.3-1.9,35.8-2.7,50.6
				C1589.2,770.7,1587.8,713.2,1580.1,697.5z"/>
			<path class="st0" d="M1428.6,547.1c16.2,11.9,74.4,42.3,91.2,51C1505.4,585,1456.5,553.2,1428.6,547.1z"/>
			<path class="st0" d="M1219.2,619.7c30.3-24,75.4-49.5,112.3-62.5c-33.5,4.7-35,7.4-57.8,19.3
				C1253.5,587,1232.7,601.3,1219.2,619.7z"/>
			<path class="st0" d="M1346,553.1c-0.2,3.4,1.5,5.9,5,4.4c3.5-1.5,3.7-2.7,0.9-4.8C1349.1,550.7,1349.4,551.6,1346,553.1z"/>
			<path class="st0" d="M1324.2,952c-29.5-17.6-72.9-46-96.7-62.6C1227.5,889.3,1292.1,947.6,1324.2,952z"/>
			<path class="st0" d="M1335.8,957.9c0.4,3.5,2.6,4.3,5.2,2.6c2.7-1.7,2.3-2.4-0.4-4.5C1337.9,953.9,1335.3,954.3,1335.8,957.9z"/>
			<path class="st0" d="M1293.2,764.3c-0.3,2.1-2.7,5.5-3,7.7c5.1-1,5.4-5.9,5.3-13.2C1293.6,760.3,1293.7,760.7,1293.2,764.3z"/>
			<path class="st0" d="M1263.1,690c-2.8-1.1-4.8,4-2.4,5.8s6.2,0.1,7.6-2.7c1.4-2.7,1.1-5.9,0.7-9
				C1266.4,685.3,1263.9,686.5,1263.1,690z"/>
			<path class="st0" d="M1177,780.5c-2.2-16.2,0.8-66.4,6.7-83.9c-2.9,20.7-3.9,100,0.8,118.2C1180.8,809.1,1177,780.5,1177,780.5z"
				/>
			<path class="st0" d="M1400.4,932.4c2-28.9,0.7-45.5,3.3-83.2c0,32.1,2.8,58.3-2.9,86.6C1399.9,932.6,1399,929.5,1400.4,932.4z"/>
			<path class="st0" d="M1450.6,676c26.7-11.4,40.8-20.1,75.5-34.9c-28.6,14.6-50.6,29-78.4,36.8
				C1450.2,675.6,1452.7,673.4,1450.6,676z"/>
			<path class="st0" d="M1204.3,676.9c24.5,15.5,39.7,22.3,71.6,42.5c-28.2-15.3-52.6-25.2-74.8-43.7
				C1204.3,676.4,1207.5,677.2,1204.3,676.9z"/>
			<path class="st0" d="M1475.7,811.9c16.8,0.7,33.4,7.6,45.7,19.1c-3.1-9.7-10.7-17.8-20.1-21.5c-9.4-3.7-20.6-3-29.4,2
				C1475.1,812.4,1478.4,813.3,1475.7,811.9z"/>
			<path class="st0" d="M1580.1,697.5c1.3,16.1,1.3,32.7,0.8,48.7c-0.6,18.3-1.9,35.8-2.7,50.6
				C1589.2,770.7,1587.8,713.2,1580.1,697.5z"/>
			<path class="st0" d="M1428.6,547.1c16.2,11.9,74.4,42.3,91.2,51C1505.4,585,1456.5,553.2,1428.6,547.1z"/>
			<path class="st0" d="M1219.2,619.7c30.3-24,75.4-49.5,112.3-62.5c-33.5,4.7-35,7.4-57.8,19.3
				C1253.5,587,1232.7,601.3,1219.2,619.7z"/>
			<path class="st0" d="M1346,553.1c-0.2,3.4,1.5,5.9,5,4.4c3.5-1.5,3.7-2.7,0.9-4.8C1349.1,550.7,1349.4,551.6,1346,553.1z"/>
			<path class="st0" d="M1324.2,952c-29.5-17.6-72.9-46-96.7-62.6C1227.5,889.3,1292.1,947.6,1324.2,952z"/>
			<path class="st0" d="M1335.8,957.9c0.4,3.5,2.6,4.3,5.2,2.6c2.7-1.7,2.3-2.4-0.4-4.5C1337.9,953.9,1335.3,954.3,1335.8,957.9z"/>
			<path class="st0" d="M1293.2,764.3c-0.3,2.1-2.7,5.5-3,7.7c5.1-1,5.4-5.9,5.3-13.2C1293.6,760.3,1293.7,760.7,1293.2,764.3z"/>
			<path class="st0" d="M1263.1,690c-2.8-1.1-4.8,4-2.4,5.8s6.2,0.1,7.6-2.7c1.4-2.7,1.1-5.9,0.7-9
				C1266.4,685.3,1263.9,686.5,1263.1,690z"/>
			<path class="st0" d="M1177,780.5c-2.2-16.2,0.8-66.4,6.7-83.9c-2.9,20.7-3.9,100,0.8,118.2C1180.8,809.1,1177,780.5,1177,780.5z"
				/>
			<path class="st0" d="M1400.4,932.4c2-28.9,0.7-45.5,3.3-83.2c0,32.1,2.8,58.3-2.9,86.6C1399.9,932.6,1399,929.5,1400.4,932.4z"/>
			<path class="st0" d="M1450.6,676c26.7-11.4,40.8-20.1,75.5-34.9c-28.6,14.6-50.6,29-78.4,36.8
				C1450.2,675.6,1452.7,673.4,1450.6,676z"/>
			<path class="st0" d="M1204.3,676.9c24.5,15.5,39.7,22.3,71.6,42.5c-28.2-15.3-52.6-25.2-74.8-43.7
				C1204.3,676.4,1207.5,677.2,1204.3,676.9z"/>
			<path class="st0" d="M1475.7,811.9c16.8,0.7,33.4,7.6,45.7,19.1c-3.1-9.7-10.7-17.8-20.1-21.5c-9.4-3.7-20.6-3-29.4,2
				C1475.1,812.4,1478.4,813.3,1475.7,811.9z"/>
			<path class="st0" d="M1580.1,697.5c1.3,16.1,1.3,32.7,0.8,48.7c-0.6,18.3-1.9,35.8-2.7,50.6
				C1589.2,770.7,1587.8,713.2,1580.1,697.5z"/>
			<path class="st0" d="M1428.6,547.1c16.2,11.9,74.4,42.3,91.2,51C1505.4,585,1456.5,553.2,1428.6,547.1z"/>
			<path class="st0" d="M1219.2,619.7c30.3-24,75.4-49.5,112.3-62.5c-33.5,4.7-35,7.4-57.8,19.3
				C1253.5,587,1232.7,601.3,1219.2,619.7z"/>
			<path class="st0" d="M1346,553.1c-0.2,3.4,1.5,5.9,5,4.4c3.5-1.5,3.7-2.7,0.9-4.8C1349.1,550.7,1349.4,551.6,1346,553.1z"/>
			<path class="st0" d="M1324.2,952c-29.5-17.6-72.9-46-96.7-62.6C1227.5,889.3,1292.1,947.6,1324.2,952z"/>
			<path class="st0" d="M1335.8,957.9c0.4,3.5,2.6,4.3,5.2,2.6c2.7-1.7,2.3-2.4-0.4-4.5C1337.9,953.9,1335.3,954.3,1335.8,957.9z"/>
			<path class="st0" d="M1293.2,764.3c-0.3,2.1-2.7,5.5-3,7.7c5.1-1,5.4-5.9,5.3-13.2C1293.6,760.3,1293.7,760.7,1293.2,764.3z"/>
			<path class="st0" d="M1263.1,690c-2.8-1.1-4.8,4-2.4,5.8s6.2,0.1,7.6-2.7c1.4-2.7,1.1-5.9,0.7-9
				C1266.4,685.3,1263.9,686.5,1263.1,690z"/>
		</g>
		<g>
			<path class="st0" d="M1193.6,579.5c-16.9,15.7-48.2,62.5-48.2,62.5c9.4-21.5,24.9-45.2,40.3-60.5c21-21,40-33.4,59.3-44.3
				C1245,537.1,1206,568.1,1193.6,579.5z"/>
			<path class="st0" d="M1275.3,514.8c-2.3,2.5-0.8,2.2-1.8,4c1.7,3.3,4.5,1.2,5.7-2.4C1279.2,516.4,1282.6,513.8,1275.3,514.8z"/>
			<path class="st0" d="M1626,853.3c-12.7,26.8-23.2,48.7-45.8,70.7c-20.8,20.3-53.1,41.1-77.3,54c0,0,53.2-38.1,82.7-70"/>
			<path class="st0" d="M1636.9,827.6c2.6-0.7,3-1.6,2.9-3C1638.8,823.7,1639,820.5,1636.9,827.6z"/>
			<path class="st0" d="M1246.6,981.8c-38.9-15.3-72.4-44.1-93.4-80.3c0,0,36.5,39.4,41.3,43.5"/>
			<path class="st0" d="M1255.7,988.3c2.3,1.2,2.4,0.9,4.7,2.1c0.4-3.3,0-1.2,0.4-4.5C1258.2,987.1,1258.3,984.2,1255.7,988.3z"/>
		</g>
	</g>
</g>
</svg>
